M48
; DRILL file KiCad 10.0.4 date 2026-07-05T18:30:16
; FORMAT={-:-/ absolute / inch / decimal}
; #@! TF.CreationDate,2026-07-05T18:30:16+03:00
; #@! TF.GenerationSoftware,Kicad,Pcbnew,10.0.4
; #@! TF.FileFunction,Plated,1,2,PTH
FMAT,2
INCH
; #@! TA.AperFunction,Plated,PTH,ViaDrill
T1C0.0118
; #@! TA.AperFunction,Plated,PTH,ComponentDrill
T2C0.0354
%
G90
G05
T1
X6.005Y-3.315
X6.005Y-3.64
X6.005Y-3.67
X6.005Y-3.7
X6.005Y-3.73
X6.005Y-4.07
X6.005Y-4.1
X6.005Y-4.13
X6.005Y-4.16
X6.015Y-3.47
X6.015Y-3.5
X6.02Y-3.43
X6.035Y-3.64
X6.035Y-3.67
X6.035Y-3.7
X6.035Y-3.73
X6.035Y-4.07
X6.035Y-4.1
X6.035Y-4.13
X6.035Y-4.16
X6.045Y-3.47
X6.045Y-3.5
X6.055Y-3.23
X6.065Y-3.64
X6.065Y-3.67
X6.065Y-3.7
X6.065Y-3.73
X6.065Y-4.07
X6.065Y-4.1
X6.065Y-4.13
X6.065Y-4.16
X6.075Y-3.47
X6.075Y-3.5
X6.085Y-3.43
X6.095Y-3.64
X6.095Y-3.67
X6.095Y-3.7
X6.095Y-3.73
X6.095Y-4.07
X6.095Y-4.1
X6.095Y-4.13
X6.095Y-4.16
X6.105Y-3.47
X6.105Y-3.5
X6.125Y-3.64
X6.125Y-3.67
X6.125Y-3.7
X6.125Y-3.73
X6.125Y-4.07
X6.125Y-4.1
X6.125Y-4.13
X6.125Y-4.16
X6.13Y-3.085
X6.13Y-3.115
X6.13Y-3.145
X6.13Y-3.175
X6.135Y-3.47
X6.135Y-3.5
X6.135Y-3.53
X6.135Y-3.56
X6.135Y-3.59
X6.15Y-3.43
X6.155Y-4.07
X6.155Y-4.1
X6.155Y-4.13
X6.155Y-4.16
X6.16Y-3.085
X6.16Y-3.115
X6.16Y-3.145
X6.16Y-3.175
X6.165Y-3.47
X6.165Y-3.5
X6.165Y-3.53
X6.165Y-3.56
X6.165Y-3.59
X6.165Y-3.73
X6.165Y-3.76
X6.165Y-3.79
X6.165Y-3.82
X6.165Y-3.85
X6.165Y-3.88
X6.165Y-3.91
X6.195Y-3.47
X6.195Y-3.5
X6.195Y-3.53
X6.195Y-3.56
X6.195Y-3.59
X6.195Y-3.73
X6.195Y-3.76
X6.195Y-3.79
X6.195Y-3.82
X6.195Y-3.85
X6.195Y-3.88
X6.195Y-3.91
X6.21Y-4.235
X6.21Y-4.265
X6.21Y-4.295
X6.21Y-4.325
X6.215Y-3.43
X6.225Y-3.47
X6.225Y-3.5
X6.225Y-3.53
X6.225Y-3.56
X6.225Y-3.59
X6.23Y-4.06
X6.23Y-4.09
X6.25Y-3.4
X6.25Y-3.43
X6.255Y-3.875
X6.26Y-4.06
X6.26Y-4.09
X6.2631Y-4.0274
X6.28Y-3.4
X6.28Y-3.43
X6.29Y-4.06
X6.29Y-4.09
X6.3Y-3.925
X6.31Y-3.4
X6.31Y-3.43
X6.32Y-4.06
X6.32Y-4.09
X6.34Y-3.4
X6.34Y-3.43
X6.34Y-3.905
X6.36Y-3.175
X6.36Y-3.205
X6.365Y-3.905
X6.37Y-3.4
X6.37Y-3.43
X6.39Y-3.175
X6.39Y-3.205
X6.395Y-3.785
X6.395Y-3.815
X6.395Y-3.845
X6.395Y-3.875
X6.395Y-3.905
X6.4Y-3.4
X6.4Y-3.43
X6.42Y-3.175
X6.42Y-3.205
X6.425Y-3.785
X6.425Y-3.815
X6.425Y-3.845
X6.425Y-3.875
X6.425Y-3.905
X6.43Y-3.4
X6.43Y-3.43
X6.455Y-3.785
X6.455Y-3.815
X6.455Y-3.845
X6.455Y-3.875
X6.455Y-3.905
X6.455Y-4.11
X6.455Y-4.14
X6.455Y-4.17
X6.455Y-4.2
X6.46Y-3.4
X6.46Y-3.43
X6.485Y-3.785
X6.485Y-3.815
X6.485Y-3.845
X6.485Y-3.875
X6.485Y-3.905
X6.49Y-3.4
X6.49Y-3.43
X6.495Y-3.095
X6.495Y-3.125
X6.495Y-3.155
X6.51Y-4.235
X6.51Y-4.265
X6.51Y-4.295
X6.51Y-4.325
X6.52Y-3.4
X6.52Y-3.43
X6.525Y-3.095
X6.525Y-3.125
X6.525Y-3.155
X6.54Y-4.11
X6.54Y-4.14
X6.54Y-4.17
X6.545Y-3.785
X6.55Y-3.4
X6.55Y-3.43
X6.5699Y-4.0727
X6.5699Y-4.1027
X6.5699Y-4.1327
X6.5699Y-4.1627
X6.575Y-3.785
X6.585Y-3.285
X6.5999Y-4.0727
X6.5999Y-4.1027
X6.5999Y-4.1327
X6.5999Y-4.1627
X6.605Y-3.785
X6.6299Y-4.0727
X6.6299Y-4.1027
X6.6299Y-4.1327
X6.6299Y-4.1627
X6.635Y-3.785
X6.6599Y-4.0727
X6.6599Y-4.1027
X6.6599Y-4.1327
X6.6599Y-4.1627
X6.6899Y-4.0727
X6.6899Y-4.1027
X6.6899Y-4.1327
X6.6899Y-4.1627
X6.71Y-3.435
X6.7199Y-4.0727
X6.7199Y-4.1027
X6.7199Y-4.1327
X6.7199Y-4.1627
T2
G00X6.1363Y-4.237
M15
G01X6.1363Y-4.3
M16
G05
G00X6.5851Y-4.237
M15
G01X6.5851Y-4.3
M16
G05
M30
