%TF.GenerationSoftware,KiCad,Pcbnew,10.0.4*%
%TF.CreationDate,2026-07-05T18:30:16+03:00*%
%TF.ProjectId,Midea WiFi Dongle,4d696465-6120-4576-9946-6920446f6e67,1*%
%TF.SameCoordinates,Original*%
%TF.FileFunction,Copper,L2,Bot*%
%TF.FilePolarity,Positive*%
%FSLAX46Y46*%
G04 Gerber Fmt 4.6, Leading zero omitted, Abs format (unit mm)*
G04 Created by KiCad (PCBNEW 10.0.4) date 2026-07-05 18:30:16*
%MOMM*%
%LPD*%
G01*
G04 APERTURE LIST*
G04 Aperture macros list*
%AMRoundRect*
0 Rectangle with rounded corners*
0 $1 Rounding radius*
0 $2 $3 $4 $5 $6 $7 $8 $9 X,Y pos of 4 corners*
0 Add a 4 corners polygon primitive as box body*
4,1,4,$2,$3,$4,$5,$6,$7,$8,$9,$2,$3,0*
0 Add four circle primitives for the rounded corners*
1,1,$1+$1,$2,$3*
1,1,$1+$1,$4,$5*
1,1,$1+$1,$6,$7*
1,1,$1+$1,$8,$9*
0 Add four rect primitives between the rounded corners*
20,1,$1+$1,$2,$3,$4,$5,0*
20,1,$1+$1,$4,$5,$6,$7,0*
20,1,$1+$1,$6,$7,$8,$9,0*
20,1,$1+$1,$8,$9,$2,$3,0*%
%AMFreePoly0*
4,1,6,1.000000,0.000000,0.500000,-0.750000,-0.500000,-0.750000,-0.500000,0.750000,0.500000,0.750000,1.000000,0.000000,1.000000,0.000000,$1*%
%AMFreePoly1*
4,1,6,0.500000,-0.750000,-0.650000,-0.750000,-0.150000,0.000000,-0.650000,0.750000,0.500000,0.750000,0.500000,-0.750000,0.500000,-0.750000,$1*%
G04 Aperture macros list end*
%TA.AperFunction,ComponentPad*%
%ADD10O,1.900000X3.500000*%
%TD*%
%TA.AperFunction,SMDPad,CuDef*%
%ADD11RoundRect,0.200000X-0.275000X0.200000X-0.275000X-0.200000X0.275000X-0.200000X0.275000X0.200000X0*%
%TD*%
%TA.AperFunction,SMDPad,CuDef*%
%ADD12RoundRect,0.200000X0.200000X0.275000X-0.200000X0.275000X-0.200000X-0.275000X0.200000X-0.275000X0*%
%TD*%
%TA.AperFunction,SMDPad,CuDef*%
%ADD13RoundRect,0.225000X-0.225000X-0.250000X0.225000X-0.250000X0.225000X0.250000X-0.225000X0.250000X0*%
%TD*%
%TA.AperFunction,SMDPad,CuDef*%
%ADD14FreePoly0,270.000000*%
%TD*%
%TA.AperFunction,SMDPad,CuDef*%
%ADD15FreePoly1,270.000000*%
%TD*%
%TA.AperFunction,SMDPad,CuDef*%
%ADD16RoundRect,0.225000X-0.250000X0.225000X-0.250000X-0.225000X0.250000X-0.225000X0.250000X0.225000X0*%
%TD*%
%TA.AperFunction,SMDPad,CuDef*%
%ADD17RoundRect,0.375000X0.375000X-0.625000X0.375000X0.625000X-0.375000X0.625000X-0.375000X-0.625000X0*%
%TD*%
%TA.AperFunction,SMDPad,CuDef*%
%ADD18RoundRect,0.500000X1.400000X-0.500000X1.400000X0.500000X-1.400000X0.500000X-1.400000X-0.500000X0*%
%TD*%
%TA.AperFunction,SMDPad,CuDef*%
%ADD19RoundRect,0.225000X0.225000X0.250000X-0.225000X0.250000X-0.225000X-0.250000X0.225000X-0.250000X0*%
%TD*%
%TA.AperFunction,ViaPad*%
%ADD20C,0.600000*%
%TD*%
%TA.AperFunction,Conductor*%
%ADD21C,0.150000*%
%TD*%
G04 APERTURE END LIST*
D10*
%TO.P,J1,5*%
%TO.N,N/C*%
X167261569Y-108420483D03*
X155861569Y-108420483D03*
%TD*%
D11*
%TO.P,R3,2*%
%TO.N,+3.3V*%
X153670000Y-85026000D03*
%TO.P,R3,1*%
%TO.N,/EN*%
X153670000Y-83376000D03*
%TD*%
D12*
%TO.P,R4,1*%
%TO.N,/GPIO15*%
X169354000Y-86614000D03*
%TO.P,R4,2*%
%TO.N,GND*%
X167704000Y-86614000D03*
%TD*%
D13*
%TO.P,C2,1*%
%TO.N,/RESET*%
X158864000Y-80772000D03*
%TO.P,C2,2*%
%TO.N,GND*%
X160414000Y-80772000D03*
%TD*%
D11*
%TO.P,R2,1*%
%TO.N,/RESET*%
X156972000Y-83376000D03*
%TO.P,R2,2*%
%TO.N,+3.3V*%
X156972000Y-85026000D03*
%TD*%
%TO.P,R1,1*%
%TO.N,/GPIO0*%
X155321000Y-83376000D03*
%TO.P,R1,2*%
%TO.N,+3.3V*%
X155321000Y-85026000D03*
%TD*%
D13*
%TO.P,C6,1*%
%TO.N,+3.3V*%
X159753000Y-98044000D03*
%TO.P,C6,2*%
%TO.N,GND*%
X161303000Y-98044000D03*
%TD*%
%TO.P,C8,1*%
%TO.N,+3.3V*%
X159753000Y-93091000D03*
%TO.P,C8,2*%
%TO.N,GND*%
X161303000Y-93091000D03*
%TD*%
D14*
%TO.P,JP1,1,A_1*%
%TO.N,GND*%
X168915000Y-80960000D03*
D15*
%TO.P,JP1,2,B_2*%
%TO.N,/GPIO0*%
X168915000Y-82410000D03*
%TD*%
D13*
%TO.P,C5,1*%
%TO.N,+3.3V*%
X159753000Y-91440000D03*
%TO.P,C5,2*%
%TO.N,GND*%
X161303000Y-91440000D03*
%TD*%
D16*
%TO.P,C12,1*%
%TO.N,+5V*%
X164464306Y-91479244D03*
%TO.P,C12,2*%
%TO.N,GND*%
X164464306Y-93029244D03*
%TD*%
D13*
%TO.P,C9,2*%
%TO.N,GND*%
X161303000Y-94742000D03*
%TO.P,C9,1*%
%TO.N,+3.3V*%
X159753000Y-94742000D03*
%TD*%
D17*
%TO.P,U3,1,VI_1*%
%TO.N,+5V*%
X163971000Y-89358000D03*
%TO.P,U3,2,GND_2*%
%TO.N,GND*%
X161671000Y-89358000D03*
D18*
X161671000Y-83058000D03*
D17*
%TO.P,U3,3,VO_3*%
%TO.N,+3.3V*%
X159371000Y-89358000D03*
%TD*%
D19*
%TO.P,C13,1*%
%TO.N,+5V*%
X164351000Y-94742000D03*
%TO.P,C13,2*%
%TO.N,GND*%
X162801000Y-94742000D03*
%TD*%
D13*
%TO.P,C10,1*%
%TO.N,+3.3V*%
X159753000Y-96393000D03*
%TO.P,C10,2*%
%TO.N,GND*%
X161303000Y-96393000D03*
%TD*%
D16*
%TO.P,C11,1*%
%TO.N,+5V*%
X162813306Y-91479244D03*
%TO.P,C11,2*%
%TO.N,GND*%
X162813306Y-93029244D03*
%TD*%
D20*
%TO.N,/RESET*%
X152527000Y-84201000D03*
%TO.N,/EN*%
X153797000Y-82042000D03*
%TO.N,GND*%
X154051000Y-103378000D03*
X165354000Y-107569000D03*
X159512000Y-87122000D03*
X160528000Y-103886000D03*
X152527000Y-92456000D03*
X160528000Y-103124000D03*
X164973000Y-79375000D03*
X164973000Y-80137000D03*
X152527000Y-105664000D03*
X158242000Y-103124000D03*
X160274000Y-86360000D03*
X168529000Y-96139000D03*
X161036000Y-99187000D03*
X162433000Y-97663000D03*
X153289000Y-103378000D03*
X152527000Y-93218000D03*
X153289000Y-93218000D03*
X157734000Y-109093000D03*
X155575000Y-104902000D03*
X161036000Y-86360000D03*
X162306000Y-80645000D03*
X157734000Y-109855000D03*
X156591000Y-96266000D03*
X159004000Y-103886000D03*
X156210000Y-87122000D03*
X156591000Y-97028000D03*
X157353000Y-95504000D03*
X163195000Y-99187000D03*
X165354000Y-109093000D03*
X164973000Y-78613000D03*
X164084000Y-86360000D03*
X156464000Y-78359000D03*
X163957000Y-99187000D03*
X164719000Y-96901000D03*
X156591000Y-98552000D03*
X162560000Y-86360000D03*
X156591000Y-97790000D03*
X165735000Y-79375000D03*
X163068000Y-81407000D03*
X157353000Y-98552000D03*
X152908000Y-87122000D03*
X156337000Y-104140000D03*
X154813000Y-103378000D03*
X164846000Y-86360000D03*
X161798000Y-87122000D03*
X154813000Y-92456000D03*
X155575000Y-93980000D03*
X159004000Y-103124000D03*
X157861000Y-87122000D03*
X153289000Y-104140000D03*
X156464000Y-80645000D03*
X158750000Y-86360000D03*
X164084000Y-87122000D03*
X165354000Y-109855000D03*
X162433000Y-99187000D03*
X163957000Y-96139000D03*
X153289000Y-104902000D03*
X154559000Y-87122000D03*
X159766000Y-103886000D03*
X155575000Y-93218000D03*
X155575000Y-104140000D03*
X163957000Y-98425000D03*
X152527000Y-104902000D03*
X157734000Y-107569000D03*
X163195000Y-98425000D03*
X161798000Y-86360000D03*
X162433000Y-96901000D03*
X154051000Y-93218000D03*
X155575000Y-105664000D03*
X152527000Y-104140000D03*
X164719000Y-98425000D03*
X163068000Y-80645000D03*
X165354000Y-108331000D03*
X157353000Y-94742000D03*
X158750000Y-87122000D03*
X163322000Y-86360000D03*
X154051000Y-92456000D03*
X166370000Y-86360000D03*
X162433000Y-98425000D03*
X167005000Y-96139000D03*
X161036000Y-87122000D03*
X163195000Y-97663000D03*
X154051000Y-94742000D03*
X156591000Y-95504000D03*
X157353000Y-96266000D03*
X165735000Y-78613000D03*
X155702000Y-79121000D03*
X155575000Y-92456000D03*
X165608000Y-86360000D03*
X154813000Y-105664000D03*
X157353000Y-97028000D03*
X154051000Y-104902000D03*
X155575000Y-94742000D03*
X165608000Y-87122000D03*
X166370000Y-87122000D03*
X156337000Y-103378000D03*
X157353000Y-97790000D03*
X163195000Y-96901000D03*
X160274000Y-87122000D03*
X159766000Y-103124000D03*
X161544000Y-80645000D03*
X154813000Y-104902000D03*
X163322000Y-87122000D03*
X162306000Y-81407000D03*
X156464000Y-79883000D03*
X167767000Y-96139000D03*
X152527000Y-93980000D03*
X156337000Y-105664000D03*
X161544000Y-81407000D03*
X164719000Y-99187000D03*
X155575000Y-103378000D03*
X163195000Y-96139000D03*
X157734000Y-108331000D03*
X155702000Y-79883000D03*
X154051000Y-105664000D03*
X158242000Y-103886000D03*
X152527000Y-94742000D03*
X161671000Y-99187000D03*
X153289000Y-92456000D03*
X154813000Y-104140000D03*
X156464000Y-79121000D03*
X155702000Y-78359000D03*
X156337000Y-104902000D03*
X153289000Y-105664000D03*
X152527000Y-103378000D03*
X162433000Y-96139000D03*
X163957000Y-97663000D03*
X163957000Y-96901000D03*
X154813000Y-94742000D03*
X157353000Y-99314000D03*
X159512000Y-86360000D03*
X156591000Y-94742000D03*
X164719000Y-96139000D03*
X164719000Y-97663000D03*
X165735000Y-80137000D03*
X164846000Y-87122000D03*
X154813000Y-93218000D03*
X166243000Y-96139000D03*
X153289000Y-94742000D03*
X154051000Y-93980000D03*
X154051000Y-104140000D03*
X162560000Y-87122000D03*
X153289000Y-93980000D03*
X155702000Y-80645000D03*
X154813000Y-93980000D03*
X156591000Y-99314000D03*
%TO.N,/GPIO15*%
X170434000Y-87249000D03*
%TO.N,/GPIO0*%
X167259000Y-83439000D03*
%TO.N,/TX*%
X160020000Y-99695000D03*
X159082500Y-102296000D03*
%TO.N,+5V*%
X169924299Y-104970176D03*
X163957000Y-106680000D03*
X166876299Y-105732176D03*
X166876299Y-104970176D03*
X169162299Y-103446176D03*
X166876299Y-104208176D03*
X169924299Y-103446176D03*
X167638299Y-104970176D03*
X167638299Y-104208176D03*
X166116000Y-105918000D03*
X170686299Y-104208176D03*
X169924299Y-104208176D03*
X163957000Y-105156000D03*
X163957000Y-104394000D03*
X170686299Y-103446176D03*
X170686299Y-104970176D03*
X169162299Y-104208176D03*
X168400299Y-103446176D03*
X163957000Y-105918000D03*
X168400299Y-104208176D03*
X169924299Y-105732176D03*
X169162299Y-105732176D03*
X166876299Y-103446176D03*
X168400299Y-104970176D03*
X168400299Y-105732176D03*
X167638299Y-105732176D03*
X167638299Y-103446176D03*
X170686299Y-105732176D03*
X166116000Y-105156000D03*
X169162299Y-104970176D03*
X166116000Y-104394000D03*
%TO.N,+3.3V*%
X155829000Y-88900000D03*
X158115000Y-90424000D03*
X156591000Y-88138000D03*
X158115000Y-89662000D03*
X156591000Y-90424000D03*
X157353000Y-91186000D03*
X158115000Y-88900000D03*
X156591000Y-88900000D03*
X155829000Y-89662000D03*
X158877000Y-98425000D03*
X155829000Y-90424000D03*
X153543000Y-88900000D03*
X152781000Y-88900000D03*
X155067000Y-88138000D03*
X154305000Y-88900000D03*
X153543000Y-88138000D03*
X157353000Y-89662000D03*
X157353000Y-90424000D03*
X155829000Y-91186000D03*
X157353000Y-88900000D03*
X156591000Y-89662000D03*
X158115000Y-88138000D03*
X158115000Y-91186000D03*
X154305000Y-88138000D03*
X152781000Y-88138000D03*
X157353000Y-88138000D03*
X155829000Y-88138000D03*
X156591000Y-91186000D03*
X155067000Y-88900000D03*
%TD*%
%TO.N,/RESET*%
D21*
X152527000Y-84201000D02*
X156147000Y-84201000D01*
X156147000Y-84201000D02*
X156972000Y-83376000D01*
X156972000Y-82664000D02*
X158864000Y-80772000D01*
X156972000Y-83376000D02*
X156972000Y-82664000D01*
%TO.N,/EN*%
X153797000Y-82042000D02*
X153797000Y-83249000D01*
X153797000Y-83249000D02*
X153670000Y-83376000D01*
%TO.N,/GPIO15*%
X170434000Y-87249000D02*
X169989000Y-87249000D01*
X169989000Y-87249000D02*
X169354000Y-86614000D01*
%TO.N,/GPIO0*%
X155321000Y-83376000D02*
X155321000Y-82976000D01*
X155321000Y-82976000D02*
X158275000Y-80022000D01*
X168915000Y-82410000D02*
X167886000Y-83439000D01*
X163842000Y-80022000D02*
X167259000Y-83439000D01*
X167886000Y-83439000D02*
X167259000Y-83439000D01*
X158275000Y-80022000D02*
X163842000Y-80022000D01*
%TO.N,/TX*%
X160020000Y-99695000D02*
X160020000Y-101358500D01*
X160020000Y-101358500D02*
X159082500Y-102296000D01*
%TO.N,+3.3V*%
X153670000Y-88011000D02*
X153670000Y-85026000D01*
X153543000Y-88138000D02*
X153670000Y-88011000D01*
X156972000Y-87757000D02*
X156972000Y-85026000D01*
X156591000Y-88138000D02*
X156972000Y-87757000D01*
X155321000Y-87884000D02*
X155321000Y-85026000D01*
X155067000Y-88138000D02*
X155321000Y-87884000D01*
%TD*%
%TA.AperFunction,Conductor*%
%TO.N,GND*%
G36*
X152173681Y-91899499D02*
G01*
X152173684Y-91899500D01*
X156453692Y-91899500D01*
X156521813Y-91919502D01*
X156542787Y-91936405D01*
X157745595Y-93139213D01*
X157779621Y-93201525D01*
X157782500Y-93228308D01*
X157782500Y-98793461D01*
X157783677Y-98815418D01*
X157786554Y-98842183D01*
X157786555Y-98842189D01*
X157790073Y-98863903D01*
X157790075Y-98863912D01*
X157791744Y-98871589D01*
X157791746Y-98871594D01*
X157808777Y-98919879D01*
X157808780Y-98919888D01*
X157836620Y-98975514D01*
X157836666Y-98975605D01*
X157861655Y-99013013D01*
X157861172Y-99013400D01*
X157861180Y-99013410D01*
X157863040Y-99015087D01*
X157865112Y-99018188D01*
X157866317Y-99019579D01*
X157866413Y-99019495D01*
X157867016Y-99020385D01*
X157882268Y-99037992D01*
X157891481Y-99041428D01*
X157900337Y-99048710D01*
X157910544Y-99057911D01*
X157970270Y-99096296D01*
X158023474Y-99120594D01*
X158038713Y-99125069D01*
X158067362Y-99131302D01*
X158102860Y-99136407D01*
X158103189Y-99136393D01*
X158106526Y-99136594D01*
X158108639Y-99136702D01*
X158108638Y-99136721D01*
X158128521Y-99137916D01*
X158132115Y-99138500D01*
X158132118Y-99138500D01*
X159564493Y-99138500D01*
X159632614Y-99158502D01*
X159679107Y-99212158D01*
X159689211Y-99282432D01*
X159659717Y-99347012D01*
X159653588Y-99353595D01*
X159619519Y-99387663D01*
X159619496Y-99387689D01*
X159619495Y-99387690D01*
X159553614Y-99501800D01*
X159553609Y-99501810D01*
X159553607Y-99501816D01*
X159519500Y-99629109D01*
X159519500Y-99760892D01*
X159544466Y-99854070D01*
X159553607Y-99888185D01*
X159553608Y-99888186D01*
X159553610Y-99888190D01*
X159619497Y-100002310D01*
X159619505Y-100002320D01*
X159694785Y-100077600D01*
X159705127Y-100091415D01*
X159716274Y-100106305D01*
X159729086Y-100129767D01*
X159744500Y-100190155D01*
X159744500Y-101174076D01*
X159739395Y-101209577D01*
X159731864Y-101235223D01*
X159700064Y-101288817D01*
X159243103Y-101745777D01*
X159243102Y-101745780D01*
X159214393Y-101767273D01*
X159190932Y-101780085D01*
X159130542Y-101795500D01*
X159016605Y-101795500D01*
X158948393Y-101813776D01*
X158948394Y-101813777D01*
X158889316Y-101829606D01*
X158889315Y-101829607D01*
X158889311Y-101829609D01*
X158775188Y-101895497D01*
X158775163Y-101895519D01*
X158682019Y-101988663D01*
X158681996Y-101988689D01*
X158681995Y-101988690D01*
X158616114Y-102102800D01*
X158616109Y-102102810D01*
X158616107Y-102102816D01*
X158582000Y-102230109D01*
X158582000Y-102361892D01*
X158606966Y-102455070D01*
X158616107Y-102489185D01*
X158616108Y-102489186D01*
X158616110Y-102489190D01*
X158681997Y-102603310D01*
X158682005Y-102603320D01*
X158682011Y-102603326D01*
X158682019Y-102603335D01*
X158775175Y-102696491D01*
X158775179Y-102696494D01*
X158775184Y-102696498D01*
X158775186Y-102696500D01*
X158889314Y-102762392D01*
X159016608Y-102796500D01*
X159016610Y-102796500D01*
X159148390Y-102796500D01*
X159148392Y-102796500D01*
X159275686Y-102762392D01*
X159389814Y-102696500D01*
X159483000Y-102603314D01*
X159548892Y-102489186D01*
X159583000Y-102361892D01*
X159583000Y-102255421D01*
X159588103Y-102219925D01*
X159595635Y-102194274D01*
X159627433Y-102140681D01*
X159872618Y-101895497D01*
X160253557Y-101514559D01*
X160265841Y-101484900D01*
X160295500Y-101413300D01*
X160295500Y-100197620D01*
X160300603Y-100162125D01*
X160303364Y-100152722D01*
X160308133Y-100136477D01*
X160339934Y-100082881D01*
X160420495Y-100002320D01*
X160420497Y-100002316D01*
X160420500Y-100002314D01*
X160486392Y-99888186D01*
X160520500Y-99760892D01*
X160520500Y-99629108D01*
X160486392Y-99501814D01*
X160466815Y-99467906D01*
X160420502Y-99387689D01*
X160420501Y-99387688D01*
X160420500Y-99387686D01*
X160420498Y-99387684D01*
X160420494Y-99387679D01*
X160327320Y-99294505D01*
X160327319Y-99294504D01*
X160325166Y-99292351D01*
X160294984Y-99237076D01*
X160291141Y-99230039D01*
X160296206Y-99159224D01*
X160338753Y-99102388D01*
X160338753Y-99102387D01*
X160338754Y-99102387D01*
X160338755Y-99102386D01*
X160355002Y-99092061D01*
X160383416Y-99076921D01*
X160437072Y-99030428D01*
X160455027Y-99012835D01*
X160499674Y-98933017D01*
X160499674Y-98933016D01*
X160499676Y-98933013D01*
X160517709Y-98871594D01*
X160519676Y-98864896D01*
X160528000Y-98807000D01*
X160528000Y-98933000D01*
X163576000Y-98933000D01*
X163576000Y-95505006D01*
X163580696Y-95548681D01*
X163592082Y-95601023D01*
X163594570Y-95611203D01*
X163637579Y-95691916D01*
X163684072Y-95745572D01*
X163701665Y-95763527D01*
X163701667Y-95763528D01*
X163781486Y-95808176D01*
X163840024Y-95825363D01*
X163849604Y-95828176D01*
X163907500Y-95836500D01*
X168705500Y-95836500D01*
X168773621Y-95856502D01*
X168820114Y-95910158D01*
X168831500Y-95962500D01*
X168831500Y-102792500D01*
X168811498Y-102860621D01*
X168757842Y-102907114D01*
X168705500Y-102918500D01*
X166565637Y-102918500D01*
X166550150Y-102919084D01*
X166547464Y-102919287D01*
X166547476Y-102919458D01*
X166546592Y-102919476D01*
X166546583Y-102919354D01*
X166544351Y-102919523D01*
X166544320Y-102919524D01*
X166518104Y-102921505D01*
X166516152Y-102922058D01*
X166514798Y-102922420D01*
X166514796Y-102922421D01*
X166504895Y-102925073D01*
X166471566Y-102934002D01*
X166471560Y-102934004D01*
X166420420Y-102953892D01*
X166420419Y-102953893D01*
X166380490Y-102974715D01*
X166359843Y-102988553D01*
X166336715Y-103006574D01*
X166310081Y-103030568D01*
X166310066Y-103030582D01*
X166289754Y-103051692D01*
X165803529Y-103635163D01*
X165744553Y-103674690D01*
X165706733Y-103680500D01*
X163715538Y-103680500D01*
X163693583Y-103681677D01*
X163666797Y-103684556D01*
X163666778Y-103684559D01*
X163645113Y-103688068D01*
X163645104Y-103688070D01*
X163637422Y-103689741D01*
X163637421Y-103689741D01*
X163637418Y-103689742D01*
X163589114Y-103706779D01*
X163589112Y-103706779D01*
X163589107Y-103706782D01*
X163533390Y-103734667D01*
X163490858Y-103763072D01*
X163490840Y-103763085D01*
X163489439Y-103764298D01*
X163451075Y-103808560D01*
X163451072Y-103808564D01*
X163412693Y-103868290D01*
X163412691Y-103868293D01*
X163412691Y-103868294D01*
X163388401Y-103921488D01*
X163388394Y-103921506D01*
X163383927Y-103936721D01*
X163377693Y-103965379D01*
X163377693Y-103965382D01*
X163372590Y-104000876D01*
X163370500Y-104030107D01*
X163370500Y-107048461D01*
X163371677Y-107070418D01*
X163374554Y-107097183D01*
X163374555Y-107097189D01*
X163378073Y-107118903D01*
X163378075Y-107118912D01*
X163379744Y-107126589D01*
X163379746Y-107126594D01*
X163396777Y-107174879D01*
X163396780Y-107174888D01*
X163423922Y-107229119D01*
X163424666Y-107230605D01*
X163449655Y-107268013D01*
X163449172Y-107268400D01*
X163449180Y-107268410D01*
X163451040Y-107270087D01*
X163453112Y-107273188D01*
X163454317Y-107274579D01*
X163454413Y-107274495D01*
X163455016Y-107275385D01*
X163470268Y-107292992D01*
X163479481Y-107296428D01*
X163488337Y-107303710D01*
X163498544Y-107312911D01*
X163558270Y-107351296D01*
X163611474Y-107375594D01*
X163626713Y-107380069D01*
X163655364Y-107386303D01*
X163682781Y-107390245D01*
X163747358Y-107419737D01*
X163785742Y-107479464D01*
X163785742Y-107550460D01*
X163747359Y-107610186D01*
X163689429Y-107638540D01*
X163628071Y-107650746D01*
X163628069Y-107650746D01*
X163628067Y-107650747D01*
X163482389Y-107711089D01*
X163351276Y-107798696D01*
X163351271Y-107798700D01*
X163239786Y-107910185D01*
X163239782Y-107910190D01*
X163152175Y-108041303D01*
X163091833Y-108186981D01*
X163091832Y-108186983D01*
X163091832Y-108186985D01*
X163061069Y-108341638D01*
X163061069Y-108341641D01*
X163061069Y-108499325D01*
X163091832Y-108653980D01*
X163152175Y-108799662D01*
X163239780Y-108930772D01*
X163351280Y-109042272D01*
X163482390Y-109129877D01*
X163628072Y-109190220D01*
X163782727Y-109220983D01*
X163782728Y-109220983D01*
X163940410Y-109220983D01*
X163940411Y-109220983D01*
X164095066Y-109190220D01*
X164240748Y-109129877D01*
X164371858Y-109042272D01*
X164483358Y-108930772D01*
X164570963Y-108799662D01*
X164631306Y-108653980D01*
X164662069Y-108499325D01*
X164662069Y-108341641D01*
X164631306Y-108186986D01*
X164570963Y-108041304D01*
X164483358Y-107910194D01*
X164371858Y-107798694D01*
X164240748Y-107711089D01*
X164095071Y-107650748D01*
X164095069Y-107650747D01*
X164095066Y-107650746D01*
X164056520Y-107643078D01*
X163993611Y-107610171D01*
X163958480Y-107548476D01*
X163962280Y-107477581D01*
X164003806Y-107419995D01*
X164069873Y-107394001D01*
X164081103Y-107393500D01*
X164962561Y-107393500D01*
X164967923Y-107393148D01*
X164989383Y-107391742D01*
X165021998Y-107387448D01*
X165048368Y-107382202D01*
X165079325Y-107373906D01*
X165104778Y-107365265D01*
X165135163Y-107352678D01*
X165159267Y-107340791D01*
X165225767Y-107302395D01*
X165256146Y-107289812D01*
X165273078Y-107285276D01*
X165273083Y-107285272D01*
X165280928Y-107283171D01*
X165280930Y-107283171D01*
X165280936Y-107283169D01*
X165299141Y-107278292D01*
X165331746Y-107274000D01*
X165376253Y-107274000D01*
X165408856Y-107278291D01*
X165451839Y-107289807D01*
X165482222Y-107302392D01*
X165516707Y-107322302D01*
X165517074Y-107322513D01*
X165517191Y-107322580D01*
X165517190Y-107322580D01*
X165517648Y-107322843D01*
X165517657Y-107322848D01*
X165572661Y-107344632D01*
X165599832Y-107351070D01*
X165641736Y-107360999D01*
X165641738Y-107360999D01*
X165641745Y-107361001D01*
X165695466Y-107365841D01*
X165695466Y-107366202D01*
X165695473Y-107366202D01*
X165696851Y-107365966D01*
X165699999Y-107366250D01*
X165701378Y-107366176D01*
X165701379Y-107366177D01*
X165730582Y-107364629D01*
X165739133Y-107359353D01*
X165751192Y-107356678D01*
X165763731Y-107354535D01*
X165830697Y-107330953D01*
X165882542Y-107303870D01*
X165882543Y-107303869D01*
X165882544Y-107303869D01*
X165892874Y-107296428D01*
X165895429Y-107294588D01*
X165917935Y-107275800D01*
X165922659Y-107271245D01*
X165985585Y-107238372D01*
X166056296Y-107244737D01*
X166112340Y-107288321D01*
X166135925Y-107355285D01*
X166134551Y-107381674D01*
X166132678Y-107393500D01*
X166111069Y-107529937D01*
X166111069Y-109311029D01*
X166139398Y-109489892D01*
X166195358Y-109662122D01*
X166195359Y-109662123D01*
X166277575Y-109823480D01*
X166382533Y-109967943D01*
X166382534Y-109967944D01*
X166384021Y-109969991D01*
X166512059Y-110098029D01*
X166512559Y-110098439D01*
X166514086Y-110099502D01*
X166658575Y-110204479D01*
X166819930Y-110286694D01*
X166992160Y-110342654D01*
X167171023Y-110370983D01*
X167171026Y-110370983D01*
X167352112Y-110370983D01*
X167352115Y-110370983D01*
X167530978Y-110342654D01*
X167703208Y-110286694D01*
X167829228Y-110222482D01*
X167863164Y-110210916D01*
X167877031Y-110208312D01*
X167947671Y-110215396D01*
X168003260Y-110259535D01*
X168003267Y-110259546D01*
X168003269Y-110259547D01*
X168003269Y-110259548D01*
X168005214Y-110262306D01*
X168026542Y-110314295D01*
X168026870Y-110316272D01*
X168028569Y-110336895D01*
X168028569Y-110933367D01*
X168028568Y-110933369D01*
X168028569Y-110933370D01*
X168023464Y-110968868D01*
X168018989Y-110984107D01*
X167980604Y-111043833D01*
X167980594Y-111043841D01*
X167979203Y-111045046D01*
X167923500Y-111072929D01*
X167915818Y-111074601D01*
X167889021Y-111077483D01*
X155173684Y-111077483D01*
X155173681Y-111077482D01*
X155173681Y-111077483D01*
X155138183Y-111072378D01*
X155122944Y-111067903D01*
X155063218Y-111029518D01*
X155063210Y-111029508D01*
X155062005Y-111028117D01*
X155034118Y-110972395D01*
X155032447Y-110964712D01*
X155029569Y-110937934D01*
X155029569Y-110303500D01*
X155034671Y-110268008D01*
X155038378Y-110255381D01*
X155076757Y-110195656D01*
X155141337Y-110166159D01*
X155206658Y-110174125D01*
X155215383Y-110177666D01*
X155242061Y-110192481D01*
X155258575Y-110204479D01*
X155419930Y-110286694D01*
X155592160Y-110342654D01*
X155771023Y-110370983D01*
X155771026Y-110370983D01*
X155952112Y-110370983D01*
X155952115Y-110370983D01*
X156130978Y-110342654D01*
X156303208Y-110286694D01*
X156464563Y-110204479D01*
X156611070Y-110098036D01*
X156739122Y-109969984D01*
X156845565Y-109823477D01*
X156927780Y-109662122D01*
X156983740Y-109489892D01*
X157012069Y-109311029D01*
X157012069Y-108341638D01*
X158461069Y-108341638D01*
X158461069Y-108341641D01*
X158461069Y-108499325D01*
X158491832Y-108653980D01*
X158552175Y-108799662D01*
X158639780Y-108930772D01*
X158751280Y-109042272D01*
X158882390Y-109129877D01*
X159028072Y-109190220D01*
X159182727Y-109220983D01*
X159182728Y-109220983D01*
X159340410Y-109220983D01*
X159340411Y-109220983D01*
X159495066Y-109190220D01*
X159640748Y-109129877D01*
X159771858Y-109042272D01*
X159883358Y-108930772D01*
X159970963Y-108799662D01*
X160031306Y-108653980D01*
X160062069Y-108499325D01*
X160062069Y-108341641D01*
X160031306Y-108186986D01*
X159970963Y-108041304D01*
X159883358Y-107910194D01*
X159771858Y-107798694D01*
X159640748Y-107711089D01*
X159495071Y-107650748D01*
X159495069Y-107650747D01*
X159495066Y-107650746D01*
X159340416Y-107619983D01*
X159340413Y-107619983D01*
X159340411Y-107619983D01*
X159182727Y-107619983D01*
X159182724Y-107619983D01*
X159182722Y-107619983D01*
X159089428Y-107638541D01*
X159028071Y-107650746D01*
X159028069Y-107650746D01*
X159028067Y-107650747D01*
X158882389Y-107711089D01*
X158751276Y-107798696D01*
X158751271Y-107798700D01*
X158639786Y-107910185D01*
X158639782Y-107910190D01*
X158552175Y-108041303D01*
X158491833Y-108186981D01*
X158491832Y-108186983D01*
X158491832Y-108186985D01*
X158461069Y-108341638D01*
X157012069Y-108341638D01*
X157012069Y-107529937D01*
X156983740Y-107351074D01*
X156927780Y-107178844D01*
X156845565Y-107017489D01*
X156739122Y-106870982D01*
X156739119Y-106870979D01*
X156739117Y-106870976D01*
X156739116Y-106870975D01*
X156739114Y-106870972D01*
X156611081Y-106742939D01*
X156610568Y-106742518D01*
X156609029Y-106741447D01*
X156464566Y-106636489D01*
X156464565Y-106636488D01*
X156464563Y-106636487D01*
X156303208Y-106554272D01*
X156303207Y-106554271D01*
X156303206Y-106554271D01*
X156303194Y-106554267D01*
X156131299Y-106498416D01*
X156130998Y-106498317D01*
X156130981Y-106498313D01*
X156130978Y-106498312D01*
X156123723Y-106497163D01*
X156106716Y-106494469D01*
X155952115Y-106469983D01*
X155952113Y-106469983D01*
X155771025Y-106469983D01*
X155771023Y-106469983D01*
X155688931Y-106482984D01*
X155606143Y-106496097D01*
X155606138Y-106496098D01*
X155592160Y-106498312D01*
X155592157Y-106498312D01*
X155592156Y-106498313D01*
X155582057Y-106501594D01*
X155582045Y-106501597D01*
X155419939Y-106554267D01*
X155419934Y-106554269D01*
X155258567Y-106636491D01*
X155122132Y-106735616D01*
X155122125Y-106735622D01*
X155112065Y-106742932D01*
X155112062Y-106742934D01*
X154984020Y-106870976D01*
X154984018Y-106870979D01*
X154976708Y-106881039D01*
X154976702Y-106881046D01*
X154877577Y-107017481D01*
X154795356Y-107178847D01*
X154748656Y-107322580D01*
X154739399Y-107351070D01*
X154711070Y-107529938D01*
X154711069Y-107529943D01*
X154711069Y-107729863D01*
X154711068Y-107729866D01*
X154711069Y-107729868D01*
X154708004Y-107751182D01*
X154705964Y-107765366D01*
X154702726Y-107776392D01*
X154664340Y-107836117D01*
X154599758Y-107865607D01*
X154529487Y-107855502D01*
X154529485Y-107855501D01*
X154529483Y-107855500D01*
X154522397Y-107852264D01*
X154485646Y-107826746D01*
X152079285Y-105420385D01*
X152057792Y-105391675D01*
X152044981Y-105368213D01*
X152029569Y-105307828D01*
X152029569Y-92024208D01*
X152049571Y-91956087D01*
X152103227Y-91909594D01*
X152168536Y-91900203D01*
X152168626Y-91899092D01*
X152173681Y-91899499D01*
G37*
%TD.AperFunction*%
%TA.AperFunction,Conductor*%
G36*
X163823878Y-93739384D02*
G01*
X163811482Y-93742080D01*
X163801297Y-93744570D01*
X163720584Y-93787579D01*
X163720581Y-93787581D01*
X163720580Y-93787582D01*
X163666933Y-93834067D01*
X163648971Y-93851667D01*
X163604323Y-93931486D01*
X163584327Y-93999591D01*
X163584324Y-93999604D01*
X163576000Y-94057502D01*
X163576000Y-93726000D01*
X163853184Y-93726000D01*
X163823878Y-93739384D01*
G37*
%TD.AperFunction*%
%TA.AperFunction,Conductor*%
G36*
X162054629Y-92038176D02*
G01*
X162055979Y-92037883D01*
X162056695Y-92041177D01*
X162056696Y-92041181D01*
X162068082Y-92093523D01*
X162070570Y-92103703D01*
X162113579Y-92184416D01*
X162160072Y-92238072D01*
X162177665Y-92256027D01*
X162177666Y-92256028D01*
X162210637Y-92274470D01*
X162245750Y-92294111D01*
X162279934Y-92329000D01*
X162052000Y-92329000D01*
X162052000Y-92031991D01*
X162054629Y-92038176D01*
G37*
%TD.AperFunction*%
%TA.AperFunction,Conductor*%
G36*
X162193036Y-90701932D02*
G01*
X162172782Y-90754451D01*
X162163447Y-90768291D01*
X162142928Y-90786072D01*
X162124973Y-90803665D01*
X162080326Y-90883483D01*
X162076134Y-90897757D01*
X162065207Y-90913961D01*
X162052305Y-90924649D01*
X162052000Y-90925123D01*
X162052000Y-90678000D01*
X162189595Y-90678000D01*
X162193036Y-90701932D01*
G37*
%TD.AperFunction*%
%TA.AperFunction,Conductor*%
G36*
X170885321Y-78043356D02*
G01*
X170920775Y-78048701D01*
X170935986Y-78053280D01*
X170995431Y-78092052D01*
X170995446Y-78092069D01*
X170995448Y-78092071D01*
X170995448Y-78092072D01*
X170996775Y-78093624D01*
X171024217Y-78149137D01*
X171025780Y-78156441D01*
X171028569Y-78182807D01*
X171028569Y-86813448D01*
X171028568Y-86813451D01*
X171028569Y-86813453D01*
X171024311Y-86843062D01*
X171023464Y-86848951D01*
X171020226Y-86859977D01*
X170981840Y-86919702D01*
X170917258Y-86949192D01*
X170846987Y-86939087D01*
X170846985Y-86939086D01*
X170846983Y-86939085D01*
X170839897Y-86935849D01*
X170803148Y-86910333D01*
X170741320Y-86848505D01*
X170741310Y-86848497D01*
X170741309Y-86848496D01*
X170741308Y-86848495D01*
X170632694Y-86785787D01*
X170632694Y-86785788D01*
X170632692Y-86785787D01*
X170627190Y-86782610D01*
X170627095Y-86782555D01*
X170625346Y-86782114D01*
X170607075Y-86777219D01*
X170593070Y-86773466D01*
X170593070Y-86773465D01*
X170499892Y-86748500D01*
X170368108Y-86748500D01*
X170368105Y-86748500D01*
X170299893Y-86766776D01*
X170299894Y-86766777D01*
X170240818Y-86782606D01*
X170240812Y-86782608D01*
X170240802Y-86782613D01*
X170159189Y-86829733D01*
X170125894Y-86843062D01*
X170112188Y-86846387D01*
X170041272Y-86843009D01*
X169983449Y-86801838D01*
X169982428Y-86800540D01*
X169957738Y-86746480D01*
X169956775Y-86741482D01*
X169954499Y-86717643D01*
X169954499Y-86307484D01*
X169943491Y-86237977D01*
X169939646Y-86213697D01*
X169939646Y-86213696D01*
X169910848Y-86157177D01*
X169882050Y-86100657D01*
X169882049Y-86100656D01*
X169882048Y-86100654D01*
X169792343Y-86010949D01*
X169716502Y-85972307D01*
X169679304Y-85953354D01*
X169679303Y-85953353D01*
X169679302Y-85953353D01*
X169615225Y-85943204D01*
X169585519Y-85938500D01*
X169585517Y-85938500D01*
X169122485Y-85938500D01*
X169122483Y-85938500D01*
X169099924Y-85942072D01*
X169028697Y-85953352D01*
X168915655Y-86010949D01*
X168825949Y-86100655D01*
X168768354Y-86213694D01*
X168768354Y-86213695D01*
X168768329Y-86213853D01*
X168753500Y-86307481D01*
X168753500Y-86307484D01*
X168753500Y-86920516D01*
X168755928Y-86935849D01*
X168768352Y-87014301D01*
X168825949Y-87127343D01*
X168915654Y-87217048D01*
X168915656Y-87217049D01*
X168915657Y-87217050D01*
X168954294Y-87236735D01*
X168954298Y-87236739D01*
X168954299Y-87236738D01*
X169028696Y-87274646D01*
X169122481Y-87289500D01*
X169569576Y-87289499D01*
X169605069Y-87294601D01*
X169630721Y-87302133D01*
X169684317Y-87333934D01*
X169686788Y-87336405D01*
X169688268Y-87339116D01*
X169690445Y-87340515D01*
X169697664Y-87356323D01*
X169720814Y-87398717D01*
X169715749Y-87469532D01*
X169673202Y-87526368D01*
X169606682Y-87551179D01*
X169597693Y-87551500D01*
X163145493Y-87551500D01*
X163101818Y-87556196D01*
X163090340Y-87558693D01*
X163049477Y-87567582D01*
X163049465Y-87567584D01*
X163049460Y-87567586D01*
X163039297Y-87570070D01*
X162958584Y-87613079D01*
X162958581Y-87613081D01*
X162958580Y-87613082D01*
X162904933Y-87659567D01*
X162886971Y-87677167D01*
X162842323Y-87756986D01*
X162822327Y-87825091D01*
X162822324Y-87825104D01*
X162814000Y-87883002D01*
X162814000Y-87757000D01*
X160528000Y-87757000D01*
X160528000Y-87883002D01*
X160527999Y-87882993D01*
X160523304Y-87839319D01*
X160511918Y-87786977D01*
X160509430Y-87776797D01*
X160466421Y-87696084D01*
X160419928Y-87642428D01*
X160402335Y-87624473D01*
X160402332Y-87624471D01*
X160322513Y-87579823D01*
X160254408Y-87559827D01*
X160254399Y-87559825D01*
X160254396Y-87559824D01*
X160196500Y-87551500D01*
X160196497Y-87551500D01*
X157373500Y-87551500D01*
X157305379Y-87531498D01*
X157258886Y-87477842D01*
X157247500Y-87425500D01*
X157247500Y-86920479D01*
X167104001Y-86920479D01*
X167118834Y-87014146D01*
X167176360Y-87127046D01*
X167176361Y-87127048D01*
X167265951Y-87216638D01*
X167265953Y-87216639D01*
X167284149Y-87225910D01*
X167284151Y-87225912D01*
X167378850Y-87274164D01*
X167378852Y-87274165D01*
X167400560Y-87277602D01*
X167472513Y-87288998D01*
X167472525Y-87288999D01*
X167904000Y-87288999D01*
X167935478Y-87288999D01*
X167935479Y-87288999D01*
X168029146Y-87274165D01*
X168142046Y-87216639D01*
X168142048Y-87216638D01*
X168231638Y-87127048D01*
X168231639Y-87127046D01*
X168289086Y-87014302D01*
X168289165Y-87014147D01*
X168294110Y-86982924D01*
X168304000Y-86920480D01*
X168304000Y-86814000D01*
X167904000Y-86814000D01*
X167904000Y-87288999D01*
X167472525Y-87288999D01*
X167504000Y-87288998D01*
X167504000Y-86814000D01*
X167104001Y-86814000D01*
X167104001Y-86920479D01*
X157247500Y-86920479D01*
X157247500Y-86307519D01*
X167104000Y-86307519D01*
X167104000Y-86414000D01*
X167504000Y-86414000D01*
X167904000Y-86414000D01*
X168303999Y-86414000D01*
X168303999Y-86307520D01*
X168289165Y-86213853D01*
X168289164Y-86213850D01*
X168240912Y-86119151D01*
X168240910Y-86119149D01*
X168231639Y-86100953D01*
X168231638Y-86100951D01*
X168142048Y-86011361D01*
X168142046Y-86011360D01*
X168029146Y-85953834D01*
X168029145Y-85953833D01*
X168029144Y-85953833D01*
X167965146Y-85943698D01*
X167935480Y-85939000D01*
X167935478Y-85939000D01*
X167904000Y-85939000D01*
X167904000Y-86414000D01*
X167504000Y-86414000D01*
X167504000Y-85938999D01*
X167503999Y-85938999D01*
X167503999Y-85938998D01*
X167472521Y-85938999D01*
X167378854Y-85953833D01*
X167284148Y-86002088D01*
X167284145Y-86002090D01*
X167265953Y-86011360D01*
X167265951Y-86011361D01*
X167176361Y-86100951D01*
X167176360Y-86100953D01*
X167167090Y-86119145D01*
X167167088Y-86119148D01*
X167118833Y-86213854D01*
X167115013Y-86237977D01*
X167104000Y-86307519D01*
X157247500Y-86307519D01*
X157247500Y-85757142D01*
X157252603Y-85721648D01*
X157257077Y-85706409D01*
X157295452Y-85646687D01*
X157295451Y-85646687D01*
X157300517Y-85642297D01*
X157363337Y-85613065D01*
X157372304Y-85611646D01*
X157485342Y-85554050D01*
X157575050Y-85464342D01*
X157632646Y-85351304D01*
X157647500Y-85257519D01*
X157647499Y-84794482D01*
X157632646Y-84700696D01*
X157602664Y-84641853D01*
X157575050Y-84587657D01*
X157485342Y-84497949D01*
X157485341Y-84497948D01*
X157409502Y-84459307D01*
X157372304Y-84440354D01*
X157372303Y-84440353D01*
X157372302Y-84440353D01*
X157308225Y-84430204D01*
X157278519Y-84425500D01*
X157278517Y-84425500D01*
X156665479Y-84425500D01*
X156646509Y-84428504D01*
X156628867Y-84426317D01*
X156611957Y-84429177D01*
X156610710Y-84429022D01*
X156599253Y-84427542D01*
X156583746Y-84420725D01*
X156577307Y-84419927D01*
X156566758Y-84415421D01*
X156561130Y-84410782D01*
X156534259Y-84398970D01*
X156519158Y-84376192D01*
X156511970Y-84370268D01*
X156508914Y-84360740D01*
X156495030Y-84339796D01*
X156494697Y-84316402D01*
X156490291Y-84302662D01*
X156494288Y-84287688D01*
X156494020Y-84268811D01*
X156494867Y-84265766D01*
X156504585Y-84249118D01*
X156508604Y-84234068D01*
X156518785Y-84224795D01*
X156527156Y-84210456D01*
X156711403Y-84026209D01*
X156740105Y-84004722D01*
X156763574Y-83991908D01*
X156823953Y-83976499D01*
X157278516Y-83976499D01*
X157278518Y-83976499D01*
X157372304Y-83961646D01*
X157485342Y-83904050D01*
X157575050Y-83814342D01*
X157632646Y-83701304D01*
X157646382Y-83614578D01*
X159571001Y-83614578D01*
X159577407Y-83685101D01*
X159627417Y-83845588D01*
X159627921Y-83847299D01*
X159715917Y-83992862D01*
X159715920Y-83992867D01*
X159715925Y-83992874D01*
X159715929Y-83992879D01*
X159715937Y-83992887D01*
X159715943Y-83992894D01*
X159836104Y-84113055D01*
X159836110Y-84113060D01*
X159836120Y-84113070D01*
X159836125Y-84113074D01*
X159981600Y-84201017D01*
X160143898Y-84251591D01*
X160214427Y-84257999D01*
X161471000Y-84257999D01*
X161871000Y-84257999D01*
X163127570Y-84257999D01*
X163127572Y-84257999D01*
X163198101Y-84251591D01*
X163358607Y-84201574D01*
X163360303Y-84201074D01*
X163360396Y-84201017D01*
X163360398Y-84201017D01*
X163360399Y-84201017D01*
X163505874Y-84113074D01*
X163505879Y-84113070D01*
X163626070Y-83992879D01*
X163626074Y-83992874D01*
X163714017Y-83847399D01*
X163714017Y-83847398D01*
X163714016Y-83847398D01*
X163714042Y-83847357D01*
X163714204Y-83846797D01*
X163764591Y-83685103D01*
X163764591Y-83685099D01*
X163771000Y-83614572D01*
X163771000Y-83258000D01*
X161871000Y-83258000D01*
X161871000Y-84257999D01*
X161471000Y-84257999D01*
X161471000Y-83258000D01*
X159571001Y-83258000D01*
X159571001Y-83614578D01*
X157646382Y-83614578D01*
X157647500Y-83607519D01*
X157647499Y-83144482D01*
X157632646Y-83050696D01*
X157592858Y-82972608D01*
X157575050Y-82937657D01*
X157575048Y-82937655D01*
X157575047Y-82937653D01*
X157485347Y-82847953D01*
X157485344Y-82847951D01*
X157485339Y-82847948D01*
X157452177Y-82831050D01*
X157422875Y-82810395D01*
X157418303Y-82806078D01*
X157412620Y-82800711D01*
X157376827Y-82739400D01*
X157379861Y-82668472D01*
X157382156Y-82661737D01*
X157412323Y-82613290D01*
X157524186Y-82501427D01*
X159571000Y-82501427D01*
X159571000Y-82858000D01*
X161471000Y-82858000D01*
X161871000Y-82858000D01*
X163770999Y-82858000D01*
X163770999Y-82501428D01*
X163764591Y-82430898D01*
X163714580Y-82270409D01*
X163714074Y-82268695D01*
X163693815Y-82235183D01*
X163626074Y-82123125D01*
X163626070Y-82123120D01*
X163626060Y-82123110D01*
X163626055Y-82123104D01*
X163505894Y-82002943D01*
X163505887Y-82002937D01*
X163505879Y-82002929D01*
X163505874Y-82002925D01*
X163505861Y-82002917D01*
X163505855Y-82002913D01*
X163360403Y-81914984D01*
X163360400Y-81914983D01*
X163360399Y-81914982D01*
X163198101Y-81864408D01*
X163198099Y-81864407D01*
X163198097Y-81864407D01*
X163143232Y-81859422D01*
X163127573Y-81858000D01*
X163127571Y-81858000D01*
X161871000Y-81858000D01*
X161871000Y-82858000D01*
X161471000Y-82858000D01*
X161471000Y-81858000D01*
X160214430Y-81858000D01*
X160214428Y-81858000D01*
X160200333Y-81859280D01*
X160143901Y-81864407D01*
X159983411Y-81914417D01*
X159981699Y-81914921D01*
X159836136Y-82002917D01*
X159836126Y-82002923D01*
X159836125Y-82002925D01*
X159836120Y-82002929D01*
X159836117Y-82002932D01*
X159836104Y-82002943D01*
X159715943Y-82123104D01*
X159715932Y-82123117D01*
X159715926Y-82123124D01*
X159715917Y-82123136D01*
X159627921Y-82268699D01*
X159627417Y-82270410D01*
X159577407Y-82430898D01*
X159577039Y-82433313D01*
X159576919Y-82435961D01*
X159576930Y-82436150D01*
X159576905Y-82436430D01*
X159571000Y-82501427D01*
X157524186Y-82501427D01*
X158528406Y-81497207D01*
X158557105Y-81475723D01*
X158580574Y-81462909D01*
X158640953Y-81447500D01*
X159122485Y-81447500D01*
X159122488Y-81447500D01*
X159222126Y-81431719D01*
X159342220Y-81370528D01*
X159437528Y-81275220D01*
X159498719Y-81155126D01*
X159511972Y-81071448D01*
X159517888Y-81058967D01*
X159522567Y-81037185D01*
X159525592Y-81030804D01*
X159537646Y-81017289D01*
X159542382Y-81007300D01*
X159551770Y-81001454D01*
X159572849Y-80977821D01*
X159641250Y-80958798D01*
X159709077Y-80979775D01*
X159735884Y-81011162D01*
X159746586Y-81020074D01*
X159748391Y-81025805D01*
X159754052Y-81032433D01*
X159756552Y-81037906D01*
X159766392Y-81070549D01*
X159779760Y-81154966D01*
X159840881Y-81274924D01*
X159936074Y-81370117D01*
X159936076Y-81370118D01*
X160056029Y-81431236D01*
X160155551Y-81446999D01*
X160614000Y-81446999D01*
X160672446Y-81446999D01*
X160672448Y-81446999D01*
X160771967Y-81431238D01*
X160891923Y-81370118D01*
X160987118Y-81274923D01*
X161048236Y-81154970D01*
X161061728Y-81069789D01*
X161064000Y-81055449D01*
X161064000Y-80972000D01*
X160614000Y-80972000D01*
X160614000Y-81446999D01*
X160155551Y-81446999D01*
X160213999Y-81446998D01*
X160214000Y-81446998D01*
X160214000Y-80916115D01*
X160219103Y-80880621D01*
X160223577Y-80865382D01*
X160233372Y-80850138D01*
X160234002Y-80847994D01*
X160235690Y-80846530D01*
X160261956Y-80805656D01*
X160263365Y-80804436D01*
X160319086Y-80776549D01*
X160326770Y-80774878D01*
X160353548Y-80772000D01*
X160414000Y-80772000D01*
X160414000Y-80716115D01*
X160419103Y-80680621D01*
X160423577Y-80665382D01*
X160461956Y-80605656D01*
X160463365Y-80604436D01*
X160519086Y-80576549D01*
X160526770Y-80574878D01*
X160553548Y-80572000D01*
X161063999Y-80572000D01*
X161063999Y-80488555D01*
X161063999Y-80488551D01*
X161059649Y-80461089D01*
X161059140Y-80425239D01*
X161060948Y-80411253D01*
X161089518Y-80346259D01*
X161148689Y-80307029D01*
X161161328Y-80303121D01*
X161198545Y-80297500D01*
X163657580Y-80297500D01*
X163693078Y-80302604D01*
X163718723Y-80310134D01*
X163772319Y-80341934D01*
X166708784Y-83278400D01*
X166730275Y-83307106D01*
X166743086Y-83330566D01*
X166758500Y-83390955D01*
X166758500Y-83504890D01*
X166758499Y-83504890D01*
X166782660Y-83595058D01*
X166792606Y-83632179D01*
X166792608Y-83632187D01*
X166849029Y-83729911D01*
X166858497Y-83746310D01*
X166858505Y-83746320D01*
X166858511Y-83746326D01*
X166858519Y-83746335D01*
X166947029Y-83834845D01*
X166947032Y-83834847D01*
X166951679Y-83839494D01*
X166951684Y-83839498D01*
X166951686Y-83839500D01*
X166951687Y-83839501D01*
X166951689Y-83839502D01*
X167020916Y-83879470D01*
X167065814Y-83905392D01*
X167193108Y-83939500D01*
X167193110Y-83939500D01*
X167324890Y-83939500D01*
X167324892Y-83939500D01*
X167452186Y-83905392D01*
X167566314Y-83839500D01*
X167605314Y-83800500D01*
X167641609Y-83764204D01*
X167670305Y-83742725D01*
X167693772Y-83729910D01*
X167754155Y-83714500D01*
X167940800Y-83714500D01*
X168042058Y-83672557D01*
X168119557Y-83595058D01*
X168119556Y-83595058D01*
X168179084Y-83535530D01*
X168549409Y-83165206D01*
X168578111Y-83143722D01*
X168601573Y-83130910D01*
X168661955Y-83115500D01*
X169665002Y-83115500D01*
X169687864Y-83112924D01*
X169710728Y-83110348D01*
X169793127Y-83070666D01*
X169850149Y-82999163D01*
X169870500Y-82910000D01*
X169870500Y-81760000D01*
X169870500Y-81759996D01*
X169870500Y-81755042D01*
X169868087Y-81746875D01*
X169865844Y-81734675D01*
X169859141Y-81698206D01*
X169858496Y-81691133D01*
X169857824Y-81688362D01*
X169857065Y-81686917D01*
X169857065Y-81686915D01*
X169857059Y-81686907D01*
X169854231Y-81681522D01*
X169850152Y-81676546D01*
X169849883Y-81676142D01*
X169806334Y-81610819D01*
X169806333Y-81610818D01*
X169806332Y-81610817D01*
X169806329Y-81610815D01*
X169769458Y-81589014D01*
X169769458Y-81589013D01*
X169769455Y-81589013D01*
X169769453Y-81589012D01*
X169727610Y-81564270D01*
X169727608Y-81564269D01*
X169727606Y-81564268D01*
X169727605Y-81564268D01*
X169653498Y-81557940D01*
X169636486Y-81556488D01*
X169636484Y-81556488D01*
X169636480Y-81556489D01*
X169551013Y-81589011D01*
X169551011Y-81589011D01*
X169551011Y-81589012D01*
X169551009Y-81589013D01*
X169551008Y-81589014D01*
X169550994Y-81589022D01*
X168999966Y-81956374D01*
X168999965Y-81956376D01*
X168999961Y-81956378D01*
X168967599Y-81971819D01*
X168952434Y-81976551D01*
X168881452Y-81977744D01*
X168868008Y-81974041D01*
X168831575Y-81957403D01*
X168278991Y-81589014D01*
X168210728Y-81559652D01*
X168119272Y-81559652D01*
X168077119Y-81579951D01*
X168077116Y-81579953D01*
X168036874Y-81599333D01*
X168036873Y-81599333D01*
X168036873Y-81599334D01*
X168001603Y-81643559D01*
X168001599Y-81643564D01*
X167984258Y-81665310D01*
X167980310Y-81669726D01*
X167977652Y-81676142D01*
X167976691Y-81684679D01*
X167959500Y-81759999D01*
X167959500Y-82875312D01*
X167958930Y-82887278D01*
X167954332Y-82935474D01*
X167952519Y-82940002D01*
X167953005Y-82945287D01*
X167951994Y-82951048D01*
X167928691Y-83004869D01*
X167928598Y-83004993D01*
X167916894Y-83018488D01*
X167833503Y-83101880D01*
X167804795Y-83123370D01*
X167790854Y-83130983D01*
X167721482Y-83146075D01*
X167721458Y-83146073D01*
X167720740Y-83146022D01*
X167719597Y-83145940D01*
X167660519Y-83126266D01*
X167653905Y-83122016D01*
X167632928Y-83105113D01*
X167566320Y-83038505D01*
X167566310Y-83038497D01*
X167566309Y-83038496D01*
X167566308Y-83038495D01*
X167457694Y-82975787D01*
X167457694Y-82975788D01*
X167452190Y-82972610D01*
X167452188Y-82972609D01*
X167452094Y-82972555D01*
X167450347Y-82972115D01*
X167389188Y-82955728D01*
X167389187Y-82955727D01*
X167324892Y-82938500D01*
X167218421Y-82938500D01*
X167218418Y-82938499D01*
X167218418Y-82938500D01*
X167182920Y-82933395D01*
X167157274Y-82925864D01*
X167103680Y-82894064D01*
X163998065Y-79788449D01*
X163998061Y-79788446D01*
X163998054Y-79788440D01*
X163896800Y-79746500D01*
X158329800Y-79746500D01*
X158220200Y-79746500D01*
X158220198Y-79746500D01*
X158118947Y-79788439D01*
X158118944Y-79788440D01*
X158118937Y-79788446D01*
X158118933Y-79788449D01*
X155181605Y-82725777D01*
X155181604Y-82725780D01*
X155152895Y-82747273D01*
X155129434Y-82760085D01*
X155069044Y-82775500D01*
X155014484Y-82775500D01*
X155001312Y-82777586D01*
X154920698Y-82790352D01*
X154807655Y-82847949D01*
X154717949Y-82937655D01*
X154660379Y-83050646D01*
X154660354Y-83050696D01*
X154647527Y-83131686D01*
X154647526Y-83131685D01*
X154645632Y-83143650D01*
X154645500Y-83144484D01*
X154645500Y-83607516D01*
X154648598Y-83627076D01*
X154660352Y-83701299D01*
X154660354Y-83701306D01*
X154673016Y-83726155D01*
X154679210Y-83740424D01*
X154680446Y-83743834D01*
X154680796Y-83749476D01*
X154684066Y-83760189D01*
X154684584Y-83760092D01*
X154684845Y-83761481D01*
X154684481Y-83761549D01*
X154686703Y-83768831D01*
X154688193Y-83779189D01*
X154684321Y-83806130D01*
X154684854Y-83814694D01*
X154682479Y-83818949D01*
X154678094Y-83849463D01*
X154636070Y-83900116D01*
X154632746Y-83902459D01*
X154578714Y-83924097D01*
X154578526Y-83924125D01*
X154559965Y-83925500D01*
X154440141Y-83925500D01*
X154440135Y-83925499D01*
X154440133Y-83925500D01*
X154404637Y-83920394D01*
X154398679Y-83918644D01*
X154391104Y-83916420D01*
X154331380Y-83878032D01*
X154301896Y-83813480D01*
X154301413Y-83810120D01*
X154306021Y-83754084D01*
X154306632Y-83752159D01*
X154314463Y-83733063D01*
X154330646Y-83701304D01*
X154345500Y-83607519D01*
X154345499Y-83144482D01*
X154330646Y-83050696D01*
X154290858Y-82972608D01*
X154273050Y-82937657D01*
X154273048Y-82937655D01*
X154273047Y-82937653D01*
X154183346Y-82847952D01*
X154157438Y-82834751D01*
X154135648Y-82820648D01*
X154131759Y-82817518D01*
X154130053Y-82815907D01*
X154129367Y-82815594D01*
X154124064Y-82811326D01*
X154121352Y-82807426D01*
X154106083Y-82793611D01*
X154102987Y-82789879D01*
X154084799Y-82760552D01*
X154083525Y-82757682D01*
X154073967Y-82724464D01*
X154073777Y-82723146D01*
X154072500Y-82705251D01*
X154072500Y-82544620D01*
X154077603Y-82509125D01*
X154085133Y-82483477D01*
X154116934Y-82429881D01*
X154197495Y-82349320D01*
X154197497Y-82349316D01*
X154197500Y-82349314D01*
X154263392Y-82235186D01*
X154297500Y-82107892D01*
X154297500Y-81976108D01*
X154263392Y-81848814D01*
X154209253Y-81755042D01*
X154197502Y-81734689D01*
X154197491Y-81734675D01*
X154104335Y-81641519D01*
X154104326Y-81641511D01*
X154104320Y-81641505D01*
X154104310Y-81641497D01*
X154104309Y-81641496D01*
X154104308Y-81641495D01*
X153995694Y-81578787D01*
X153995694Y-81578788D01*
X153995692Y-81578787D01*
X153990190Y-81575610D01*
X153990095Y-81575555D01*
X153988346Y-81575114D01*
X153970075Y-81570219D01*
X153956070Y-81566466D01*
X153956070Y-81566465D01*
X153862892Y-81541500D01*
X153731108Y-81541500D01*
X153731107Y-81541500D01*
X153663362Y-81559652D01*
X153603815Y-81575606D01*
X153603811Y-81575609D01*
X153489688Y-81641497D01*
X153489663Y-81641519D01*
X153396519Y-81734663D01*
X153396497Y-81734688D01*
X153330609Y-81848811D01*
X153330606Y-81848817D01*
X153308983Y-81929514D01*
X153308983Y-81929517D01*
X153296500Y-81976108D01*
X153296500Y-81976109D01*
X153296500Y-81976110D01*
X153296500Y-82107892D01*
X153300582Y-82123125D01*
X153300583Y-82123129D01*
X153330606Y-82235183D01*
X153330608Y-82235186D01*
X153330610Y-82235190D01*
X153396497Y-82349310D01*
X153396505Y-82349320D01*
X153471786Y-82424601D01*
X153491883Y-82450825D01*
X153492602Y-82452074D01*
X153499539Y-82464778D01*
X153503161Y-82470414D01*
X153504695Y-82473078D01*
X153512327Y-82504707D01*
X153521500Y-82535936D01*
X153521500Y-82631384D01*
X153516395Y-82666885D01*
X153511920Y-82682124D01*
X153473570Y-82741820D01*
X153472178Y-82743027D01*
X153416422Y-82770949D01*
X153411855Y-82771942D01*
X153408745Y-82772619D01*
X153381958Y-82775500D01*
X153363484Y-82775500D01*
X153350312Y-82777586D01*
X153269698Y-82790352D01*
X153156655Y-82847949D01*
X153066949Y-82937655D01*
X153009379Y-83050646D01*
X153009354Y-83050696D01*
X152996527Y-83131686D01*
X152996526Y-83131685D01*
X152994500Y-83144482D01*
X152994500Y-83607517D01*
X153000102Y-83642899D01*
X153000104Y-83642902D01*
X153000104Y-83642907D01*
X153000105Y-83642913D01*
X153000461Y-83667808D01*
X153000618Y-83678762D01*
X152999059Y-83690831D01*
X152970495Y-83755828D01*
X152911325Y-83795064D01*
X152842355Y-83796625D01*
X152831987Y-83793926D01*
X152800729Y-83781109D01*
X152725693Y-83737787D01*
X152722795Y-83735913D01*
X152720064Y-83734547D01*
X152718346Y-83734114D01*
X152688641Y-83726155D01*
X152686070Y-83725466D01*
X152686070Y-83725465D01*
X152592892Y-83700500D01*
X152461108Y-83700500D01*
X152461107Y-83700500D01*
X152408858Y-83714500D01*
X152333819Y-83734605D01*
X152333816Y-83734606D01*
X152333802Y-83734613D01*
X152234259Y-83792085D01*
X152200964Y-83805414D01*
X152187258Y-83808739D01*
X152116342Y-83805361D01*
X152058519Y-83764190D01*
X152057498Y-83762892D01*
X152032808Y-83708832D01*
X152031845Y-83703834D01*
X152029569Y-83679995D01*
X152029569Y-78059898D01*
X152034672Y-78024404D01*
X152039146Y-78009165D01*
X152077525Y-77949439D01*
X152078762Y-77948368D01*
X152134886Y-77920394D01*
X152142966Y-77918665D01*
X152170181Y-77915879D01*
X170885321Y-78043356D01*
G37*
%TD.AperFunction*%
%TA.AperFunction,Conductor*%
G36*
X152202374Y-84595249D02*
G01*
X152207191Y-84596917D01*
X152228982Y-84606867D01*
X152333814Y-84667392D01*
X152461108Y-84701500D01*
X152461110Y-84701500D01*
X152592890Y-84701500D01*
X152592892Y-84701500D01*
X152720186Y-84667392D01*
X152799805Y-84621422D01*
X152833095Y-84608095D01*
X152838153Y-84606868D01*
X152844921Y-84605226D01*
X152915837Y-84608604D01*
X152973669Y-84649786D01*
X152999839Y-84713607D01*
X153001035Y-84724253D01*
X153000273Y-84758026D01*
X152994500Y-84794481D01*
X152994500Y-85257516D01*
X152998561Y-85283158D01*
X153009352Y-85351301D01*
X153009355Y-85351305D01*
X153066949Y-85464342D01*
X153156657Y-85554050D01*
X153269694Y-85611645D01*
X153269696Y-85611646D01*
X153269913Y-85611680D01*
X153270313Y-85611744D01*
X153270315Y-85611744D01*
X153270317Y-85611744D01*
X153299760Y-85620847D01*
X153304578Y-85622336D01*
X153318929Y-85629139D01*
X153371916Y-85676390D01*
X153371916Y-85676392D01*
X153375455Y-85682074D01*
X153394500Y-85748681D01*
X153394500Y-87425500D01*
X153374498Y-87493621D01*
X153320842Y-87540114D01*
X153268500Y-87551500D01*
X152169102Y-87551500D01*
X152162313Y-87551864D01*
X152093219Y-87535537D01*
X152043921Y-87484447D01*
X152029569Y-87426045D01*
X152029569Y-84728089D01*
X152034673Y-84692591D01*
X152038646Y-84679060D01*
X152077029Y-84619334D01*
X152141593Y-84589843D01*
X152143230Y-84589608D01*
X152202374Y-84595249D01*
G37*
%TD.AperFunction*%
%TA.AperFunction,Conductor*%
G36*
X154586354Y-84481603D02*
G01*
X154599890Y-84485577D01*
X154615643Y-84495702D01*
X154619681Y-84496372D01*
X154627016Y-84503011D01*
X154659615Y-84523962D01*
X154666277Y-84538546D01*
X154672319Y-84544015D01*
X154677453Y-84563013D01*
X154689102Y-84588513D01*
X154689585Y-84591867D01*
X154688573Y-84604156D01*
X154690843Y-84612552D01*
X154684972Y-84647932D01*
X154684366Y-84649842D01*
X154676535Y-84668935D01*
X154660354Y-84700694D01*
X154660353Y-84700698D01*
X154660235Y-84701447D01*
X154660227Y-84701500D01*
X154645500Y-84794484D01*
X154645500Y-85257516D01*
X154649561Y-85283158D01*
X154660352Y-85351301D01*
X154660355Y-85351305D01*
X154717949Y-85464342D01*
X154807657Y-85554050D01*
X154920694Y-85611645D01*
X154920696Y-85611646D01*
X154920913Y-85611680D01*
X154921313Y-85611744D01*
X154921315Y-85611744D01*
X154921317Y-85611744D01*
X154950760Y-85620847D01*
X154955578Y-85622336D01*
X154969929Y-85629139D01*
X155022916Y-85676390D01*
X155022916Y-85676392D01*
X155026455Y-85682074D01*
X155045500Y-85748681D01*
X155045500Y-87425500D01*
X155025498Y-87493621D01*
X154971842Y-87540114D01*
X154919500Y-87551500D01*
X154071500Y-87551500D01*
X154003379Y-87531498D01*
X153956886Y-87477842D01*
X153945500Y-87425500D01*
X153945500Y-85757142D01*
X153950603Y-85721648D01*
X153955077Y-85706409D01*
X153993452Y-85646687D01*
X153993451Y-85646687D01*
X153998517Y-85642297D01*
X154061337Y-85613065D01*
X154070304Y-85611646D01*
X154183342Y-85554050D01*
X154273050Y-85464342D01*
X154330646Y-85351304D01*
X154345500Y-85257519D01*
X154345499Y-84794482D01*
X154330646Y-84700696D01*
X154317973Y-84675824D01*
X154311751Y-84661473D01*
X154310520Y-84658069D01*
X154310172Y-84652413D01*
X154306932Y-84641803D01*
X154306410Y-84641902D01*
X154306147Y-84640503D01*
X154306514Y-84640433D01*
X154304294Y-84633161D01*
X154302805Y-84622807D01*
X154306689Y-84595775D01*
X154306163Y-84587206D01*
X154308529Y-84582973D01*
X154312903Y-84552536D01*
X154354918Y-84501889D01*
X154358245Y-84499544D01*
X154413296Y-84477755D01*
X154413322Y-84477751D01*
X154413489Y-84477728D01*
X154431035Y-84476500D01*
X154550859Y-84476500D01*
X154586354Y-84481603D01*
G37*
%TD.AperFunction*%
%TA.AperFunction,Conductor*%
G36*
X156236895Y-84480743D02*
G01*
X156236916Y-84480746D01*
X156240894Y-84481301D01*
X156248423Y-84483441D01*
X156247760Y-84485771D01*
X156301705Y-84513078D01*
X156337658Y-84574298D01*
X156338696Y-84631029D01*
X156336338Y-84642157D01*
X156325341Y-84673242D01*
X156311356Y-84700686D01*
X156311356Y-84700688D01*
X156311355Y-84700690D01*
X156311355Y-84700692D01*
X156296500Y-84794484D01*
X156296500Y-85257516D01*
X156300561Y-85283158D01*
X156311352Y-85351301D01*
X156311355Y-85351305D01*
X156368949Y-85464342D01*
X156458657Y-85554050D01*
X156571694Y-85611645D01*
X156571696Y-85611646D01*
X156571913Y-85611680D01*
X156572313Y-85611744D01*
X156572315Y-85611744D01*
X156572317Y-85611744D01*
X156601760Y-85620847D01*
X156606578Y-85622336D01*
X156620929Y-85629139D01*
X156673916Y-85676390D01*
X156673916Y-85676392D01*
X156677455Y-85682074D01*
X156696500Y-85748681D01*
X156696500Y-87425500D01*
X156676498Y-87493621D01*
X156622842Y-87540114D01*
X156570500Y-87551500D01*
X155722500Y-87551500D01*
X155654379Y-87531498D01*
X155607886Y-87477842D01*
X155596500Y-87425500D01*
X155596500Y-85757142D01*
X155601603Y-85721648D01*
X155606077Y-85706409D01*
X155644452Y-85646687D01*
X155644451Y-85646687D01*
X155649517Y-85642297D01*
X155712337Y-85613065D01*
X155721304Y-85611646D01*
X155834342Y-85554050D01*
X155924050Y-85464342D01*
X155981646Y-85351304D01*
X155996500Y-85257519D01*
X155996499Y-84794482D01*
X155981646Y-84700696D01*
X155981646Y-84700695D01*
X155981645Y-84700692D01*
X155968978Y-84675831D01*
X155962953Y-84662025D01*
X155961935Y-84659250D01*
X155961572Y-84653761D01*
X155957846Y-84641836D01*
X155957416Y-84641917D01*
X155957205Y-84640795D01*
X155957503Y-84640738D01*
X155955670Y-84634871D01*
X155955409Y-84633161D01*
X155953990Y-84623864D01*
X155957753Y-84595973D01*
X155957253Y-84588408D01*
X155959264Y-84584771D01*
X155963482Y-84553508D01*
X156005948Y-84501868D01*
X156009175Y-84499593D01*
X156063496Y-84477911D01*
X156063703Y-84477880D01*
X156064037Y-84477832D01*
X156082309Y-84476500D01*
X156206445Y-84476500D01*
X156236895Y-84480743D01*
G37*
%TD.AperFunction*%
%TD*%
%TA.AperFunction,Conductor*%
%TO.N,+3.3V*%
G36*
X160264621Y-87777002D02*
G01*
X160311114Y-87830658D01*
X160322500Y-87883000D01*
X160322500Y-98807000D01*
X160302498Y-98875121D01*
X160248842Y-98921614D01*
X160196500Y-98933000D01*
X158132115Y-98933000D01*
X158132112Y-98932999D01*
X158132112Y-98933000D01*
X158096614Y-98927895D01*
X158081375Y-98923420D01*
X158021649Y-98885035D01*
X158021641Y-98885025D01*
X158020436Y-98883634D01*
X157992549Y-98827912D01*
X157990878Y-98820229D01*
X157988000Y-98793451D01*
X157988000Y-93091001D01*
X157988000Y-93091000D01*
X157987999Y-93090998D01*
X157987996Y-93090995D01*
X157987994Y-93090992D01*
X156591002Y-91694000D01*
X156591001Y-91694000D01*
X156591000Y-91694000D01*
X152173684Y-91694000D01*
X152173681Y-91693999D01*
X152173681Y-91694000D01*
X152138183Y-91688895D01*
X152122944Y-91684420D01*
X152063218Y-91646035D01*
X152063210Y-91646025D01*
X152062005Y-91644634D01*
X152034118Y-91588912D01*
X152032447Y-91581229D01*
X152029569Y-91554451D01*
X152029569Y-87901115D01*
X152034672Y-87865621D01*
X152039146Y-87850382D01*
X152077525Y-87790656D01*
X152078934Y-87789436D01*
X152134655Y-87761549D01*
X152142339Y-87759878D01*
X152169117Y-87757000D01*
X160196500Y-87757000D01*
X160264621Y-87777002D01*
G37*
%TD.AperFunction*%
%TD*%
%TA.AperFunction,Conductor*%
%TO.N,+5V*%
G36*
X170919946Y-87762102D02*
G01*
X170935190Y-87766578D01*
X170950437Y-87776376D01*
X170967826Y-87781485D01*
X170994898Y-87804949D01*
X170994915Y-87804960D01*
X170994927Y-87804974D01*
X170996132Y-87806365D01*
X171024015Y-87862072D01*
X171025687Y-87869755D01*
X171028569Y-87896548D01*
X171028569Y-105300363D01*
X171023464Y-105335864D01*
X171015933Y-105361510D01*
X170984133Y-105415104D01*
X170403959Y-105995277D01*
X170403958Y-105995280D01*
X170375249Y-106016773D01*
X170351788Y-106029585D01*
X170291398Y-106045000D01*
X166624000Y-106045000D01*
X165801144Y-107102954D01*
X165775326Y-107127838D01*
X165762439Y-107137120D01*
X165695473Y-107160702D01*
X165695466Y-107160702D01*
X165689125Y-107161038D01*
X165620041Y-107144669D01*
X165619458Y-107144334D01*
X165547196Y-107102613D01*
X165547184Y-107102607D01*
X165513070Y-107093466D01*
X165513070Y-107093465D01*
X165419892Y-107068500D01*
X165288108Y-107068500D01*
X165288105Y-107068500D01*
X165219893Y-107086776D01*
X165219894Y-107086777D01*
X165160816Y-107102606D01*
X165160815Y-107102607D01*
X165160805Y-107102611D01*
X165056516Y-107162823D01*
X165026131Y-107175410D01*
X164995174Y-107183706D01*
X164962559Y-107188000D01*
X163720115Y-107188000D01*
X163684614Y-107182895D01*
X163669375Y-107178420D01*
X163609649Y-107140035D01*
X163609641Y-107140025D01*
X163608436Y-107138634D01*
X163580549Y-107082912D01*
X163578878Y-107075229D01*
X163576000Y-107048451D01*
X163576000Y-104030115D01*
X163581103Y-103994621D01*
X163585577Y-103979382D01*
X163623956Y-103919656D01*
X163625365Y-103918436D01*
X163681086Y-103890549D01*
X163688770Y-103888878D01*
X163715548Y-103886000D01*
X165862000Y-103886000D01*
X166447623Y-103183252D01*
X166474260Y-103159255D01*
X166494901Y-103145421D01*
X166546044Y-103125531D01*
X166546473Y-103125465D01*
X166546636Y-103125441D01*
X166562133Y-103124265D01*
X166562619Y-103124113D01*
X166562951Y-103124203D01*
X166565637Y-103124000D01*
X169037000Y-103124000D01*
X169037000Y-95631000D01*
X163907500Y-95631000D01*
X163839379Y-95610998D01*
X163792886Y-95557342D01*
X163781500Y-95505000D01*
X163781500Y-94057500D01*
X163801502Y-93989379D01*
X163855158Y-93942886D01*
X163907500Y-93931500D01*
X165227002Y-93931500D01*
X165249864Y-93928924D01*
X165272728Y-93926348D01*
X165355127Y-93886666D01*
X165412149Y-93815163D01*
X165432500Y-93726000D01*
X165432500Y-92329000D01*
X165427348Y-92283272D01*
X165387666Y-92200873D01*
X165316163Y-92143851D01*
X165316160Y-92143850D01*
X165316161Y-92143850D01*
X165267700Y-92132789D01*
X165227000Y-92123500D01*
X165226998Y-92123500D01*
X162383500Y-92123500D01*
X162315379Y-92103498D01*
X162268886Y-92049842D01*
X162257500Y-91997500D01*
X162257500Y-91009500D01*
X162277502Y-90941379D01*
X162331158Y-90894886D01*
X162383500Y-90883500D01*
X162814002Y-90883500D01*
X162836864Y-90880924D01*
X162859728Y-90878348D01*
X162942127Y-90838666D01*
X162999149Y-90767163D01*
X163019500Y-90678000D01*
X163019500Y-87883000D01*
X163039502Y-87814879D01*
X163093158Y-87768386D01*
X163145500Y-87757000D01*
X170884454Y-87757000D01*
X170919946Y-87762102D01*
G37*
%TD.AperFunction*%
%TD*%
%TA.AperFunction,Conductor*%
%TO.N,GND*%
G36*
X162814000Y-90678000D02*
G01*
X162052000Y-90678000D01*
X162052000Y-92329000D01*
X165227000Y-92329000D01*
X165227000Y-93726000D01*
X163576000Y-93726000D01*
X163576000Y-98933000D01*
X160528000Y-98933000D01*
X160528000Y-87757000D01*
X162814000Y-87757000D01*
X162814000Y-90678000D01*
G37*
%TD.AperFunction*%
%TD*%
M02*
