%TF.GenerationSoftware,KiCad,Pcbnew,10.0.4*%
%TF.CreationDate,2026-07-05T18:30:16+03:00*%
%TF.ProjectId,Midea WiFi Dongle,4d696465-6120-4576-9946-6920446f6e67,1*%
%TF.SameCoordinates,Original*%
%TF.FileFunction,Copper,L1,Top*%
%TF.FilePolarity,Positive*%
%FSLAX46Y46*%
G04 Gerber Fmt 4.6, Leading zero omitted, Abs format (unit mm)*
G04 Created by KiCad (PCBNEW 10.0.4) date 2026-07-05 18:30:16*
%MOMM*%
%LPD*%
G01*
G04 APERTURE LIST*
G04 Aperture macros list*
%AMRoundRect*
0 Rectangle with rounded corners*
0 $1 Rounding radius*
0 $2 $3 $4 $5 $6 $7 $8 $9 X,Y pos of 4 corners*
0 Add a 4 corners polygon primitive as box body*
4,1,4,$2,$3,$4,$5,$6,$7,$8,$9,$2,$3,0*
0 Add four circle primitives for the rounded corners*
1,1,$1+$1,$2,$3*
1,1,$1+$1,$4,$5*
1,1,$1+$1,$6,$7*
1,1,$1+$1,$8,$9*
0 Add four rect primitives between the rounded corners*
20,1,$1+$1,$2,$3,$4,$5,0*
20,1,$1+$1,$4,$5,$6,$7,0*
20,1,$1+$1,$6,$7,$8,$9,0*
20,1,$1+$1,$8,$9,$2,$3,0*%
G04 Aperture macros list end*
%TA.AperFunction,SMDPad,CuDef*%
%ADD10R,2.500000X1.000000*%
%TD*%
%TA.AperFunction,SMDPad,CuDef*%
%ADD11RoundRect,0.225000X0.225000X0.250000X-0.225000X0.250000X-0.225000X-0.250000X0.225000X-0.250000X0*%
%TD*%
%TA.AperFunction,SMDPad,CuDef*%
%ADD12RoundRect,0.200000X-0.275000X0.200000X-0.275000X-0.200000X0.275000X-0.200000X0.275000X0.200000X0*%
%TD*%
%TA.AperFunction,SMDPad,CuDef*%
%ADD13RoundRect,0.200000X0.200000X0.275000X-0.200000X0.275000X-0.200000X-0.275000X0.200000X-0.275000X0*%
%TD*%
%TA.AperFunction,SMDPad,CuDef*%
%ADD14R,1.100000X2.500000*%
%TD*%
%TA.AperFunction,ComponentPad*%
%ADD15O,1.900000X3.500000*%
%TD*%
%TA.AperFunction,SMDPad,CuDef*%
%ADD16RoundRect,0.150000X-0.150000X0.587500X-0.150000X-0.587500X0.150000X-0.587500X0.150000X0.587500X0*%
%TD*%
%TA.AperFunction,SMDPad,CuDef*%
%ADD17RoundRect,0.150000X-0.587500X-0.150000X0.587500X-0.150000X0.587500X0.150000X-0.587500X0.150000X0*%
%TD*%
%TA.AperFunction,ViaPad*%
%ADD18C,0.600000*%
%TD*%
%TA.AperFunction,Conductor*%
%ADD19C,0.150000*%
%TD*%
%TA.AperFunction,Conductor*%
%ADD20C,0.600000*%
%TD*%
G04 APERTURE END LIST*
D10*
%TO.P,U2,1,~{RST}_1*%
%TO.N,/RESET*%
X153896069Y-76391483D03*
%TO.P,U2,3,EN_3*%
%TO.N,/EN*%
X153896069Y-80391483D03*
%TO.P,U2,8,VCC_8*%
%TO.N,+3.3V*%
X153896069Y-90391483D03*
%TO.P,U2,15,GND_15*%
%TO.N,GND*%
X169096069Y-90391483D03*
%TO.P,U2,16,GPIO15_16*%
%TO.N,/GPIO15*%
X169096069Y-88391483D03*
%TO.P,U2,18,GPIO0_18*%
%TO.N,/GPIO0*%
X169096069Y-84391483D03*
%TO.P,U2,21,GPIO3/RXD_21*%
%TO.N,/RX*%
X169096069Y-78391483D03*
%TO.P,U2,22,GPIO1/TXD_22*%
%TO.N,/TX*%
X169096069Y-76391483D03*
%TD*%
D11*
%TO.P,C4,1*%
%TO.N,GND*%
X158255000Y-93853000D03*
%TO.P,C4,2*%
%TO.N,+3.3V*%
X156705000Y-93853000D03*
%TD*%
D12*
%TO.P,R8,1*%
%TO.N,+3.3V*%
X157103000Y-100504000D03*
%TO.P,R8,2*%
%TO.N,/TX*%
X157103000Y-102154000D03*
%TD*%
D13*
%TO.P,R5,1*%
%TO.N,+5V*%
X164655000Y-103124000D03*
%TO.P,R5,2*%
%TO.N,/TX_APPLIANCE*%
X163005000Y-103124000D03*
%TD*%
%TO.P,R6,1*%
%TO.N,+5V*%
X164655000Y-101600000D03*
%TO.P,R6,2*%
%TO.N,/RX_APPLIANCE*%
X163005000Y-101600000D03*
%TD*%
D14*
%TO.P,J1,1,VBUS_1*%
%TO.N,+5V*%
X165061569Y-105670483D03*
%TO.P,J1,2,D-_2*%
%TO.N,/TX_APPLIANCE*%
X162561569Y-105670483D03*
%TO.P,J1,3,D+_3*%
%TO.N,/RX_APPLIANCE*%
X160561569Y-105670483D03*
%TO.P,J1,4,GND_4*%
%TO.N,GND*%
X158061569Y-105670483D03*
D15*
%TO.P,J1,5*%
%TO.N,N/C*%
X167261569Y-108420483D03*
X155861569Y-108420483D03*
%TD*%
D13*
%TO.P,R7,1*%
%TO.N,+3.3V*%
X167969000Y-97745500D03*
%TO.P,R7,2*%
%TO.N,/RX*%
X166319000Y-97745500D03*
%TD*%
D16*
%TO.P,Q3,1,G_1*%
%TO.N,+3.3V*%
X168082000Y-99725000D03*
%TO.P,Q3,2,S_2*%
%TO.N,/RX*%
X166182000Y-99725000D03*
%TO.P,Q3,3,D_3*%
%TO.N,/TX_APPLIANCE*%
X167132000Y-101600000D03*
%TD*%
D17*
%TO.P,Q4,1,G_1*%
%TO.N,+3.3V*%
X159082500Y-100396000D03*
%TO.P,Q4,2,S_2*%
%TO.N,/TX*%
X159082500Y-102296000D03*
%TO.P,Q4,3,D_3*%
%TO.N,/RX_APPLIANCE*%
X160957500Y-101346000D03*
%TD*%
D18*
%TO.N,/RESET*%
X152527000Y-84201000D03*
%TO.N,/EN*%
X153797000Y-82042000D03*
%TO.N,GND*%
X154051000Y-103378000D03*
X165354000Y-107569000D03*
X159512000Y-87122000D03*
X160528000Y-103886000D03*
X152527000Y-92456000D03*
X160528000Y-103124000D03*
X164973000Y-79375000D03*
X164973000Y-80137000D03*
X152527000Y-105664000D03*
X158242000Y-103124000D03*
X160274000Y-86360000D03*
X168529000Y-96139000D03*
X161036000Y-99187000D03*
X162433000Y-97663000D03*
X153289000Y-103378000D03*
X152527000Y-93218000D03*
X153289000Y-93218000D03*
X157734000Y-109093000D03*
X155575000Y-104902000D03*
X161036000Y-86360000D03*
X162306000Y-80645000D03*
X157734000Y-109855000D03*
X156591000Y-96266000D03*
X159004000Y-103886000D03*
X156210000Y-87122000D03*
X156591000Y-97028000D03*
X157353000Y-95504000D03*
X163195000Y-99187000D03*
X165354000Y-109093000D03*
X164973000Y-78613000D03*
X164084000Y-86360000D03*
X156464000Y-78359000D03*
X163957000Y-99187000D03*
X164719000Y-96901000D03*
X156591000Y-98552000D03*
X162560000Y-86360000D03*
X156591000Y-97790000D03*
X165735000Y-79375000D03*
X163068000Y-81407000D03*
X157353000Y-98552000D03*
X152908000Y-87122000D03*
X156337000Y-104140000D03*
X154813000Y-103378000D03*
X164846000Y-86360000D03*
X161798000Y-87122000D03*
X154813000Y-92456000D03*
X155575000Y-93980000D03*
X159004000Y-103124000D03*
X157861000Y-87122000D03*
X153289000Y-104140000D03*
X156464000Y-80645000D03*
X158750000Y-86360000D03*
X164084000Y-87122000D03*
X165354000Y-109855000D03*
X162433000Y-99187000D03*
X163957000Y-96139000D03*
X153289000Y-104902000D03*
X154559000Y-87122000D03*
X159766000Y-103886000D03*
X155575000Y-93218000D03*
X155575000Y-104140000D03*
X163957000Y-98425000D03*
X152527000Y-104902000D03*
X157734000Y-107569000D03*
X163195000Y-98425000D03*
X161798000Y-86360000D03*
X162433000Y-96901000D03*
X154051000Y-93218000D03*
X155575000Y-105664000D03*
X152527000Y-104140000D03*
X164719000Y-98425000D03*
X163068000Y-80645000D03*
X165354000Y-108331000D03*
X157353000Y-94742000D03*
X158750000Y-87122000D03*
X163322000Y-86360000D03*
X154051000Y-92456000D03*
X166370000Y-86360000D03*
X162433000Y-98425000D03*
X167005000Y-96139000D03*
X161036000Y-87122000D03*
X163195000Y-97663000D03*
X154051000Y-94742000D03*
X156591000Y-95504000D03*
X157353000Y-96266000D03*
X165735000Y-78613000D03*
X155702000Y-79121000D03*
X155575000Y-92456000D03*
X165608000Y-86360000D03*
X154813000Y-105664000D03*
X157353000Y-97028000D03*
X154051000Y-104902000D03*
X155575000Y-94742000D03*
X165608000Y-87122000D03*
X166370000Y-87122000D03*
X156337000Y-103378000D03*
X157353000Y-97790000D03*
X163195000Y-96901000D03*
X160274000Y-87122000D03*
X159766000Y-103124000D03*
X161544000Y-80645000D03*
X154813000Y-104902000D03*
X163322000Y-87122000D03*
X162306000Y-81407000D03*
X156464000Y-79883000D03*
X167767000Y-96139000D03*
X152527000Y-93980000D03*
X156337000Y-105664000D03*
X161544000Y-81407000D03*
X164719000Y-99187000D03*
X155575000Y-103378000D03*
X163195000Y-96139000D03*
X157734000Y-108331000D03*
X155702000Y-79883000D03*
X154051000Y-105664000D03*
X158242000Y-103886000D03*
X152527000Y-94742000D03*
X161671000Y-99187000D03*
X153289000Y-92456000D03*
X154813000Y-104140000D03*
X156464000Y-79121000D03*
X155702000Y-78359000D03*
X156337000Y-104902000D03*
X153289000Y-105664000D03*
X152527000Y-103378000D03*
X162433000Y-96139000D03*
X163957000Y-97663000D03*
X163957000Y-96901000D03*
X154813000Y-94742000D03*
X157353000Y-99314000D03*
X159512000Y-86360000D03*
X156591000Y-94742000D03*
X164719000Y-96139000D03*
X164719000Y-97663000D03*
X165735000Y-80137000D03*
X164846000Y-87122000D03*
X154813000Y-93218000D03*
X166243000Y-96139000D03*
X153289000Y-94742000D03*
X154051000Y-93980000D03*
X154051000Y-104140000D03*
X162560000Y-87122000D03*
X153289000Y-93980000D03*
X155702000Y-80645000D03*
X154813000Y-93980000D03*
X156591000Y-99314000D03*
%TO.N,/GPIO15*%
X170434000Y-87249000D03*
%TO.N,/GPIO0*%
X167259000Y-83439000D03*
%TO.N,/TX*%
X160020000Y-99695000D03*
X159082500Y-102296000D03*
%TO.N,+5V*%
X169924299Y-104970176D03*
X163957000Y-106680000D03*
X166876299Y-105732176D03*
X166876299Y-104970176D03*
X169162299Y-103446176D03*
X166876299Y-104208176D03*
X169924299Y-103446176D03*
X167638299Y-104970176D03*
X167638299Y-104208176D03*
X166116000Y-105918000D03*
X170686299Y-104208176D03*
X169924299Y-104208176D03*
X163957000Y-105156000D03*
X163957000Y-104394000D03*
X170686299Y-103446176D03*
X170686299Y-104970176D03*
X169162299Y-104208176D03*
X168400299Y-103446176D03*
X163957000Y-105918000D03*
X168400299Y-104208176D03*
X169924299Y-105732176D03*
X169162299Y-105732176D03*
X166876299Y-103446176D03*
X168400299Y-104970176D03*
X168400299Y-105732176D03*
X167638299Y-105732176D03*
X167638299Y-103446176D03*
X170686299Y-105732176D03*
X166116000Y-105156000D03*
X169162299Y-104970176D03*
X166116000Y-104394000D03*
%TO.N,+3.3V*%
X155829000Y-88900000D03*
X158115000Y-90424000D03*
X156591000Y-88138000D03*
X158115000Y-89662000D03*
X156591000Y-90424000D03*
X157353000Y-91186000D03*
X158115000Y-88900000D03*
X156591000Y-88900000D03*
X155829000Y-89662000D03*
X158877000Y-98425000D03*
X155829000Y-90424000D03*
X153543000Y-88900000D03*
X152781000Y-88900000D03*
X155067000Y-88138000D03*
X154305000Y-88900000D03*
X153543000Y-88138000D03*
X157353000Y-89662000D03*
X157353000Y-90424000D03*
X155829000Y-91186000D03*
X157353000Y-88900000D03*
X156591000Y-89662000D03*
X158115000Y-88138000D03*
X158115000Y-91186000D03*
X154305000Y-88138000D03*
X152781000Y-88138000D03*
X157353000Y-88138000D03*
X155829000Y-88138000D03*
X156591000Y-91186000D03*
X155067000Y-88900000D03*
%TD*%
%TO.N,/RESET*%
D19*
X152371069Y-84045069D02*
X152527000Y-84201000D01*
X153896069Y-76391483D02*
X152371069Y-77916483D01*
X152371069Y-77916483D02*
X152371069Y-84045069D01*
%TO.N,/EN*%
X153896069Y-81942931D02*
X153797000Y-82042000D01*
X153896069Y-80391483D02*
X153896069Y-81942931D01*
%TO.N,/GPIO15*%
X169096069Y-88391483D02*
X169291517Y-88391483D01*
X169291517Y-88391483D02*
X170434000Y-87249000D01*
%TO.N,/GPIO0*%
X167259000Y-83439000D02*
X168211483Y-84391483D01*
X168211483Y-84391483D02*
X169096069Y-84391483D01*
%TO.N,/RX*%
X167386000Y-94182827D02*
X169104000Y-95900827D01*
X166684000Y-80803552D02*
X166684000Y-84279414D01*
X167386000Y-84981414D02*
X167386000Y-94182827D01*
X167069000Y-96995500D02*
X166319000Y-97745500D01*
X166182000Y-99725000D02*
X166182000Y-97882500D01*
X169104000Y-96377173D02*
X168485673Y-96995500D01*
X168485673Y-96995500D02*
X167069000Y-96995500D01*
X166684000Y-84279414D02*
X167386000Y-84981414D01*
X169096069Y-78391483D02*
X166684000Y-80803552D01*
X166182000Y-97882500D02*
X166319000Y-97745500D01*
X169104000Y-95900827D02*
X169104000Y-96377173D01*
%TO.N,/TX*%
X169096069Y-76391483D02*
X168796069Y-76391483D01*
X165294000Y-96274828D02*
X165294000Y-99501000D01*
X167036000Y-85126388D02*
X167036000Y-94532828D01*
X160147000Y-99822000D02*
X160020000Y-99695000D01*
X157103000Y-102154000D02*
X158940500Y-102154000D01*
X165294000Y-99501000D02*
X164973000Y-99822000D01*
X158940500Y-102154000D02*
X159082500Y-102296000D01*
X166334000Y-78853552D02*
X166334000Y-84424389D01*
X166334000Y-84424389D02*
X167036000Y-85126388D01*
X164973000Y-99822000D02*
X160147000Y-99822000D01*
X168796069Y-76391483D02*
X166334000Y-78853552D01*
X167036000Y-94532828D02*
X165294000Y-96274828D01*
%TO.N,+5V*%
D20*
X164655000Y-101854000D02*
X164528000Y-101727000D01*
X165061569Y-104863569D02*
X164655000Y-104457000D01*
X164655000Y-104457000D02*
X164655000Y-101854000D01*
X165061569Y-105670483D02*
X165061569Y-104863569D01*
%TO.N,/TX_APPLIANCE*%
D19*
X163005000Y-103124000D02*
X163953000Y-102176000D01*
X164252708Y-100850000D02*
X165057292Y-100850000D01*
X162561569Y-103567431D02*
X162878000Y-103251000D01*
X166624000Y-101092000D02*
X167132000Y-101600000D01*
X165299292Y-101092000D02*
X166624000Y-101092000D01*
D20*
X162432569Y-105801483D02*
X162446569Y-105801483D01*
D19*
X163953000Y-101149708D02*
X164252708Y-100850000D01*
X162561569Y-105670483D02*
X162561569Y-103567431D01*
X165057292Y-100850000D02*
X165299292Y-101092000D01*
D20*
X162432569Y-105801483D02*
X162432569Y-105370983D01*
D19*
X163953000Y-102176000D02*
X163953000Y-101149708D01*
%TO.N,/RX_APPLIANCE*%
X160561569Y-105670483D02*
X160561569Y-105376431D01*
X162179000Y-102426000D02*
X162878000Y-101727000D01*
X162037500Y-102426000D02*
X162179000Y-102426000D01*
X160561569Y-105376431D02*
X162179000Y-103759000D01*
X160957500Y-101346000D02*
X162037500Y-102426000D01*
X162179000Y-103759000D02*
X162179000Y-102426000D01*
D20*
X160432569Y-105801483D02*
X160432569Y-104926483D01*
%TO.N,+3.3V*%
D19*
X166512196Y-100737500D02*
X167524696Y-99725000D01*
D20*
X156591000Y-93739000D02*
X156705000Y-93853000D01*
X156591000Y-91186000D02*
X156591000Y-93739000D01*
D19*
X165510304Y-100396000D02*
X165851804Y-100737500D01*
X159082500Y-100396000D02*
X165510304Y-100396000D01*
X168082000Y-97858500D02*
X167969000Y-97745500D01*
X167524696Y-99725000D02*
X168082000Y-99725000D01*
X159082500Y-100396000D02*
X157211000Y-100396000D01*
X168082000Y-99725000D02*
X168082000Y-97858500D01*
X159082500Y-98630500D02*
X158877000Y-98425000D01*
X165851804Y-100737500D02*
X166512196Y-100737500D01*
X157211000Y-100396000D02*
X157103000Y-100504000D01*
X159082500Y-100396000D02*
X159082500Y-98630500D01*
%TD*%
%TA.AperFunction,Conductor*%
%TO.N,+3.3V*%
G36*
X160470121Y-87777002D02*
G01*
X160516614Y-87830658D01*
X160528000Y-87883000D01*
X160528000Y-91568000D01*
X160507998Y-91636121D01*
X160454342Y-91682614D01*
X160402000Y-91694000D01*
X152526000Y-91694000D01*
X152457879Y-91673998D01*
X152411386Y-91620342D01*
X152400000Y-91568000D01*
X152400000Y-87883000D01*
X152420002Y-87814879D01*
X152473658Y-87768386D01*
X152526000Y-87757000D01*
X160402000Y-87757000D01*
X160470121Y-87777002D01*
G37*
%TD.AperFunction*%
%TD*%
%TA.AperFunction,Conductor*%
%TO.N,+5V*%
G36*
X170970690Y-103144002D02*
G01*
X171017183Y-103197658D01*
X171028569Y-103250000D01*
X171028569Y-105318479D01*
X171008567Y-105386600D01*
X170991664Y-105407574D01*
X170391143Y-106008095D01*
X170328831Y-106042121D01*
X170302048Y-106045000D01*
X166624000Y-106045000D01*
X165790024Y-107117253D01*
X165732414Y-107158744D01*
X165661516Y-107162502D01*
X165627567Y-107149016D01*
X165547188Y-107102609D01*
X165547183Y-107102607D01*
X165513073Y-107093467D01*
X165419892Y-107068500D01*
X165288108Y-107068500D01*
X165219894Y-107086777D01*
X165160816Y-107102607D01*
X165160809Y-107102610D01*
X165042149Y-107171119D01*
X164979149Y-107188000D01*
X163702000Y-107188000D01*
X163633879Y-107167998D01*
X163587386Y-107114342D01*
X163576000Y-107062000D01*
X163576000Y-104012000D01*
X163596002Y-103943879D01*
X163649658Y-103897386D01*
X163702000Y-103886000D01*
X165862000Y-103886000D01*
X166459219Y-103169337D01*
X166518195Y-103129810D01*
X166556015Y-103124000D01*
X170902569Y-103124000D01*
X170970690Y-103144002D01*
G37*
%TD.AperFunction*%
%TD*%
%TA.AperFunction,Conductor*%
%TO.N,GND*%
G36*
X166463139Y-78013235D02*
G01*
X166498595Y-78018580D01*
X166509606Y-78021895D01*
X166524773Y-78031790D01*
X166542118Y-78037012D01*
X166553890Y-78050787D01*
X166569065Y-78060687D01*
X166576476Y-78077213D01*
X166588244Y-78090983D01*
X166590700Y-78108933D01*
X166598115Y-78125468D01*
X166595414Y-78143380D01*
X166597870Y-78161324D01*
X166587532Y-78195665D01*
X166584124Y-78202995D01*
X166558965Y-78238969D01*
X166177942Y-78619995D01*
X166177941Y-78619995D01*
X166100443Y-78697492D01*
X166100440Y-78697496D01*
X166058500Y-78798750D01*
X166058500Y-84479191D01*
X166076016Y-84521475D01*
X166076017Y-84521480D01*
X166076018Y-84521480D01*
X166100442Y-84580447D01*
X166100443Y-84580448D01*
X166710783Y-85190786D01*
X166732275Y-85219496D01*
X166745087Y-85242959D01*
X166760500Y-85303345D01*
X166760500Y-94348407D01*
X166755395Y-94383908D01*
X166747864Y-94409554D01*
X166716064Y-94463148D01*
X165060449Y-96118761D01*
X165060446Y-96118765D01*
X165060440Y-96118772D01*
X165060440Y-96118773D01*
X165018500Y-96220026D01*
X165018500Y-99316576D01*
X165014166Y-99349338D01*
X165013792Y-99350724D01*
X165009716Y-99364608D01*
X165008295Y-99371140D01*
X165007490Y-99374130D01*
X164990530Y-99401876D01*
X164974920Y-99430463D01*
X164908598Y-99496786D01*
X164879890Y-99518276D01*
X164856429Y-99531087D01*
X164796045Y-99546500D01*
X160603053Y-99546500D01*
X160603049Y-99546499D01*
X160603048Y-99546500D01*
X160567553Y-99541395D01*
X160554252Y-99537489D01*
X160549206Y-99536008D01*
X160493520Y-99502064D01*
X160486216Y-99494404D01*
X160468289Y-99470458D01*
X160420502Y-99387689D01*
X160420494Y-99387679D01*
X160420488Y-99387673D01*
X160420479Y-99387663D01*
X160327335Y-99294519D01*
X160327326Y-99294511D01*
X160327320Y-99294505D01*
X160327310Y-99294497D01*
X160327309Y-99294496D01*
X160327308Y-99294495D01*
X160218694Y-99231787D01*
X160218694Y-99231788D01*
X160218692Y-99231787D01*
X160213190Y-99228610D01*
X160213095Y-99228555D01*
X160211346Y-99228114D01*
X160193075Y-99223219D01*
X160179070Y-99219466D01*
X160179070Y-99219465D01*
X160085892Y-99194500D01*
X159954108Y-99194500D01*
X159954105Y-99194500D01*
X159885893Y-99212776D01*
X159885894Y-99212777D01*
X159826816Y-99228606D01*
X159826815Y-99228607D01*
X159826811Y-99228609D01*
X159712688Y-99294497D01*
X159712663Y-99294519D01*
X159619519Y-99387663D01*
X159619496Y-99387689D01*
X159619495Y-99387690D01*
X159619493Y-99387694D01*
X159602176Y-99417689D01*
X159590473Y-99429334D01*
X159583823Y-99442083D01*
X159580010Y-99445878D01*
X159571695Y-99453807D01*
X159559634Y-99460025D01*
X159555525Y-99464115D01*
X159546469Y-99469285D01*
X159537581Y-99471395D01*
X159508592Y-99486342D01*
X159484373Y-99484030D01*
X159477393Y-99485688D01*
X159468319Y-99482497D01*
X159437916Y-99479596D01*
X159419984Y-99465505D01*
X159410415Y-99462141D01*
X159402081Y-99451437D01*
X159382156Y-99435780D01*
X159381793Y-99435271D01*
X159373023Y-99414114D01*
X159366800Y-99406122D01*
X159365986Y-99397139D01*
X159360120Y-99382989D01*
X159359740Y-99380728D01*
X159358000Y-99359861D01*
X159358000Y-98588510D01*
X159359077Y-98572072D01*
X159361216Y-98555823D01*
X159364523Y-98539561D01*
X159364463Y-98539545D01*
X159377500Y-98490892D01*
X159377500Y-98359108D01*
X159343392Y-98231814D01*
X159277500Y-98117686D01*
X159277498Y-98117684D01*
X159277494Y-98117679D01*
X159277491Y-98117675D01*
X159184335Y-98024519D01*
X159184326Y-98024511D01*
X159184320Y-98024505D01*
X159184310Y-98024497D01*
X159184309Y-98024496D01*
X159184308Y-98024495D01*
X159075694Y-97961787D01*
X159075694Y-97961788D01*
X159075692Y-97961787D01*
X159070190Y-97958610D01*
X159070095Y-97958555D01*
X159068346Y-97958114D01*
X159050075Y-97953219D01*
X159036070Y-97949466D01*
X159036070Y-97949465D01*
X158942892Y-97924500D01*
X158811108Y-97924500D01*
X158811105Y-97924500D01*
X158742893Y-97942776D01*
X158742894Y-97942777D01*
X158683816Y-97958606D01*
X158683815Y-97958607D01*
X158683811Y-97958609D01*
X158569688Y-98024497D01*
X158569663Y-98024519D01*
X158476519Y-98117663D01*
X158476497Y-98117688D01*
X158460264Y-98145805D01*
X158415145Y-98223955D01*
X158410609Y-98231811D01*
X158410606Y-98231817D01*
X158388983Y-98312514D01*
X158388983Y-98312517D01*
X158376500Y-98359108D01*
X158376500Y-98490892D01*
X158399224Y-98575700D01*
X158410607Y-98618183D01*
X158410610Y-98618190D01*
X158476497Y-98732310D01*
X158476505Y-98732320D01*
X158476511Y-98732326D01*
X158476519Y-98732335D01*
X158565029Y-98820845D01*
X158565032Y-98820847D01*
X158569679Y-98825494D01*
X158569684Y-98825498D01*
X158569686Y-98825500D01*
X158569687Y-98825501D01*
X158569689Y-98825502D01*
X158609180Y-98848302D01*
X158683814Y-98891392D01*
X158696115Y-98894688D01*
X158729081Y-98908805D01*
X158742645Y-98917073D01*
X158790395Y-98969597D01*
X158794331Y-98977698D01*
X158807000Y-99032762D01*
X158807000Y-99751384D01*
X158801895Y-99786885D01*
X158797420Y-99802124D01*
X158787621Y-99817369D01*
X158782514Y-99834757D01*
X158759043Y-99861836D01*
X158759035Y-99861850D01*
X158759025Y-99861858D01*
X158757634Y-99863063D01*
X158701931Y-99890946D01*
X158694249Y-99892618D01*
X158667452Y-99895500D01*
X158461736Y-99895500D01*
X158416316Y-99902118D01*
X158393605Y-99905427D01*
X158341061Y-99931114D01*
X158288516Y-99956801D01*
X158288514Y-99956802D01*
X158288507Y-99956808D01*
X158205802Y-100039513D01*
X158202833Y-100044318D01*
X158188678Y-100063056D01*
X158177219Y-100075599D01*
X158118102Y-100111966D01*
X158104194Y-100115852D01*
X158070287Y-100120500D01*
X157828210Y-100120500D01*
X157792709Y-100115395D01*
X157781031Y-100111966D01*
X157770996Y-100109019D01*
X157759210Y-100102251D01*
X157749288Y-100100387D01*
X157719978Y-100079722D01*
X157716803Y-100076723D01*
X157713323Y-100072749D01*
X157713233Y-100072840D01*
X157710452Y-100070059D01*
X157710446Y-100070052D01*
X157616343Y-99975949D01*
X157540502Y-99937307D01*
X157503304Y-99918354D01*
X157503303Y-99918353D01*
X157503302Y-99918353D01*
X157439225Y-99908204D01*
X157409519Y-99903500D01*
X157409517Y-99903500D01*
X156796485Y-99903500D01*
X156796483Y-99903500D01*
X156773924Y-99907072D01*
X156702697Y-99918352D01*
X156589655Y-99975949D01*
X156499949Y-100065655D01*
X156482254Y-100100387D01*
X156472006Y-100120500D01*
X156456897Y-100150153D01*
X156442353Y-100178697D01*
X156432965Y-100237976D01*
X156427500Y-100272481D01*
X156427500Y-100272484D01*
X156427500Y-100735516D01*
X156430188Y-100752488D01*
X156442352Y-100829301D01*
X156499949Y-100942343D01*
X156589653Y-101032047D01*
X156589655Y-101032048D01*
X156589657Y-101032050D01*
X156620875Y-101047956D01*
X156702696Y-101089646D01*
X156796481Y-101104500D01*
X157409518Y-101104499D01*
X157503304Y-101089646D01*
X157616342Y-101032050D01*
X157706050Y-100942342D01*
X157763646Y-100829304D01*
X157768972Y-100795672D01*
X157779564Y-100761418D01*
X157786386Y-100747028D01*
X157832127Y-100695001D01*
X157835795Y-100692644D01*
X157837583Y-100691496D01*
X157905694Y-100671500D01*
X158069444Y-100671500D01*
X158104938Y-100676603D01*
X158107378Y-100677319D01*
X158121040Y-100681331D01*
X158135977Y-100690791D01*
X158152267Y-100695343D01*
X158179672Y-100718466D01*
X158189279Y-100729262D01*
X158199346Y-100744269D01*
X158199738Y-100743990D01*
X158205805Y-100752488D01*
X158288507Y-100835190D01*
X158288514Y-100835196D01*
X158288517Y-100835198D01*
X158393607Y-100886573D01*
X158461740Y-100896500D01*
X158461745Y-100896500D01*
X159703255Y-100896500D01*
X159703260Y-100896500D01*
X159771393Y-100886573D01*
X159876483Y-100835198D01*
X159959198Y-100752483D01*
X159959198Y-100752481D01*
X159963448Y-100748232D01*
X159991075Y-100733146D01*
X160017640Y-100716258D01*
X160021964Y-100716279D01*
X160025760Y-100714207D01*
X160057158Y-100716452D01*
X160088635Y-100716607D01*
X160092260Y-100718962D01*
X160096576Y-100719271D01*
X160121783Y-100738140D01*
X160148172Y-100755283D01*
X160149948Y-100759224D01*
X160153412Y-100761817D01*
X160164414Y-100791315D01*
X160177348Y-100820008D01*
X160177319Y-100825914D01*
X160178223Y-100828338D01*
X160177172Y-100855871D01*
X160176778Y-100858519D01*
X160146968Y-100922954D01*
X160141246Y-100929070D01*
X160080802Y-100989514D01*
X160080801Y-100989516D01*
X160055114Y-101042061D01*
X160029427Y-101094605D01*
X160019500Y-101162738D01*
X160019500Y-101529261D01*
X160029427Y-101597394D01*
X160043387Y-101625949D01*
X160080801Y-101702482D01*
X160080802Y-101702484D01*
X160080808Y-101702491D01*
X160163507Y-101785190D01*
X160163514Y-101785196D01*
X160163517Y-101785198D01*
X160268607Y-101836573D01*
X160336740Y-101846500D01*
X160998079Y-101846500D01*
X161033576Y-101851603D01*
X161049154Y-101856178D01*
X161059222Y-101859134D01*
X161112819Y-101890935D01*
X161853783Y-102631899D01*
X161875274Y-102660606D01*
X161888086Y-102684068D01*
X161903500Y-102744456D01*
X161903500Y-103574577D01*
X161903499Y-103574579D01*
X161903500Y-103574580D01*
X161898395Y-103610078D01*
X161890864Y-103635724D01*
X161859064Y-103689319D01*
X161351836Y-104196546D01*
X161323125Y-104218038D01*
X161309188Y-104225648D01*
X161239824Y-104240740D01*
X161235655Y-104240442D01*
X161231509Y-104240145D01*
X161183338Y-104226693D01*
X161170236Y-104227724D01*
X161131321Y-104219983D01*
X161131319Y-104219983D01*
X161131317Y-104219983D01*
X159991821Y-104219983D01*
X159991818Y-104219983D01*
X159991815Y-104219983D01*
X159933340Y-104231615D01*
X159933337Y-104231616D01*
X159933335Y-104231616D01*
X159933331Y-104231619D01*
X159867016Y-104275930D01*
X159822702Y-104342249D01*
X159820890Y-104348221D01*
X159820280Y-104354423D01*
X159819793Y-104356868D01*
X159819794Y-104356869D01*
X159811069Y-104400729D01*
X159811069Y-104400732D01*
X159811069Y-106940233D01*
X159820435Y-106987320D01*
X159822702Y-106998714D01*
X159867017Y-107065035D01*
X159933338Y-107109350D01*
X159991821Y-107120983D01*
X159991822Y-107120983D01*
X161131316Y-107120983D01*
X161131317Y-107120983D01*
X161189800Y-107109350D01*
X161256121Y-107065035D01*
X161300436Y-106998714D01*
X161312069Y-106940231D01*
X161312069Y-105085851D01*
X161317171Y-105050359D01*
X161324704Y-105024704D01*
X161356502Y-104971112D01*
X161583165Y-104744449D01*
X161611864Y-104722963D01*
X161621957Y-104717452D01*
X161691329Y-104702359D01*
X161757850Y-104727167D01*
X161800396Y-104783993D01*
X161803120Y-104791297D01*
X161811069Y-104835339D01*
X161811069Y-106940233D01*
X161820435Y-106987320D01*
X161822702Y-106998714D01*
X161867017Y-107065035D01*
X161933338Y-107109350D01*
X161991821Y-107120983D01*
X161991822Y-107120983D01*
X163131316Y-107120983D01*
X163131317Y-107120983D01*
X163189800Y-107109350D01*
X163199300Y-107103001D01*
X163267052Y-107081785D01*
X163335519Y-107100566D01*
X163382964Y-107153383D01*
X163387021Y-107162835D01*
X163389068Y-107168200D01*
X163389070Y-107168203D01*
X163432079Y-107248916D01*
X163478572Y-107302572D01*
X163496165Y-107320527D01*
X163496167Y-107320528D01*
X163575986Y-107365176D01*
X163634524Y-107382363D01*
X163644104Y-107385176D01*
X163681343Y-107390530D01*
X163745922Y-107420021D01*
X163784307Y-107479747D01*
X163784308Y-107550744D01*
X163745925Y-107610470D01*
X163687995Y-107638825D01*
X163628073Y-107650745D01*
X163628070Y-107650746D01*
X163482389Y-107711089D01*
X163351276Y-107798696D01*
X163351271Y-107798700D01*
X163239786Y-107910185D01*
X163239782Y-107910190D01*
X163152175Y-108041303D01*
X163091833Y-108186981D01*
X163091832Y-108186983D01*
X163091832Y-108186985D01*
X163061069Y-108341638D01*
X163061069Y-108341641D01*
X163061069Y-108499325D01*
X163091832Y-108653980D01*
X163152175Y-108799662D01*
X163239780Y-108930772D01*
X163351280Y-109042272D01*
X163482390Y-109129877D01*
X163628072Y-109190220D01*
X163782727Y-109220983D01*
X163782728Y-109220983D01*
X163940410Y-109220983D01*
X163940411Y-109220983D01*
X164095066Y-109190220D01*
X164240748Y-109129877D01*
X164371858Y-109042272D01*
X164483358Y-108930772D01*
X164570963Y-108799662D01*
X164631306Y-108653980D01*
X164662069Y-108499325D01*
X164662069Y-108341641D01*
X164631306Y-108186986D01*
X164570963Y-108041304D01*
X164483358Y-107910194D01*
X164371858Y-107798694D01*
X164240748Y-107711089D01*
X164095071Y-107650748D01*
X164095069Y-107650747D01*
X164095066Y-107650746D01*
X164095061Y-107650745D01*
X164056520Y-107643078D01*
X163993611Y-107610171D01*
X163958480Y-107548476D01*
X163962280Y-107477581D01*
X164003806Y-107419995D01*
X164069873Y-107394001D01*
X164081103Y-107393500D01*
X164979141Y-107393500D01*
X164979149Y-107393500D01*
X165032337Y-107386498D01*
X165095337Y-107369617D01*
X165144900Y-107349087D01*
X165225766Y-107302396D01*
X165256155Y-107289809D01*
X165273082Y-107285275D01*
X165273081Y-107285274D01*
X165299147Y-107278292D01*
X165331753Y-107274000D01*
X165376251Y-107274000D01*
X165408859Y-107278293D01*
X165434915Y-107285274D01*
X165451840Y-107289808D01*
X165482229Y-107302395D01*
X165524817Y-107326984D01*
X165542634Y-107335610D01*
X165551685Y-107339992D01*
X165551691Y-107339994D01*
X165551700Y-107339999D01*
X165551707Y-107340001D01*
X165551712Y-107340004D01*
X165559307Y-107343020D01*
X165585649Y-107353485D01*
X165672393Y-107367714D01*
X165743291Y-107363956D01*
X165768266Y-107361092D01*
X165852511Y-107325498D01*
X165910121Y-107284007D01*
X165922535Y-107272042D01*
X165985462Y-107239170D01*
X166056173Y-107245538D01*
X166112216Y-107289123D01*
X166135798Y-107356089D01*
X166134424Y-107382473D01*
X166119361Y-107477581D01*
X166111069Y-107529937D01*
X166111069Y-109311029D01*
X166139398Y-109489892D01*
X166195358Y-109662122D01*
X166195359Y-109662123D01*
X166277575Y-109823480D01*
X166382533Y-109967943D01*
X166382534Y-109967944D01*
X166384021Y-109969991D01*
X166512059Y-110098029D01*
X166512559Y-110098439D01*
X166514086Y-110099502D01*
X166658575Y-110204479D01*
X166819930Y-110286694D01*
X166992160Y-110342654D01*
X167171023Y-110370983D01*
X167171026Y-110370983D01*
X167352112Y-110370983D01*
X167352115Y-110370983D01*
X167530978Y-110342654D01*
X167703208Y-110286694D01*
X167829228Y-110222482D01*
X167863164Y-110210916D01*
X167877031Y-110208312D01*
X167947671Y-110215396D01*
X168003260Y-110259535D01*
X168003267Y-110259546D01*
X168003269Y-110259547D01*
X168003269Y-110259548D01*
X168005214Y-110262306D01*
X168026542Y-110314295D01*
X168026870Y-110316272D01*
X168028569Y-110336895D01*
X168028569Y-110933367D01*
X168028568Y-110933369D01*
X168028569Y-110933370D01*
X168023464Y-110968868D01*
X168018989Y-110984107D01*
X167980604Y-111043833D01*
X167980594Y-111043841D01*
X167979203Y-111045046D01*
X167923500Y-111072929D01*
X167915818Y-111074601D01*
X167889021Y-111077483D01*
X155173684Y-111077483D01*
X155173681Y-111077482D01*
X155173681Y-111077483D01*
X155138183Y-111072378D01*
X155122944Y-111067903D01*
X155063218Y-111029518D01*
X155063210Y-111029508D01*
X155062005Y-111028117D01*
X155034118Y-110972395D01*
X155032447Y-110964712D01*
X155029569Y-110937934D01*
X155029569Y-110303500D01*
X155034671Y-110268008D01*
X155038378Y-110255381D01*
X155076757Y-110195656D01*
X155141337Y-110166159D01*
X155206658Y-110174125D01*
X155215383Y-110177666D01*
X155242061Y-110192481D01*
X155258575Y-110204479D01*
X155419930Y-110286694D01*
X155592160Y-110342654D01*
X155771023Y-110370983D01*
X155771026Y-110370983D01*
X155952112Y-110370983D01*
X155952115Y-110370983D01*
X156130978Y-110342654D01*
X156303208Y-110286694D01*
X156464563Y-110204479D01*
X156611070Y-110098036D01*
X156739122Y-109969984D01*
X156845565Y-109823477D01*
X156927780Y-109662122D01*
X156983740Y-109489892D01*
X157012069Y-109311029D01*
X157012069Y-108341638D01*
X158461069Y-108341638D01*
X158461069Y-108341641D01*
X158461069Y-108499325D01*
X158491832Y-108653980D01*
X158552175Y-108799662D01*
X158639780Y-108930772D01*
X158751280Y-109042272D01*
X158882390Y-109129877D01*
X159028072Y-109190220D01*
X159182727Y-109220983D01*
X159182728Y-109220983D01*
X159340410Y-109220983D01*
X159340411Y-109220983D01*
X159495066Y-109190220D01*
X159640748Y-109129877D01*
X159771858Y-109042272D01*
X159883358Y-108930772D01*
X159970963Y-108799662D01*
X160031306Y-108653980D01*
X160062069Y-108499325D01*
X160062069Y-108341641D01*
X160031306Y-108186986D01*
X159970963Y-108041304D01*
X159883358Y-107910194D01*
X159771858Y-107798694D01*
X159640748Y-107711089D01*
X159495071Y-107650748D01*
X159495069Y-107650747D01*
X159495066Y-107650746D01*
X159340416Y-107619983D01*
X159340413Y-107619983D01*
X159340411Y-107619983D01*
X159182727Y-107619983D01*
X159182724Y-107619983D01*
X159182722Y-107619983D01*
X159088001Y-107638825D01*
X159028071Y-107650746D01*
X159028069Y-107650746D01*
X159028067Y-107650747D01*
X158882389Y-107711089D01*
X158751276Y-107798696D01*
X158751271Y-107798700D01*
X158639786Y-107910185D01*
X158639782Y-107910190D01*
X158552175Y-108041303D01*
X158491833Y-108186981D01*
X158491832Y-108186983D01*
X158491832Y-108186985D01*
X158461069Y-108341638D01*
X157012069Y-108341638D01*
X157012069Y-107529937D01*
X156983740Y-107351074D01*
X156927780Y-107178844D01*
X156845565Y-107017489D01*
X156789400Y-106940184D01*
X157311569Y-106940184D01*
X157323172Y-106998518D01*
X157323173Y-106998519D01*
X157367376Y-107064675D01*
X157392984Y-107081785D01*
X157433532Y-107108878D01*
X157491867Y-107120482D01*
X157491866Y-107120482D01*
X157491869Y-107120483D01*
X157491872Y-107120483D01*
X157861569Y-107120483D01*
X158261569Y-107120483D01*
X158631266Y-107120483D01*
X158631267Y-107120483D01*
X158632011Y-107120391D01*
X158634247Y-107119889D01*
X158689605Y-107108878D01*
X158755761Y-107064675D01*
X158799964Y-106998519D01*
X158811568Y-106940184D01*
X158811569Y-106940182D01*
X158811569Y-105870483D01*
X158261569Y-105870483D01*
X158261569Y-107120483D01*
X157861569Y-107120483D01*
X157861569Y-105870483D01*
X157311569Y-105870483D01*
X157311569Y-106940184D01*
X156789400Y-106940184D01*
X156739122Y-106870982D01*
X156739119Y-106870979D01*
X156739117Y-106870976D01*
X156739116Y-106870975D01*
X156739114Y-106870972D01*
X156611081Y-106742939D01*
X156610568Y-106742518D01*
X156609029Y-106741447D01*
X156464566Y-106636489D01*
X156464565Y-106636488D01*
X156464563Y-106636487D01*
X156303208Y-106554272D01*
X156303207Y-106554271D01*
X156303206Y-106554271D01*
X156303194Y-106554267D01*
X156131299Y-106498416D01*
X156130998Y-106498317D01*
X156130981Y-106498313D01*
X156130978Y-106498312D01*
X156123723Y-106497163D01*
X156106716Y-106494469D01*
X155952115Y-106469983D01*
X155952113Y-106469983D01*
X155771025Y-106469983D01*
X155771023Y-106469983D01*
X155688931Y-106482984D01*
X155606143Y-106496097D01*
X155606138Y-106496098D01*
X155592160Y-106498312D01*
X155592157Y-106498312D01*
X155592156Y-106498313D01*
X155582057Y-106501594D01*
X155582045Y-106501597D01*
X155419939Y-106554267D01*
X155419934Y-106554269D01*
X155258567Y-106636491D01*
X155122132Y-106735616D01*
X155122125Y-106735622D01*
X155112065Y-106742932D01*
X155112062Y-106742934D01*
X154984020Y-106870976D01*
X154984018Y-106870979D01*
X154976708Y-106881039D01*
X154976702Y-106881046D01*
X154877577Y-107017481D01*
X154795356Y-107178847D01*
X154749323Y-107320527D01*
X154739399Y-107351070D01*
X154711070Y-107529938D01*
X154711069Y-107529943D01*
X154711069Y-107729863D01*
X154711068Y-107729866D01*
X154711069Y-107729868D01*
X154708004Y-107751182D01*
X154705964Y-107765366D01*
X154702726Y-107776392D01*
X154664340Y-107836117D01*
X154599758Y-107865607D01*
X154529487Y-107855502D01*
X154529485Y-107855501D01*
X154529483Y-107855500D01*
X154522397Y-107852264D01*
X154485646Y-107826746D01*
X152079286Y-105420386D01*
X152079281Y-105420381D01*
X152057792Y-105391675D01*
X152044981Y-105368213D01*
X152029569Y-105307828D01*
X152029569Y-104400781D01*
X157311569Y-104400781D01*
X157311569Y-105470483D01*
X157861569Y-105470483D01*
X158261569Y-105470483D01*
X158811569Y-105470483D01*
X158811569Y-104400786D01*
X158811568Y-104400781D01*
X158799964Y-104342446D01*
X158755761Y-104276290D01*
X158703186Y-104241161D01*
X158689604Y-104232086D01*
X158631270Y-104220483D01*
X158261569Y-104220483D01*
X158261569Y-105470483D01*
X157861569Y-105470483D01*
X157861569Y-104220483D01*
X157491866Y-104220483D01*
X157433532Y-104232086D01*
X157367376Y-104276290D01*
X157323172Y-104342446D01*
X157311579Y-104400729D01*
X157311569Y-104400781D01*
X152029569Y-104400781D01*
X152029569Y-101922481D01*
X156427500Y-101922481D01*
X156427500Y-101922484D01*
X156427500Y-101933274D01*
X156427500Y-102385514D01*
X156442352Y-102479301D01*
X156499949Y-102592343D01*
X156589652Y-102682046D01*
X156589655Y-102682048D01*
X156589657Y-102682050D01*
X156596236Y-102685401D01*
X156596244Y-102685409D01*
X156596246Y-102685407D01*
X156702696Y-102739646D01*
X156796481Y-102754500D01*
X157409518Y-102754499D01*
X157503304Y-102739646D01*
X157616342Y-102682050D01*
X157706050Y-102592342D01*
X157745746Y-102514432D01*
X157759845Y-102492649D01*
X157762971Y-102488763D01*
X157764586Y-102487054D01*
X157764899Y-102486367D01*
X157769164Y-102481068D01*
X157773062Y-102478357D01*
X157786870Y-102463093D01*
X157788459Y-102461774D01*
X157788466Y-102461770D01*
X157788471Y-102461763D01*
X157790606Y-102459993D01*
X157819974Y-102441782D01*
X157822837Y-102440512D01*
X157856013Y-102430969D01*
X157857333Y-102430779D01*
X157875244Y-102429500D01*
X158010163Y-102429500D01*
X158045655Y-102434602D01*
X158060899Y-102439078D01*
X158120622Y-102477458D01*
X158124863Y-102482352D01*
X158150506Y-102538361D01*
X158151537Y-102538043D01*
X158153978Y-102545945D01*
X158154326Y-102546704D01*
X158154426Y-102547395D01*
X158205794Y-102652471D01*
X158205800Y-102652481D01*
X158205802Y-102652484D01*
X158205808Y-102652491D01*
X158288507Y-102735190D01*
X158288514Y-102735196D01*
X158288517Y-102735198D01*
X158393607Y-102786573D01*
X158461740Y-102796500D01*
X158461745Y-102796500D01*
X159703255Y-102796500D01*
X159703260Y-102796500D01*
X159771393Y-102786573D01*
X159876483Y-102735198D01*
X159959198Y-102652483D01*
X160010573Y-102547393D01*
X160020500Y-102479260D01*
X160020500Y-102112740D01*
X160010573Y-102044607D01*
X159959198Y-101939517D01*
X159959196Y-101939514D01*
X159959190Y-101939507D01*
X159876491Y-101856808D01*
X159876484Y-101856802D01*
X159876482Y-101856801D01*
X159858043Y-101847787D01*
X159771394Y-101805427D01*
X159721305Y-101798129D01*
X159703262Y-101795500D01*
X159703261Y-101795500D01*
X159703260Y-101795500D01*
X158461740Y-101795500D01*
X158461738Y-101795500D01*
X158461736Y-101795500D01*
X158393604Y-101805427D01*
X158301698Y-101850357D01*
X158287718Y-101856178D01*
X158258008Y-101866502D01*
X158243569Y-101871519D01*
X158202212Y-101878500D01*
X157884350Y-101878500D01*
X157848849Y-101873395D01*
X157832207Y-101868508D01*
X157774271Y-101832144D01*
X157765198Y-101822115D01*
X157746368Y-101794787D01*
X157744694Y-101791501D01*
X157706051Y-101715660D01*
X157706048Y-101715655D01*
X157706047Y-101715654D01*
X157706045Y-101715651D01*
X157616343Y-101625949D01*
X157540502Y-101587307D01*
X157503304Y-101568354D01*
X157503303Y-101568353D01*
X157503302Y-101568353D01*
X157439225Y-101558204D01*
X157409519Y-101553500D01*
X157409517Y-101553500D01*
X156796485Y-101553500D01*
X156796483Y-101553500D01*
X156773924Y-101557072D01*
X156702697Y-101568352D01*
X156589655Y-101625949D01*
X156499949Y-101715655D01*
X156478022Y-101758692D01*
X156459268Y-101795500D01*
X156442354Y-101828696D01*
X156427500Y-101922481D01*
X152029569Y-101922481D01*
X152029569Y-91831131D01*
X152049571Y-91763010D01*
X152103227Y-91716517D01*
X152173501Y-91706413D01*
X152238081Y-91735907D01*
X152250790Y-91750135D01*
X152251445Y-91749568D01*
X152256078Y-91754915D01*
X152256079Y-91754916D01*
X152302572Y-91808572D01*
X152320165Y-91826527D01*
X152320167Y-91826528D01*
X152399986Y-91871176D01*
X152458524Y-91888363D01*
X152468104Y-91891176D01*
X152526000Y-91899500D01*
X155964500Y-91899500D01*
X156032621Y-91919502D01*
X156079114Y-91973158D01*
X156090500Y-92025500D01*
X156090500Y-93385028D01*
X156087018Y-93414443D01*
X156080755Y-93440529D01*
X156074647Y-93459329D01*
X156069317Y-93472195D01*
X156068730Y-93479665D01*
X156054500Y-93569512D01*
X156054500Y-94136488D01*
X156057029Y-94152453D01*
X156070281Y-94236127D01*
X156079340Y-94253906D01*
X156079342Y-94253909D01*
X156131266Y-94355818D01*
X156131470Y-94356218D01*
X156131471Y-94356219D01*
X156131472Y-94356220D01*
X156226780Y-94451528D01*
X156346874Y-94512719D01*
X156446512Y-94528500D01*
X156446515Y-94528500D01*
X156963485Y-94528500D01*
X156963488Y-94528500D01*
X157063126Y-94512719D01*
X157183220Y-94451528D01*
X157278528Y-94356220D01*
X157339719Y-94236126D01*
X157352972Y-94152448D01*
X157358888Y-94139967D01*
X157363567Y-94118185D01*
X157366592Y-94111804D01*
X157378646Y-94098289D01*
X157383382Y-94088300D01*
X157392770Y-94082454D01*
X157413849Y-94058821D01*
X157482250Y-94039798D01*
X157550077Y-94060775D01*
X157576884Y-94092162D01*
X157587586Y-94101074D01*
X157589391Y-94106805D01*
X157595052Y-94113433D01*
X157597552Y-94118906D01*
X157607392Y-94151549D01*
X157620760Y-94235966D01*
X157681881Y-94355924D01*
X157777074Y-94451117D01*
X157777076Y-94451118D01*
X157897029Y-94512236D01*
X157996551Y-94527999D01*
X158455000Y-94527999D01*
X158513446Y-94527999D01*
X158513448Y-94527999D01*
X158612967Y-94512238D01*
X158732923Y-94451118D01*
X158828118Y-94355923D01*
X158889236Y-94235970D01*
X158902608Y-94151549D01*
X158905000Y-94136449D01*
X158905000Y-94053000D01*
X158455000Y-94053000D01*
X158455000Y-94527999D01*
X157996551Y-94527999D01*
X158054999Y-94527998D01*
X158055000Y-94527998D01*
X158055000Y-93653000D01*
X158455000Y-93653000D01*
X158904999Y-93653000D01*
X158904999Y-93569551D01*
X158889238Y-93470032D01*
X158828118Y-93350076D01*
X158828117Y-93350074D01*
X158732924Y-93254881D01*
X158612973Y-93193764D01*
X158612971Y-93193763D01*
X158612970Y-93193763D01*
X158513448Y-93178000D01*
X158513445Y-93178000D01*
X158455000Y-93178000D01*
X158455000Y-93653000D01*
X158055000Y-93653000D01*
X158055000Y-93178000D01*
X158054999Y-93177999D01*
X158054998Y-93177999D01*
X157996552Y-93177999D01*
X157897032Y-93193760D01*
X157777074Y-93254881D01*
X157681881Y-93350074D01*
X157620764Y-93470025D01*
X157620762Y-93470031D01*
X157607534Y-93553543D01*
X157601605Y-93566047D01*
X157596937Y-93587811D01*
X157593912Y-93594191D01*
X157581855Y-93607707D01*
X157577121Y-93617695D01*
X157567735Y-93623539D01*
X157546654Y-93647174D01*
X157478253Y-93666197D01*
X157410427Y-93645220D01*
X157383670Y-93613890D01*
X157372956Y-93604977D01*
X157371137Y-93599214D01*
X157365448Y-93592553D01*
X157362949Y-93587081D01*
X157353115Y-93554455D01*
X157339719Y-93469874D01*
X157278528Y-93349780D01*
X157183220Y-93254472D01*
X157183219Y-93254471D01*
X157183216Y-93254469D01*
X157169032Y-93247241D01*
X157162185Y-93242527D01*
X157159222Y-93238880D01*
X157147126Y-93230352D01*
X157134511Y-93218437D01*
X157099399Y-93159729D01*
X157095869Y-93146675D01*
X157091500Y-93113784D01*
X157091500Y-92025500D01*
X157111502Y-91957379D01*
X157165158Y-91910886D01*
X157217500Y-91899500D01*
X160401994Y-91899500D01*
X160402000Y-91899500D01*
X160445681Y-91894804D01*
X160498023Y-91883418D01*
X160508203Y-91880930D01*
X160588916Y-91837921D01*
X160642572Y-91791428D01*
X160660527Y-91773835D01*
X160705174Y-91694017D01*
X160705174Y-91694016D01*
X160705176Y-91694013D01*
X160725172Y-91625908D01*
X160725176Y-91625896D01*
X160733500Y-91568000D01*
X160733500Y-87883000D01*
X160728804Y-87839319D01*
X160717418Y-87786977D01*
X160714930Y-87776797D01*
X160671921Y-87696084D01*
X160625428Y-87642428D01*
X160607835Y-87624473D01*
X160607832Y-87624471D01*
X160528013Y-87579823D01*
X160459908Y-87559827D01*
X160459899Y-87559825D01*
X160459896Y-87559824D01*
X160402000Y-87551500D01*
X160401997Y-87551500D01*
X152525993Y-87551500D01*
X152482318Y-87556196D01*
X152468054Y-87559299D01*
X152429977Y-87567582D01*
X152429965Y-87567584D01*
X152429960Y-87567586D01*
X152425562Y-87568661D01*
X152419797Y-87570070D01*
X152339084Y-87613079D01*
X152339081Y-87613081D01*
X152339080Y-87613082D01*
X152285433Y-87659567D01*
X152267472Y-87677165D01*
X152265535Y-87680630D01*
X152262696Y-87683410D01*
X152261997Y-87684326D01*
X152261865Y-87684225D01*
X152214823Y-87730317D01*
X152145298Y-87744700D01*
X152079035Y-87719212D01*
X152037070Y-87661945D01*
X152029569Y-87619119D01*
X152029569Y-84728089D01*
X152034673Y-84692591D01*
X152038646Y-84679060D01*
X152077029Y-84619334D01*
X152141593Y-84589843D01*
X152143230Y-84589608D01*
X152202374Y-84595249D01*
X152207191Y-84596917D01*
X152228982Y-84606867D01*
X152333814Y-84667392D01*
X152461108Y-84701500D01*
X152461110Y-84701500D01*
X152592890Y-84701500D01*
X152592892Y-84701500D01*
X152720186Y-84667392D01*
X152834314Y-84601500D01*
X152927500Y-84508314D01*
X152993392Y-84394186D01*
X153027500Y-84266892D01*
X153027500Y-84135108D01*
X152993392Y-84007814D01*
X152959495Y-83949103D01*
X152927502Y-83893689D01*
X152927494Y-83893679D01*
X152927486Y-83893671D01*
X152927479Y-83893663D01*
X152834335Y-83800519D01*
X152834326Y-83800511D01*
X152834320Y-83800505D01*
X152834310Y-83800497D01*
X152735746Y-83743592D01*
X152719670Y-83732569D01*
X152714317Y-83728254D01*
X152714318Y-83728254D01*
X152697857Y-83714983D01*
X152657380Y-83656662D01*
X152653008Y-83643517D01*
X152646569Y-83603754D01*
X152646569Y-81236098D01*
X152651672Y-81200604D01*
X152656146Y-81185365D01*
X152665945Y-81170115D01*
X152671054Y-81152725D01*
X152694513Y-81125658D01*
X152694525Y-81125639D01*
X152695934Y-81124419D01*
X152751655Y-81096532D01*
X152759339Y-81094861D01*
X152786117Y-81091983D01*
X153476454Y-81091983D01*
X153511946Y-81097085D01*
X153527190Y-81101561D01*
X153542437Y-81111359D01*
X153559826Y-81116468D01*
X153586898Y-81139932D01*
X153586915Y-81139943D01*
X153586927Y-81139957D01*
X153588132Y-81141348D01*
X153616015Y-81197055D01*
X153617687Y-81204738D01*
X153620569Y-81231531D01*
X153620569Y-81475072D01*
X153615464Y-81510573D01*
X153610077Y-81528918D01*
X153601598Y-81542828D01*
X153598302Y-81556416D01*
X153576133Y-81584607D01*
X153568475Y-81591909D01*
X153544525Y-81609838D01*
X153489684Y-81641500D01*
X153489683Y-81641501D01*
X153489665Y-81641517D01*
X153396519Y-81734663D01*
X153396496Y-81734689D01*
X153396495Y-81734690D01*
X153330614Y-81848800D01*
X153330609Y-81848810D01*
X153330607Y-81848816D01*
X153296500Y-81976109D01*
X153296500Y-82107892D01*
X153321466Y-82201070D01*
X153330607Y-82235185D01*
X153330608Y-82235186D01*
X153330610Y-82235190D01*
X153396497Y-82349310D01*
X153396505Y-82349320D01*
X153396511Y-82349326D01*
X153396519Y-82349335D01*
X153489675Y-82442491D01*
X153489679Y-82442494D01*
X153489684Y-82442498D01*
X153489686Y-82442500D01*
X153603814Y-82508392D01*
X153731108Y-82542500D01*
X153731110Y-82542500D01*
X153862890Y-82542500D01*
X153862892Y-82542500D01*
X153990186Y-82508392D01*
X154104314Y-82442500D01*
X154197500Y-82349314D01*
X154263392Y-82235186D01*
X154297500Y-82107892D01*
X154297500Y-81976108D01*
X154263392Y-81848814D01*
X154202538Y-81743413D01*
X154194133Y-81725843D01*
X154180043Y-81689390D01*
X154171569Y-81643963D01*
X154171569Y-81236098D01*
X154176672Y-81200604D01*
X154181146Y-81185365D01*
X154219525Y-81125639D01*
X154220934Y-81124419D01*
X154276655Y-81096532D01*
X154284339Y-81094861D01*
X154311117Y-81091983D01*
X155165816Y-81091983D01*
X155165817Y-81091983D01*
X155224300Y-81080350D01*
X155290621Y-81036035D01*
X155334936Y-80969714D01*
X155346569Y-80911231D01*
X155346569Y-79871735D01*
X155334936Y-79813252D01*
X155290621Y-79746931D01*
X155290620Y-79746930D01*
X155224303Y-79702617D01*
X155224299Y-79702615D01*
X155165821Y-79690983D01*
X155165819Y-79690983D01*
X155165817Y-79690983D01*
X152790684Y-79690983D01*
X152790681Y-79690982D01*
X152790681Y-79690983D01*
X152755183Y-79685878D01*
X152739944Y-79681403D01*
X152680218Y-79643018D01*
X152680210Y-79643008D01*
X152679005Y-79641617D01*
X152651118Y-79585895D01*
X152649447Y-79578212D01*
X152646569Y-79551434D01*
X152646569Y-78100901D01*
X152650901Y-78068144D01*
X152651261Y-78066804D01*
X152655353Y-78052869D01*
X152656782Y-78046299D01*
X152657575Y-78043355D01*
X152674552Y-78015576D01*
X152690138Y-77987027D01*
X152707222Y-77969943D01*
X152735923Y-77948457D01*
X152759255Y-77935717D01*
X152820493Y-77920308D01*
X166463139Y-78013235D01*
G37*
%TD.AperFunction*%
%TA.AperFunction,Conductor*%
G36*
X170975349Y-87572866D02*
G01*
X171017896Y-87629693D01*
X171020620Y-87636997D01*
X171028569Y-87681039D01*
X171028569Y-102792500D01*
X171008567Y-102860621D01*
X170954911Y-102907114D01*
X170902569Y-102918500D01*
X166556015Y-102918500D01*
X166524812Y-102920883D01*
X166524809Y-102920883D01*
X166524801Y-102920884D01*
X166486990Y-102926693D01*
X166403785Y-102959103D01*
X166403784Y-102959104D01*
X166344809Y-102998630D01*
X166301349Y-103037780D01*
X166301348Y-103037781D01*
X165803530Y-103635163D01*
X165744554Y-103674690D01*
X165706734Y-103680500D01*
X165363319Y-103680500D01*
X165295198Y-103660498D01*
X165248705Y-103606842D01*
X165238601Y-103536568D01*
X165239171Y-103534110D01*
X165239094Y-103534098D01*
X165240644Y-103524306D01*
X165240646Y-103524304D01*
X165255500Y-103430519D01*
X165255499Y-102817482D01*
X165240646Y-102723696D01*
X165183050Y-102610658D01*
X165180912Y-102606461D01*
X165180828Y-102606297D01*
X165174410Y-102591416D01*
X165162826Y-102558949D01*
X165155500Y-102516611D01*
X165155500Y-102210316D01*
X165160602Y-102174824D01*
X165169376Y-102144941D01*
X165178003Y-102123246D01*
X165183048Y-102113342D01*
X165183050Y-102113342D01*
X165240646Y-102000304D01*
X165255500Y-101906519D01*
X165255499Y-101511614D01*
X165257324Y-101498925D01*
X165260603Y-101476116D01*
X165262956Y-101468105D01*
X165265078Y-101460875D01*
X165303438Y-101401170D01*
X165304833Y-101399962D01*
X165360596Y-101372046D01*
X165364479Y-101371202D01*
X165368280Y-101370376D01*
X165395046Y-101367500D01*
X166439581Y-101367500D01*
X166472339Y-101371833D01*
X166473716Y-101372203D01*
X166487610Y-101376283D01*
X166494157Y-101377707D01*
X166497127Y-101378507D01*
X166524897Y-101395479D01*
X166553464Y-101411079D01*
X166581783Y-101439398D01*
X166603274Y-101468105D01*
X166616086Y-101491567D01*
X166631500Y-101551955D01*
X166631500Y-102220761D01*
X166641427Y-102288894D01*
X166688661Y-102385514D01*
X166692801Y-102393982D01*
X166692802Y-102393984D01*
X166692808Y-102393991D01*
X166775507Y-102476690D01*
X166775514Y-102476696D01*
X166775517Y-102476698D01*
X166880607Y-102528073D01*
X166948740Y-102538000D01*
X166948745Y-102538000D01*
X167315255Y-102538000D01*
X167315260Y-102538000D01*
X167383393Y-102528073D01*
X167488483Y-102476698D01*
X167571198Y-102393983D01*
X167622573Y-102288893D01*
X167632500Y-102220760D01*
X167632500Y-100979240D01*
X167622573Y-100911107D01*
X167571198Y-100806017D01*
X167571196Y-100806014D01*
X167571190Y-100806007D01*
X167488491Y-100723308D01*
X167488484Y-100723302D01*
X167488482Y-100723301D01*
X167470442Y-100714482D01*
X167383394Y-100671927D01*
X167337972Y-100665309D01*
X167315262Y-100662000D01*
X167315261Y-100662000D01*
X167315260Y-100662000D01*
X167299619Y-100662000D01*
X167265795Y-100657375D01*
X167264936Y-100657135D01*
X167259911Y-100655660D01*
X167259547Y-100655634D01*
X167253465Y-100653939D01*
X167228102Y-100638130D01*
X167201380Y-100624736D01*
X167198315Y-100619564D01*
X167193214Y-100616385D01*
X167180421Y-100589368D01*
X167165186Y-100563658D01*
X167165402Y-100557649D01*
X167162831Y-100552218D01*
X167166667Y-100522640D01*
X167167311Y-100504810D01*
X167164686Y-100504240D01*
X167165047Y-100502578D01*
X167167557Y-100497976D01*
X167167747Y-100492742D01*
X167168273Y-100491163D01*
X167170647Y-100491953D01*
X167171963Y-100481811D01*
X167184491Y-100466941D01*
X167199050Y-100440259D01*
X167354503Y-100284806D01*
X167383203Y-100263320D01*
X167394557Y-100257121D01*
X167463927Y-100242028D01*
X167530448Y-100266836D01*
X167571303Y-100319371D01*
X167575037Y-100328360D01*
X167583360Y-100358528D01*
X167591427Y-100413894D01*
X167629973Y-100492742D01*
X167642801Y-100518982D01*
X167642802Y-100518984D01*
X167642808Y-100518991D01*
X167725507Y-100601690D01*
X167725514Y-100601696D01*
X167725517Y-100601698D01*
X167830607Y-100653073D01*
X167898740Y-100663000D01*
X167898745Y-100663000D01*
X168265255Y-100663000D01*
X168265260Y-100663000D01*
X168333393Y-100653073D01*
X168438483Y-100601698D01*
X168521198Y-100518983D01*
X168572573Y-100413893D01*
X168582500Y-100345760D01*
X168582500Y-99104240D01*
X168572573Y-99036107D01*
X168521198Y-98931017D01*
X168521196Y-98931014D01*
X168521190Y-98931007D01*
X168438486Y-98848303D01*
X168429987Y-98842235D01*
X168430397Y-98841660D01*
X168414785Y-98831035D01*
X168408725Y-98825498D01*
X168402394Y-98819714D01*
X168366030Y-98760590D01*
X168362145Y-98746683D01*
X168357500Y-98712788D01*
X168357500Y-98467077D01*
X168362601Y-98431589D01*
X168368979Y-98409865D01*
X168398271Y-98358851D01*
X168400869Y-98356102D01*
X168400868Y-98356101D01*
X168417986Y-98337978D01*
X168420429Y-98335463D01*
X168497048Y-98258844D01*
X168497050Y-98258842D01*
X168554646Y-98145804D01*
X168569500Y-98052019D01*
X168569499Y-97438982D01*
X168561115Y-97386049D01*
X168560605Y-97350194D01*
X168563209Y-97330049D01*
X168591778Y-97265055D01*
X168631454Y-97236015D01*
X168631412Y-97235952D01*
X168632898Y-97234958D01*
X168639959Y-97229790D01*
X168641731Y-97229057D01*
X168719230Y-97151558D01*
X168778755Y-97092033D01*
X168778757Y-97092029D01*
X169337557Y-96533232D01*
X169349841Y-96503573D01*
X169379500Y-96431973D01*
X169379500Y-95846027D01*
X169337557Y-95744769D01*
X169260058Y-95667270D01*
X167711212Y-94118424D01*
X167689723Y-94089718D01*
X167676912Y-94066256D01*
X167661500Y-94005871D01*
X167661500Y-91230334D01*
X167666604Y-91194836D01*
X167670577Y-91181305D01*
X167708960Y-91121579D01*
X167773540Y-91092086D01*
X167784328Y-91090535D01*
X167811701Y-91091754D01*
X167811701Y-91091483D01*
X168896069Y-91091483D01*
X169296069Y-91091483D01*
X170365766Y-91091483D01*
X170365767Y-91091483D01*
X170366511Y-91091391D01*
X170368747Y-91090889D01*
X170424105Y-91079878D01*
X170490261Y-91035675D01*
X170534464Y-90969519D01*
X170546068Y-90911184D01*
X170546069Y-90911182D01*
X170546069Y-90591483D01*
X169296069Y-90591483D01*
X169296069Y-91091483D01*
X168896069Y-91091483D01*
X168896069Y-90191483D01*
X169296069Y-90191483D01*
X170546069Y-90191483D01*
X170546069Y-89871786D01*
X170546068Y-89871781D01*
X170534464Y-89813446D01*
X170490261Y-89747290D01*
X170424105Y-89703087D01*
X170424104Y-89703086D01*
X170365770Y-89691483D01*
X169296069Y-89691483D01*
X169296069Y-90191483D01*
X168896069Y-90191483D01*
X168896069Y-89691483D01*
X167826365Y-89691483D01*
X167820203Y-89692090D01*
X167820126Y-89691311D01*
X167794032Y-89692709D01*
X167779989Y-89691452D01*
X167713922Y-89665457D01*
X167672398Y-89607870D01*
X167672397Y-89607866D01*
X167668677Y-89597319D01*
X167661500Y-89555403D01*
X167661500Y-89230844D01*
X167666604Y-89195346D01*
X167670577Y-89181815D01*
X167680369Y-89166577D01*
X167685472Y-89149197D01*
X167699164Y-89137331D01*
X167708960Y-89122089D01*
X167725437Y-89114563D01*
X167739125Y-89102702D01*
X167773529Y-89092597D01*
X167784613Y-89091004D01*
X167820100Y-89091956D01*
X167820158Y-89091376D01*
X167826320Y-89091983D01*
X167826321Y-89091983D01*
X167826322Y-89091983D01*
X170365816Y-89091983D01*
X170365817Y-89091983D01*
X170424300Y-89080350D01*
X170490621Y-89036035D01*
X170534936Y-88969714D01*
X170546569Y-88911231D01*
X170546569Y-87871735D01*
X170546569Y-87857064D01*
X170546722Y-87857064D01*
X170545840Y-87840629D01*
X170545957Y-87839319D01*
X170547176Y-87825691D01*
X170573155Y-87759642D01*
X170575188Y-87757025D01*
X170621896Y-87719909D01*
X170643883Y-87709760D01*
X170648403Y-87703917D01*
X170659312Y-87696844D01*
X170668412Y-87691590D01*
X170741314Y-87649500D01*
X170753314Y-87637500D01*
X170800667Y-87590147D01*
X170800671Y-87590145D01*
X170829363Y-87568664D01*
X170839458Y-87563152D01*
X170857163Y-87559299D01*
X170862978Y-87556125D01*
X170869583Y-87556597D01*
X170908828Y-87548059D01*
X170975349Y-87572866D01*
G37*
%TD.AperFunction*%
%TA.AperFunction,Conductor*%
G36*
X167385846Y-94631352D02*
G01*
X167415011Y-94630293D01*
X167420164Y-94631605D01*
X167424339Y-94633980D01*
X167427582Y-94634202D01*
X167436887Y-94641120D01*
X167478172Y-94664614D01*
X168778783Y-95965225D01*
X168798883Y-95991452D01*
X168799602Y-95992701D01*
X168806539Y-96005405D01*
X168810161Y-96011041D01*
X168811695Y-96013705D01*
X168819327Y-96045334D01*
X168828500Y-96076563D01*
X168828500Y-96192750D01*
X168823395Y-96228251D01*
X168815864Y-96253897D01*
X168784065Y-96307491D01*
X168421274Y-96670283D01*
X168392566Y-96691774D01*
X168369104Y-96704586D01*
X168308716Y-96720000D01*
X167014200Y-96720000D01*
X166942599Y-96749658D01*
X166942598Y-96749658D01*
X166912943Y-96761940D01*
X166912938Y-96761944D01*
X166654600Y-97020282D01*
X166654599Y-97020285D01*
X166625891Y-97041776D01*
X166602428Y-97054587D01*
X166542045Y-97070000D01*
X166087483Y-97070000D01*
X166064924Y-97073572D01*
X165993697Y-97084852D01*
X165880655Y-97142449D01*
X165797410Y-97225694D01*
X165797409Y-97225697D01*
X165797405Y-97225699D01*
X165797404Y-97225701D01*
X165783712Y-97235952D01*
X165768700Y-97247191D01*
X165758614Y-97252699D01*
X165689240Y-97267793D01*
X165622719Y-97242986D01*
X165580170Y-97186154D01*
X165577443Y-97178843D01*
X165569500Y-97134813D01*
X165569500Y-96459248D01*
X165574602Y-96423756D01*
X165582135Y-96398101D01*
X165613932Y-96344510D01*
X166291173Y-95667270D01*
X167269557Y-94688886D01*
X167269559Y-94688880D01*
X167269839Y-94688460D01*
X167278389Y-94679855D01*
X167279812Y-94680806D01*
X167289911Y-94668258D01*
X167294548Y-94663592D01*
X167320107Y-94649528D01*
X167344070Y-94632870D01*
X167350828Y-94632624D01*
X167356751Y-94629366D01*
X167385846Y-94631352D01*
G37*
%TD.AperFunction*%
%TD*%
M02*
