%TF.GenerationSoftware,KiCad,Pcbnew,10.0.4*%
%TF.CreationDate,2026-07-05T18:30:16+03:00*%
%TF.ProjectId,Midea WiFi Dongle,4d696465-6120-4576-9946-6920446f6e67,1*%
%TF.SameCoordinates,Original*%
%TF.FileFunction,Legend,Bot*%
%TF.FilePolarity,Positive*%
%FSLAX46Y46*%
G04 Gerber Fmt 4.6, Leading zero omitted, Abs format (unit mm)*
G04 Created by KiCad (PCBNEW 10.0.4) date 2026-07-05 18:30:16*
%MOMM*%
%LPD*%
G01*
G04 APERTURE LIST*
%ADD10C,0.152400*%
%ADD11C,0.150000*%
%ADD12C,0.120000*%
G04 APERTURE END LIST*
D10*
X167494170Y-80300739D02*
X166694170Y-80300739D01*
X166694170Y-80300739D02*
X166694170Y-80605501D01*
X166694170Y-80605501D02*
X166732265Y-80681691D01*
X166732265Y-80681691D02*
X166770360Y-80719786D01*
X166770360Y-80719786D02*
X166846551Y-80757882D01*
X166846551Y-80757882D02*
X166960836Y-80757882D01*
X166960836Y-80757882D02*
X167037027Y-80719786D01*
X167037027Y-80719786D02*
X167075122Y-80681691D01*
X167075122Y-80681691D02*
X167113217Y-80605501D01*
X167113217Y-80605501D02*
X167113217Y-80300739D01*
X167494170Y-81557882D02*
X167113217Y-81291215D01*
X167494170Y-81100739D02*
X166694170Y-81100739D01*
X166694170Y-81100739D02*
X166694170Y-81405501D01*
X166694170Y-81405501D02*
X166732265Y-81481691D01*
X166732265Y-81481691D02*
X166770360Y-81519786D01*
X166770360Y-81519786D02*
X166846551Y-81557882D01*
X166846551Y-81557882D02*
X166960836Y-81557882D01*
X166960836Y-81557882D02*
X167037027Y-81519786D01*
X167037027Y-81519786D02*
X167075122Y-81481691D01*
X167075122Y-81481691D02*
X167113217Y-81405501D01*
X167113217Y-81405501D02*
X167113217Y-81100739D01*
X166694170Y-82053120D02*
X166694170Y-82205501D01*
X166694170Y-82205501D02*
X166732265Y-82281691D01*
X166732265Y-82281691D02*
X166808455Y-82357882D01*
X166808455Y-82357882D02*
X166960836Y-82395977D01*
X166960836Y-82395977D02*
X167227503Y-82395977D01*
X167227503Y-82395977D02*
X167379884Y-82357882D01*
X167379884Y-82357882D02*
X167456075Y-82281691D01*
X167456075Y-82281691D02*
X167494170Y-82205501D01*
X167494170Y-82205501D02*
X167494170Y-82053120D01*
X167494170Y-82053120D02*
X167456075Y-81976929D01*
X167456075Y-81976929D02*
X167379884Y-81900739D01*
X167379884Y-81900739D02*
X167227503Y-81862643D01*
X167227503Y-81862643D02*
X166960836Y-81862643D01*
X166960836Y-81862643D02*
X166808455Y-81900739D01*
X166808455Y-81900739D02*
X166732265Y-81976929D01*
X166732265Y-81976929D02*
X166694170Y-82053120D01*
X166732265Y-83157881D02*
X166694170Y-83081691D01*
X166694170Y-83081691D02*
X166694170Y-82967405D01*
X166694170Y-82967405D02*
X166732265Y-82853119D01*
X166732265Y-82853119D02*
X166808455Y-82776929D01*
X166808455Y-82776929D02*
X166884646Y-82738834D01*
X166884646Y-82738834D02*
X167037027Y-82700738D01*
X167037027Y-82700738D02*
X167151313Y-82700738D01*
X167151313Y-82700738D02*
X167303694Y-82738834D01*
X167303694Y-82738834D02*
X167379884Y-82776929D01*
X167379884Y-82776929D02*
X167456075Y-82853119D01*
X167456075Y-82853119D02*
X167494170Y-82967405D01*
X167494170Y-82967405D02*
X167494170Y-83043596D01*
X167494170Y-83043596D02*
X167456075Y-83157881D01*
X167456075Y-83157881D02*
X167417979Y-83195977D01*
X167417979Y-83195977D02*
X167151313Y-83195977D01*
X167151313Y-83195977D02*
X167151313Y-83043596D01*
X156068548Y-77188193D02*
X156068548Y-76388193D01*
X156068548Y-76388193D02*
X155801882Y-76959621D01*
X155801882Y-76959621D02*
X155535215Y-76388193D01*
X155535215Y-76388193D02*
X155535215Y-77188193D01*
X155154262Y-77188193D02*
X155154262Y-76388193D01*
X154773310Y-77188193D02*
X154773310Y-76388193D01*
X154773310Y-76388193D02*
X154582834Y-76388193D01*
X154582834Y-76388193D02*
X154468548Y-76426288D01*
X154468548Y-76426288D02*
X154392358Y-76502478D01*
X154392358Y-76502478D02*
X154354263Y-76578669D01*
X154354263Y-76578669D02*
X154316167Y-76731050D01*
X154316167Y-76731050D02*
X154316167Y-76845336D01*
X154316167Y-76845336D02*
X154354263Y-76997717D01*
X154354263Y-76997717D02*
X154392358Y-77073907D01*
X154392358Y-77073907D02*
X154468548Y-77150098D01*
X154468548Y-77150098D02*
X154582834Y-77188193D01*
X154582834Y-77188193D02*
X154773310Y-77188193D01*
X153973310Y-76769145D02*
X153706644Y-76769145D01*
X153592358Y-77188193D02*
X153973310Y-77188193D01*
X153973310Y-77188193D02*
X153973310Y-76388193D01*
X153973310Y-76388193D02*
X153592358Y-76388193D01*
X153287596Y-76959621D02*
X152906643Y-76959621D01*
X153363786Y-77188193D02*
X153097119Y-76388193D01*
X153097119Y-76388193D02*
X152830453Y-77188193D01*
X156639978Y-78476148D02*
X156639978Y-77676148D01*
X156639978Y-77676148D02*
X156449502Y-77676148D01*
X156449502Y-77676148D02*
X156335216Y-77714243D01*
X156335216Y-77714243D02*
X156259026Y-77790433D01*
X156259026Y-77790433D02*
X156220931Y-77866624D01*
X156220931Y-77866624D02*
X156182835Y-78019005D01*
X156182835Y-78019005D02*
X156182835Y-78133291D01*
X156182835Y-78133291D02*
X156220931Y-78285672D01*
X156220931Y-78285672D02*
X156259026Y-78361862D01*
X156259026Y-78361862D02*
X156335216Y-78438053D01*
X156335216Y-78438053D02*
X156449502Y-78476148D01*
X156449502Y-78476148D02*
X156639978Y-78476148D01*
X155725693Y-78476148D02*
X155801883Y-78438053D01*
X155801883Y-78438053D02*
X155839978Y-78399957D01*
X155839978Y-78399957D02*
X155878074Y-78323767D01*
X155878074Y-78323767D02*
X155878074Y-78095195D01*
X155878074Y-78095195D02*
X155839978Y-78019005D01*
X155839978Y-78019005D02*
X155801883Y-77980910D01*
X155801883Y-77980910D02*
X155725693Y-77942814D01*
X155725693Y-77942814D02*
X155611407Y-77942814D01*
X155611407Y-77942814D02*
X155535216Y-77980910D01*
X155535216Y-77980910D02*
X155497121Y-78019005D01*
X155497121Y-78019005D02*
X155459026Y-78095195D01*
X155459026Y-78095195D02*
X155459026Y-78323767D01*
X155459026Y-78323767D02*
X155497121Y-78399957D01*
X155497121Y-78399957D02*
X155535216Y-78438053D01*
X155535216Y-78438053D02*
X155611407Y-78476148D01*
X155611407Y-78476148D02*
X155725693Y-78476148D01*
X155116168Y-77942814D02*
X155116168Y-78476148D01*
X155116168Y-78019005D02*
X155078073Y-77980910D01*
X155078073Y-77980910D02*
X155001883Y-77942814D01*
X155001883Y-77942814D02*
X154887597Y-77942814D01*
X154887597Y-77942814D02*
X154811406Y-77980910D01*
X154811406Y-77980910D02*
X154773311Y-78057100D01*
X154773311Y-78057100D02*
X154773311Y-78476148D01*
X154049501Y-77942814D02*
X154049501Y-78590433D01*
X154049501Y-78590433D02*
X154087596Y-78666624D01*
X154087596Y-78666624D02*
X154125692Y-78704719D01*
X154125692Y-78704719D02*
X154201882Y-78742814D01*
X154201882Y-78742814D02*
X154316168Y-78742814D01*
X154316168Y-78742814D02*
X154392358Y-78704719D01*
X154049501Y-78438053D02*
X154125692Y-78476148D01*
X154125692Y-78476148D02*
X154278073Y-78476148D01*
X154278073Y-78476148D02*
X154354263Y-78438053D01*
X154354263Y-78438053D02*
X154392358Y-78399957D01*
X154392358Y-78399957D02*
X154430454Y-78323767D01*
X154430454Y-78323767D02*
X154430454Y-78095195D01*
X154430454Y-78095195D02*
X154392358Y-78019005D01*
X154392358Y-78019005D02*
X154354263Y-77980910D01*
X154354263Y-77980910D02*
X154278073Y-77942814D01*
X154278073Y-77942814D02*
X154125692Y-77942814D01*
X154125692Y-77942814D02*
X154049501Y-77980910D01*
X153554263Y-78476148D02*
X153630453Y-78438053D01*
X153630453Y-78438053D02*
X153668548Y-78361862D01*
X153668548Y-78361862D02*
X153668548Y-77676148D01*
X152944738Y-78438053D02*
X153020929Y-78476148D01*
X153020929Y-78476148D02*
X153173310Y-78476148D01*
X153173310Y-78476148D02*
X153249500Y-78438053D01*
X153249500Y-78438053D02*
X153287596Y-78361862D01*
X153287596Y-78361862D02*
X153287596Y-78057100D01*
X153287596Y-78057100D02*
X153249500Y-77980910D01*
X153249500Y-77980910D02*
X153173310Y-77942814D01*
X153173310Y-77942814D02*
X153020929Y-77942814D01*
X153020929Y-77942814D02*
X152944738Y-77980910D01*
X152944738Y-77980910D02*
X152906643Y-78057100D01*
X152906643Y-78057100D02*
X152906643Y-78133291D01*
X152906643Y-78133291D02*
X153287596Y-78209481D01*
X170194117Y-76976024D02*
X170232213Y-77014120D01*
X170232213Y-77014120D02*
X170346498Y-77052215D01*
X170346498Y-77052215D02*
X170422689Y-77052215D01*
X170422689Y-77052215D02*
X170536975Y-77014120D01*
X170536975Y-77014120D02*
X170613165Y-76937929D01*
X170613165Y-76937929D02*
X170651260Y-76861739D01*
X170651260Y-76861739D02*
X170689356Y-76709358D01*
X170689356Y-76709358D02*
X170689356Y-76595072D01*
X170689356Y-76595072D02*
X170651260Y-76442691D01*
X170651260Y-76442691D02*
X170613165Y-76366500D01*
X170613165Y-76366500D02*
X170536975Y-76290310D01*
X170536975Y-76290310D02*
X170422689Y-76252215D01*
X170422689Y-76252215D02*
X170346498Y-76252215D01*
X170346498Y-76252215D02*
X170232213Y-76290310D01*
X170232213Y-76290310D02*
X170194117Y-76328405D01*
X169736975Y-77052215D02*
X169813165Y-77014120D01*
X169813165Y-77014120D02*
X169851260Y-76976024D01*
X169851260Y-76976024D02*
X169889356Y-76899834D01*
X169889356Y-76899834D02*
X169889356Y-76671262D01*
X169889356Y-76671262D02*
X169851260Y-76595072D01*
X169851260Y-76595072D02*
X169813165Y-76556977D01*
X169813165Y-76556977D02*
X169736975Y-76518881D01*
X169736975Y-76518881D02*
X169622689Y-76518881D01*
X169622689Y-76518881D02*
X169546498Y-76556977D01*
X169546498Y-76556977D02*
X169508403Y-76595072D01*
X169508403Y-76595072D02*
X169470308Y-76671262D01*
X169470308Y-76671262D02*
X169470308Y-76899834D01*
X169470308Y-76899834D02*
X169508403Y-76976024D01*
X169508403Y-76976024D02*
X169546498Y-77014120D01*
X169546498Y-77014120D02*
X169622689Y-77052215D01*
X169622689Y-77052215D02*
X169736975Y-77052215D01*
X169127450Y-76518881D02*
X169127450Y-77318881D01*
X169127450Y-76556977D02*
X169051260Y-76518881D01*
X169051260Y-76518881D02*
X168898879Y-76518881D01*
X168898879Y-76518881D02*
X168822688Y-76556977D01*
X168822688Y-76556977D02*
X168784593Y-76595072D01*
X168784593Y-76595072D02*
X168746498Y-76671262D01*
X168746498Y-76671262D02*
X168746498Y-76899834D01*
X168746498Y-76899834D02*
X168784593Y-76976024D01*
X168784593Y-76976024D02*
X168822688Y-77014120D01*
X168822688Y-77014120D02*
X168898879Y-77052215D01*
X168898879Y-77052215D02*
X169051260Y-77052215D01*
X169051260Y-77052215D02*
X169127450Y-77014120D01*
X168479831Y-76518881D02*
X168289355Y-77052215D01*
X168098878Y-76518881D02*
X168289355Y-77052215D01*
X168289355Y-77052215D02*
X168365545Y-77242691D01*
X168365545Y-77242691D02*
X168403640Y-77280786D01*
X168403640Y-77280786D02*
X168479831Y-77318881D01*
X167794116Y-77052215D02*
X167794116Y-76518881D01*
X167794116Y-76671262D02*
X167756021Y-76595072D01*
X167756021Y-76595072D02*
X167717926Y-76556977D01*
X167717926Y-76556977D02*
X167641735Y-76518881D01*
X167641735Y-76518881D02*
X167565545Y-76518881D01*
X167298878Y-77052215D02*
X167298878Y-76518881D01*
X167298878Y-76252215D02*
X167336974Y-76290310D01*
X167336974Y-76290310D02*
X167298878Y-76328405D01*
X167298878Y-76328405D02*
X167260783Y-76290310D01*
X167260783Y-76290310D02*
X167298878Y-76252215D01*
X167298878Y-76252215D02*
X167298878Y-76328405D01*
X166575069Y-76518881D02*
X166575069Y-77166500D01*
X166575069Y-77166500D02*
X166613164Y-77242691D01*
X166613164Y-77242691D02*
X166651260Y-77280786D01*
X166651260Y-77280786D02*
X166727450Y-77318881D01*
X166727450Y-77318881D02*
X166841736Y-77318881D01*
X166841736Y-77318881D02*
X166917926Y-77280786D01*
X166575069Y-77014120D02*
X166651260Y-77052215D01*
X166651260Y-77052215D02*
X166803641Y-77052215D01*
X166803641Y-77052215D02*
X166879831Y-77014120D01*
X166879831Y-77014120D02*
X166917926Y-76976024D01*
X166917926Y-76976024D02*
X166956022Y-76899834D01*
X166956022Y-76899834D02*
X166956022Y-76671262D01*
X166956022Y-76671262D02*
X166917926Y-76595072D01*
X166917926Y-76595072D02*
X166879831Y-76556977D01*
X166879831Y-76556977D02*
X166803641Y-76518881D01*
X166803641Y-76518881D02*
X166651260Y-76518881D01*
X166651260Y-76518881D02*
X166575069Y-76556977D01*
X166194116Y-77052215D02*
X166194116Y-76252215D01*
X165851259Y-77052215D02*
X165851259Y-76633167D01*
X165851259Y-76633167D02*
X165889354Y-76556977D01*
X165889354Y-76556977D02*
X165965545Y-76518881D01*
X165965545Y-76518881D02*
X166079831Y-76518881D01*
X166079831Y-76518881D02*
X166156021Y-76556977D01*
X166156021Y-76556977D02*
X166194116Y-76595072D01*
X165584592Y-76518881D02*
X165279830Y-76518881D01*
X165470306Y-76252215D02*
X165470306Y-76937929D01*
X165470306Y-76937929D02*
X165432211Y-77014120D01*
X165432211Y-77014120D02*
X165356021Y-77052215D01*
X165356021Y-77052215D02*
X165279830Y-77052215D01*
X164175068Y-77356977D02*
X164213163Y-77318881D01*
X164213163Y-77318881D02*
X164289354Y-77204596D01*
X164289354Y-77204596D02*
X164327449Y-77128405D01*
X164327449Y-77128405D02*
X164365544Y-77014120D01*
X164365544Y-77014120D02*
X164403639Y-76823643D01*
X164403639Y-76823643D02*
X164403639Y-76671262D01*
X164403639Y-76671262D02*
X164365544Y-76480786D01*
X164365544Y-76480786D02*
X164327449Y-76366500D01*
X164327449Y-76366500D02*
X164289354Y-76290310D01*
X164289354Y-76290310D02*
X164213163Y-76176024D01*
X164213163Y-76176024D02*
X164175068Y-76137929D01*
X163413163Y-76976024D02*
X163451259Y-77014120D01*
X163451259Y-77014120D02*
X163565544Y-77052215D01*
X163565544Y-77052215D02*
X163641735Y-77052215D01*
X163641735Y-77052215D02*
X163756021Y-77014120D01*
X163756021Y-77014120D02*
X163832211Y-76937929D01*
X163832211Y-76937929D02*
X163870306Y-76861739D01*
X163870306Y-76861739D02*
X163908402Y-76709358D01*
X163908402Y-76709358D02*
X163908402Y-76595072D01*
X163908402Y-76595072D02*
X163870306Y-76442691D01*
X163870306Y-76442691D02*
X163832211Y-76366500D01*
X163832211Y-76366500D02*
X163756021Y-76290310D01*
X163756021Y-76290310D02*
X163641735Y-76252215D01*
X163641735Y-76252215D02*
X163565544Y-76252215D01*
X163565544Y-76252215D02*
X163451259Y-76290310D01*
X163451259Y-76290310D02*
X163413163Y-76328405D01*
X163146497Y-77356977D02*
X163108402Y-77318881D01*
X163108402Y-77318881D02*
X163032211Y-77204596D01*
X163032211Y-77204596D02*
X162994116Y-77128405D01*
X162994116Y-77128405D02*
X162956021Y-77014120D01*
X162956021Y-77014120D02*
X162917925Y-76823643D01*
X162917925Y-76823643D02*
X162917925Y-76671262D01*
X162917925Y-76671262D02*
X162956021Y-76480786D01*
X162956021Y-76480786D02*
X162994116Y-76366500D01*
X162994116Y-76366500D02*
X163032211Y-76290310D01*
X163032211Y-76290310D02*
X163108402Y-76176024D01*
X163108402Y-76176024D02*
X163146497Y-76137929D01*
X161965545Y-76328405D02*
X161927449Y-76290310D01*
X161927449Y-76290310D02*
X161851259Y-76252215D01*
X161851259Y-76252215D02*
X161660783Y-76252215D01*
X161660783Y-76252215D02*
X161584592Y-76290310D01*
X161584592Y-76290310D02*
X161546497Y-76328405D01*
X161546497Y-76328405D02*
X161508402Y-76404596D01*
X161508402Y-76404596D02*
X161508402Y-76480786D01*
X161508402Y-76480786D02*
X161546497Y-76595072D01*
X161546497Y-76595072D02*
X162003640Y-77052215D01*
X162003640Y-77052215D02*
X161508402Y-77052215D01*
X161013163Y-76252215D02*
X160936973Y-76252215D01*
X160936973Y-76252215D02*
X160860782Y-76290310D01*
X160860782Y-76290310D02*
X160822687Y-76328405D01*
X160822687Y-76328405D02*
X160784592Y-76404596D01*
X160784592Y-76404596D02*
X160746497Y-76556977D01*
X160746497Y-76556977D02*
X160746497Y-76747453D01*
X160746497Y-76747453D02*
X160784592Y-76899834D01*
X160784592Y-76899834D02*
X160822687Y-76976024D01*
X160822687Y-76976024D02*
X160860782Y-77014120D01*
X160860782Y-77014120D02*
X160936973Y-77052215D01*
X160936973Y-77052215D02*
X161013163Y-77052215D01*
X161013163Y-77052215D02*
X161089354Y-77014120D01*
X161089354Y-77014120D02*
X161127449Y-76976024D01*
X161127449Y-76976024D02*
X161165544Y-76899834D01*
X161165544Y-76899834D02*
X161203640Y-76747453D01*
X161203640Y-76747453D02*
X161203640Y-76556977D01*
X161203640Y-76556977D02*
X161165544Y-76404596D01*
X161165544Y-76404596D02*
X161127449Y-76328405D01*
X161127449Y-76328405D02*
X161089354Y-76290310D01*
X161089354Y-76290310D02*
X161013163Y-76252215D01*
X160441735Y-76328405D02*
X160403639Y-76290310D01*
X160403639Y-76290310D02*
X160327449Y-76252215D01*
X160327449Y-76252215D02*
X160136973Y-76252215D01*
X160136973Y-76252215D02*
X160060782Y-76290310D01*
X160060782Y-76290310D02*
X160022687Y-76328405D01*
X160022687Y-76328405D02*
X159984592Y-76404596D01*
X159984592Y-76404596D02*
X159984592Y-76480786D01*
X159984592Y-76480786D02*
X160022687Y-76595072D01*
X160022687Y-76595072D02*
X160479830Y-77052215D01*
X160479830Y-77052215D02*
X159984592Y-77052215D01*
X159298877Y-76252215D02*
X159451258Y-76252215D01*
X159451258Y-76252215D02*
X159527449Y-76290310D01*
X159527449Y-76290310D02*
X159565544Y-76328405D01*
X159565544Y-76328405D02*
X159641734Y-76442691D01*
X159641734Y-76442691D02*
X159679830Y-76595072D01*
X159679830Y-76595072D02*
X159679830Y-76899834D01*
X159679830Y-76899834D02*
X159641734Y-76976024D01*
X159641734Y-76976024D02*
X159603639Y-77014120D01*
X159603639Y-77014120D02*
X159527449Y-77052215D01*
X159527449Y-77052215D02*
X159375068Y-77052215D01*
X159375068Y-77052215D02*
X159298877Y-77014120D01*
X159298877Y-77014120D02*
X159260782Y-76976024D01*
X159260782Y-76976024D02*
X159222687Y-76899834D01*
X159222687Y-76899834D02*
X159222687Y-76709358D01*
X159222687Y-76709358D02*
X159260782Y-76633167D01*
X159260782Y-76633167D02*
X159298877Y-76595072D01*
X159298877Y-76595072D02*
X159375068Y-76556977D01*
X159375068Y-76556977D02*
X159527449Y-76556977D01*
X159527449Y-76556977D02*
X159603639Y-76595072D01*
X159603639Y-76595072D02*
X159641734Y-76633167D01*
X159641734Y-76633167D02*
X159679830Y-76709358D01*
X170194117Y-78340170D02*
X170460784Y-77959217D01*
X170651260Y-78340170D02*
X170651260Y-77540170D01*
X170651260Y-77540170D02*
X170346498Y-77540170D01*
X170346498Y-77540170D02*
X170270308Y-77578265D01*
X170270308Y-77578265D02*
X170232213Y-77616360D01*
X170232213Y-77616360D02*
X170194117Y-77692551D01*
X170194117Y-77692551D02*
X170194117Y-77806836D01*
X170194117Y-77806836D02*
X170232213Y-77883027D01*
X170232213Y-77883027D02*
X170270308Y-77921122D01*
X170270308Y-77921122D02*
X170346498Y-77959217D01*
X170346498Y-77959217D02*
X170651260Y-77959217D01*
X169546498Y-78302075D02*
X169622689Y-78340170D01*
X169622689Y-78340170D02*
X169775070Y-78340170D01*
X169775070Y-78340170D02*
X169851260Y-78302075D01*
X169851260Y-78302075D02*
X169889356Y-78225884D01*
X169889356Y-78225884D02*
X169889356Y-77921122D01*
X169889356Y-77921122D02*
X169851260Y-77844932D01*
X169851260Y-77844932D02*
X169775070Y-77806836D01*
X169775070Y-77806836D02*
X169622689Y-77806836D01*
X169622689Y-77806836D02*
X169546498Y-77844932D01*
X169546498Y-77844932D02*
X169508403Y-77921122D01*
X169508403Y-77921122D02*
X169508403Y-77997313D01*
X169508403Y-77997313D02*
X169889356Y-78073503D01*
X169165546Y-77806836D02*
X169165546Y-78340170D01*
X169165546Y-77883027D02*
X169127451Y-77844932D01*
X169127451Y-77844932D02*
X169051261Y-77806836D01*
X169051261Y-77806836D02*
X168936975Y-77806836D01*
X168936975Y-77806836D02*
X168860784Y-77844932D01*
X168860784Y-77844932D02*
X168822689Y-77921122D01*
X168822689Y-77921122D02*
X168822689Y-78340170D01*
X168136974Y-78302075D02*
X168213165Y-78340170D01*
X168213165Y-78340170D02*
X168365546Y-78340170D01*
X168365546Y-78340170D02*
X168441736Y-78302075D01*
X168441736Y-78302075D02*
X168479832Y-78225884D01*
X168479832Y-78225884D02*
X168479832Y-77921122D01*
X168479832Y-77921122D02*
X168441736Y-77844932D01*
X168441736Y-77844932D02*
X168365546Y-77806836D01*
X168365546Y-77806836D02*
X168213165Y-77806836D01*
X168213165Y-77806836D02*
X168136974Y-77844932D01*
X168136974Y-77844932D02*
X168098879Y-77921122D01*
X168098879Y-77921122D02*
X168098879Y-77997313D01*
X168098879Y-77997313D02*
X168479832Y-78073503D01*
X168213165Y-77502075D02*
X168327451Y-77616360D01*
X167146498Y-78340170D02*
X167146498Y-77540170D01*
X166689355Y-78340170D02*
X167032213Y-77883027D01*
X166689355Y-77540170D02*
X167146498Y-77997313D01*
X166232213Y-78340170D02*
X166308403Y-78302075D01*
X166308403Y-78302075D02*
X166346498Y-78225884D01*
X166346498Y-78225884D02*
X166346498Y-77540170D01*
X165813165Y-78340170D02*
X165889355Y-78302075D01*
X165889355Y-78302075D02*
X165927450Y-78263979D01*
X165927450Y-78263979D02*
X165965546Y-78187789D01*
X165965546Y-78187789D02*
X165965546Y-77959217D01*
X165965546Y-77959217D02*
X165927450Y-77883027D01*
X165927450Y-77883027D02*
X165889355Y-77844932D01*
X165889355Y-77844932D02*
X165813165Y-77806836D01*
X165813165Y-77806836D02*
X165698879Y-77806836D01*
X165698879Y-77806836D02*
X165622688Y-77844932D01*
X165622688Y-77844932D02*
X165584593Y-77883027D01*
X165584593Y-77883027D02*
X165546498Y-77959217D01*
X165546498Y-77959217D02*
X165546498Y-78187789D01*
X165546498Y-78187789D02*
X165584593Y-78263979D01*
X165584593Y-78263979D02*
X165622688Y-78302075D01*
X165622688Y-78302075D02*
X165698879Y-78340170D01*
X165698879Y-78340170D02*
X165813165Y-78340170D01*
X165089355Y-78340170D02*
X165165545Y-78302075D01*
X165165545Y-78302075D02*
X165203640Y-78263979D01*
X165203640Y-78263979D02*
X165241736Y-78187789D01*
X165241736Y-78187789D02*
X165241736Y-77959217D01*
X165241736Y-77959217D02*
X165203640Y-77883027D01*
X165203640Y-77883027D02*
X165165545Y-77844932D01*
X165165545Y-77844932D02*
X165089355Y-77806836D01*
X165089355Y-77806836D02*
X164975069Y-77806836D01*
X164975069Y-77806836D02*
X164898878Y-77844932D01*
X164898878Y-77844932D02*
X164860783Y-77883027D01*
X164860783Y-77883027D02*
X164822688Y-77959217D01*
X164822688Y-77959217D02*
X164822688Y-78187789D01*
X164822688Y-78187789D02*
X164860783Y-78263979D01*
X164860783Y-78263979D02*
X164898878Y-78302075D01*
X164898878Y-78302075D02*
X164975069Y-78340170D01*
X164975069Y-78340170D02*
X165089355Y-78340170D01*
X164594116Y-77806836D02*
X164289354Y-77806836D01*
X164479830Y-77540170D02*
X164479830Y-78225884D01*
X164479830Y-78225884D02*
X164441735Y-78302075D01*
X164441735Y-78302075D02*
X164365545Y-78340170D01*
X164365545Y-78340170D02*
X164289354Y-78340170D01*
X164098878Y-77806836D02*
X163946497Y-78340170D01*
X163946497Y-78340170D02*
X163794116Y-77959217D01*
X163794116Y-77959217D02*
X163641735Y-78340170D01*
X163641735Y-78340170D02*
X163489354Y-77806836D01*
X163184592Y-78340170D02*
X163184592Y-77806836D01*
X163184592Y-77540170D02*
X163222688Y-77578265D01*
X163222688Y-77578265D02*
X163184592Y-77616360D01*
X163184592Y-77616360D02*
X163146497Y-77578265D01*
X163146497Y-77578265D02*
X163184592Y-77540170D01*
X163184592Y-77540170D02*
X163184592Y-77616360D01*
X162803640Y-77806836D02*
X162803640Y-78492551D01*
X162803640Y-78492551D02*
X162841736Y-78568741D01*
X162841736Y-78568741D02*
X162917926Y-78606836D01*
X162917926Y-78606836D02*
X162956021Y-78606836D01*
X162803640Y-77540170D02*
X162841736Y-77578265D01*
X162841736Y-77578265D02*
X162803640Y-77616360D01*
X162803640Y-77616360D02*
X162765545Y-77578265D01*
X162765545Y-77578265D02*
X162803640Y-77540170D01*
X162803640Y-77540170D02*
X162803640Y-77616360D01*
X162422688Y-78340170D02*
X162422688Y-77540170D01*
X162346498Y-78035408D02*
X162117926Y-78340170D01*
X162117926Y-77806836D02*
X162422688Y-78111598D01*
X170689356Y-79399553D02*
X170308403Y-79399553D01*
X170765546Y-79628125D02*
X170498879Y-78828125D01*
X170498879Y-78828125D02*
X170232213Y-79628125D01*
X169851261Y-79628125D02*
X169927451Y-79590030D01*
X169927451Y-79590030D02*
X169965546Y-79513839D01*
X169965546Y-79513839D02*
X169965546Y-78828125D01*
X169203641Y-79628125D02*
X169203641Y-79209077D01*
X169203641Y-79209077D02*
X169241736Y-79132887D01*
X169241736Y-79132887D02*
X169317927Y-79094791D01*
X169317927Y-79094791D02*
X169470308Y-79094791D01*
X169470308Y-79094791D02*
X169546498Y-79132887D01*
X169203641Y-79590030D02*
X169279832Y-79628125D01*
X169279832Y-79628125D02*
X169470308Y-79628125D01*
X169470308Y-79628125D02*
X169546498Y-79590030D01*
X169546498Y-79590030D02*
X169584594Y-79513839D01*
X169584594Y-79513839D02*
X169584594Y-79437649D01*
X169584594Y-79437649D02*
X169546498Y-79361458D01*
X169546498Y-79361458D02*
X169470308Y-79323363D01*
X169470308Y-79323363D02*
X169279832Y-79323363D01*
X169279832Y-79323363D02*
X169203641Y-79285268D01*
X168479831Y-79590030D02*
X168556022Y-79628125D01*
X168556022Y-79628125D02*
X168708403Y-79628125D01*
X168708403Y-79628125D02*
X168784593Y-79590030D01*
X168784593Y-79590030D02*
X168822688Y-79551934D01*
X168822688Y-79551934D02*
X168860784Y-79475744D01*
X168860784Y-79475744D02*
X168860784Y-79247172D01*
X168860784Y-79247172D02*
X168822688Y-79170982D01*
X168822688Y-79170982D02*
X168784593Y-79132887D01*
X168784593Y-79132887D02*
X168708403Y-79094791D01*
X168708403Y-79094791D02*
X168556022Y-79094791D01*
X168556022Y-79094791D02*
X168479831Y-79132887D01*
X168136974Y-79628125D02*
X168136974Y-79094791D01*
X168136974Y-79247172D02*
X168098879Y-79170982D01*
X168098879Y-79170982D02*
X168060784Y-79132887D01*
X168060784Y-79132887D02*
X167984593Y-79094791D01*
X167984593Y-79094791D02*
X167908403Y-79094791D01*
X167641736Y-79628125D02*
X167641736Y-79094791D01*
X167641736Y-78828125D02*
X167679832Y-78866220D01*
X167679832Y-78866220D02*
X167641736Y-78904315D01*
X167641736Y-78904315D02*
X167603641Y-78866220D01*
X167603641Y-78866220D02*
X167641736Y-78828125D01*
X167641736Y-78828125D02*
X167641736Y-78904315D01*
X167375070Y-79094791D02*
X167070308Y-79094791D01*
X167260784Y-78828125D02*
X167260784Y-79513839D01*
X167260784Y-79513839D02*
X167222689Y-79590030D01*
X167222689Y-79590030D02*
X167146499Y-79628125D01*
X167146499Y-79628125D02*
X167070308Y-79628125D01*
X166879832Y-79094791D02*
X166689356Y-79628125D01*
X166498879Y-79094791D02*
X166689356Y-79628125D01*
X166689356Y-79628125D02*
X166765546Y-79818601D01*
X166765546Y-79818601D02*
X166803641Y-79856696D01*
X166803641Y-79856696D02*
X166879832Y-79894791D01*
X165584593Y-79209077D02*
X165317927Y-79209077D01*
X165203641Y-79628125D02*
X165584593Y-79628125D01*
X165584593Y-79628125D02*
X165584593Y-78828125D01*
X165584593Y-78828125D02*
X165203641Y-78828125D01*
X164517926Y-79628125D02*
X164517926Y-78828125D01*
X164517926Y-79590030D02*
X164594117Y-79628125D01*
X164594117Y-79628125D02*
X164746498Y-79628125D01*
X164746498Y-79628125D02*
X164822688Y-79590030D01*
X164822688Y-79590030D02*
X164860783Y-79551934D01*
X164860783Y-79551934D02*
X164898879Y-79475744D01*
X164898879Y-79475744D02*
X164898879Y-79247172D01*
X164898879Y-79247172D02*
X164860783Y-79170982D01*
X164860783Y-79170982D02*
X164822688Y-79132887D01*
X164822688Y-79132887D02*
X164746498Y-79094791D01*
X164746498Y-79094791D02*
X164594117Y-79094791D01*
X164594117Y-79094791D02*
X164517926Y-79132887D01*
X163794116Y-79094791D02*
X163794116Y-79628125D01*
X164136973Y-79094791D02*
X164136973Y-79513839D01*
X164136973Y-79513839D02*
X164098878Y-79590030D01*
X164098878Y-79590030D02*
X164022688Y-79628125D01*
X164022688Y-79628125D02*
X163908402Y-79628125D01*
X163908402Y-79628125D02*
X163832211Y-79590030D01*
X163832211Y-79590030D02*
X163794116Y-79551934D01*
X163070306Y-79590030D02*
X163146497Y-79628125D01*
X163146497Y-79628125D02*
X163298878Y-79628125D01*
X163298878Y-79628125D02*
X163375068Y-79590030D01*
X163375068Y-79590030D02*
X163413163Y-79551934D01*
X163413163Y-79551934D02*
X163451259Y-79475744D01*
X163451259Y-79475744D02*
X163451259Y-79247172D01*
X163451259Y-79247172D02*
X163413163Y-79170982D01*
X163413163Y-79170982D02*
X163375068Y-79132887D01*
X163375068Y-79132887D02*
X163298878Y-79094791D01*
X163298878Y-79094791D02*
X163146497Y-79094791D01*
X163146497Y-79094791D02*
X163070306Y-79132887D01*
X162384592Y-79628125D02*
X162384592Y-79209077D01*
X162384592Y-79209077D02*
X162422687Y-79132887D01*
X162422687Y-79132887D02*
X162498878Y-79094791D01*
X162498878Y-79094791D02*
X162651259Y-79094791D01*
X162651259Y-79094791D02*
X162727449Y-79132887D01*
X162384592Y-79590030D02*
X162460783Y-79628125D01*
X162460783Y-79628125D02*
X162651259Y-79628125D01*
X162651259Y-79628125D02*
X162727449Y-79590030D01*
X162727449Y-79590030D02*
X162765545Y-79513839D01*
X162765545Y-79513839D02*
X162765545Y-79437649D01*
X162765545Y-79437649D02*
X162727449Y-79361458D01*
X162727449Y-79361458D02*
X162651259Y-79323363D01*
X162651259Y-79323363D02*
X162460783Y-79323363D01*
X162460783Y-79323363D02*
X162384592Y-79285268D01*
X162117925Y-79094791D02*
X161813163Y-79094791D01*
X162003639Y-78828125D02*
X162003639Y-79513839D01*
X162003639Y-79513839D02*
X161965544Y-79590030D01*
X161965544Y-79590030D02*
X161889354Y-79628125D01*
X161889354Y-79628125D02*
X161813163Y-79628125D01*
X161546496Y-79628125D02*
X161546496Y-79094791D01*
X161546496Y-78828125D02*
X161584592Y-78866220D01*
X161584592Y-78866220D02*
X161546496Y-78904315D01*
X161546496Y-78904315D02*
X161508401Y-78866220D01*
X161508401Y-78866220D02*
X161546496Y-78828125D01*
X161546496Y-78828125D02*
X161546496Y-78904315D01*
X161051259Y-79628125D02*
X161127449Y-79590030D01*
X161127449Y-79590030D02*
X161165544Y-79551934D01*
X161165544Y-79551934D02*
X161203640Y-79475744D01*
X161203640Y-79475744D02*
X161203640Y-79247172D01*
X161203640Y-79247172D02*
X161165544Y-79170982D01*
X161165544Y-79170982D02*
X161127449Y-79132887D01*
X161127449Y-79132887D02*
X161051259Y-79094791D01*
X161051259Y-79094791D02*
X160936973Y-79094791D01*
X160936973Y-79094791D02*
X160860782Y-79132887D01*
X160860782Y-79132887D02*
X160822687Y-79170982D01*
X160822687Y-79170982D02*
X160784592Y-79247172D01*
X160784592Y-79247172D02*
X160784592Y-79475744D01*
X160784592Y-79475744D02*
X160822687Y-79551934D01*
X160822687Y-79551934D02*
X160860782Y-79590030D01*
X160860782Y-79590030D02*
X160936973Y-79628125D01*
X160936973Y-79628125D02*
X161051259Y-79628125D01*
X160441734Y-79094791D02*
X160441734Y-79628125D01*
X160441734Y-79170982D02*
X160403639Y-79132887D01*
X160403639Y-79132887D02*
X160327449Y-79094791D01*
X160327449Y-79094791D02*
X160213163Y-79094791D01*
X160213163Y-79094791D02*
X160136972Y-79132887D01*
X160136972Y-79132887D02*
X160098877Y-79209077D01*
X160098877Y-79209077D02*
X160098877Y-79628125D01*
D11*
X154124819Y-81367333D02*
X153648628Y-81034000D01*
X154124819Y-80795905D02*
X153124819Y-80795905D01*
X153124819Y-80795905D02*
X153124819Y-81176857D01*
X153124819Y-81176857D02*
X153172438Y-81272095D01*
X153172438Y-81272095D02*
X153220057Y-81319714D01*
X153220057Y-81319714D02*
X153315295Y-81367333D01*
X153315295Y-81367333D02*
X153458152Y-81367333D01*
X153458152Y-81367333D02*
X153553390Y-81319714D01*
X153553390Y-81319714D02*
X153601009Y-81272095D01*
X153601009Y-81272095D02*
X153648628Y-81176857D01*
X153648628Y-81176857D02*
X153648628Y-80795905D01*
X153124819Y-81700667D02*
X153124819Y-82319714D01*
X153124819Y-82319714D02*
X153505771Y-81986381D01*
X153505771Y-81986381D02*
X153505771Y-82129238D01*
X153505771Y-82129238D02*
X153553390Y-82224476D01*
X153553390Y-82224476D02*
X153601009Y-82272095D01*
X153601009Y-82272095D02*
X153696247Y-82319714D01*
X153696247Y-82319714D02*
X153934342Y-82319714D01*
X153934342Y-82319714D02*
X154029580Y-82272095D01*
X154029580Y-82272095D02*
X154077200Y-82224476D01*
X154077200Y-82224476D02*
X154124819Y-82129238D01*
X154124819Y-82129238D02*
X154124819Y-81843524D01*
X154124819Y-81843524D02*
X154077200Y-81748286D01*
X154077200Y-81748286D02*
X154029580Y-81700667D01*
X168695666Y-85638819D02*
X169028999Y-85162628D01*
X169267094Y-85638819D02*
X169267094Y-84638819D01*
X169267094Y-84638819D02*
X168886142Y-84638819D01*
X168886142Y-84638819D02*
X168790904Y-84686438D01*
X168790904Y-84686438D02*
X168743285Y-84734057D01*
X168743285Y-84734057D02*
X168695666Y-84829295D01*
X168695666Y-84829295D02*
X168695666Y-84972152D01*
X168695666Y-84972152D02*
X168743285Y-85067390D01*
X168743285Y-85067390D02*
X168790904Y-85115009D01*
X168790904Y-85115009D02*
X168886142Y-85162628D01*
X168886142Y-85162628D02*
X169267094Y-85162628D01*
X167838523Y-84972152D02*
X167838523Y-85638819D01*
X168076618Y-84591200D02*
X168314713Y-85305485D01*
X168314713Y-85305485D02*
X167695666Y-85305485D01*
X162472666Y-81131580D02*
X162520285Y-81179200D01*
X162520285Y-81179200D02*
X162663142Y-81226819D01*
X162663142Y-81226819D02*
X162758380Y-81226819D01*
X162758380Y-81226819D02*
X162901237Y-81179200D01*
X162901237Y-81179200D02*
X162996475Y-81083961D01*
X162996475Y-81083961D02*
X163044094Y-80988723D01*
X163044094Y-80988723D02*
X163091713Y-80798247D01*
X163091713Y-80798247D02*
X163091713Y-80655390D01*
X163091713Y-80655390D02*
X163044094Y-80464914D01*
X163044094Y-80464914D02*
X162996475Y-80369676D01*
X162996475Y-80369676D02*
X162901237Y-80274438D01*
X162901237Y-80274438D02*
X162758380Y-80226819D01*
X162758380Y-80226819D02*
X162663142Y-80226819D01*
X162663142Y-80226819D02*
X162520285Y-80274438D01*
X162520285Y-80274438D02*
X162472666Y-80322057D01*
X162091713Y-80322057D02*
X162044094Y-80274438D01*
X162044094Y-80274438D02*
X161948856Y-80226819D01*
X161948856Y-80226819D02*
X161710761Y-80226819D01*
X161710761Y-80226819D02*
X161615523Y-80274438D01*
X161615523Y-80274438D02*
X161567904Y-80322057D01*
X161567904Y-80322057D02*
X161520285Y-80417295D01*
X161520285Y-80417295D02*
X161520285Y-80512533D01*
X161520285Y-80512533D02*
X161567904Y-80655390D01*
X161567904Y-80655390D02*
X162139332Y-81226819D01*
X162139332Y-81226819D02*
X161520285Y-81226819D01*
X157426819Y-81367333D02*
X156950628Y-81034000D01*
X157426819Y-80795905D02*
X156426819Y-80795905D01*
X156426819Y-80795905D02*
X156426819Y-81176857D01*
X156426819Y-81176857D02*
X156474438Y-81272095D01*
X156474438Y-81272095D02*
X156522057Y-81319714D01*
X156522057Y-81319714D02*
X156617295Y-81367333D01*
X156617295Y-81367333D02*
X156760152Y-81367333D01*
X156760152Y-81367333D02*
X156855390Y-81319714D01*
X156855390Y-81319714D02*
X156903009Y-81272095D01*
X156903009Y-81272095D02*
X156950628Y-81176857D01*
X156950628Y-81176857D02*
X156950628Y-80795905D01*
X156522057Y-81748286D02*
X156474438Y-81795905D01*
X156474438Y-81795905D02*
X156426819Y-81891143D01*
X156426819Y-81891143D02*
X156426819Y-82129238D01*
X156426819Y-82129238D02*
X156474438Y-82224476D01*
X156474438Y-82224476D02*
X156522057Y-82272095D01*
X156522057Y-82272095D02*
X156617295Y-82319714D01*
X156617295Y-82319714D02*
X156712533Y-82319714D01*
X156712533Y-82319714D02*
X156855390Y-82272095D01*
X156855390Y-82272095D02*
X157426819Y-81700667D01*
X157426819Y-81700667D02*
X157426819Y-82319714D01*
X155648819Y-81367333D02*
X155172628Y-81034000D01*
X155648819Y-80795905D02*
X154648819Y-80795905D01*
X154648819Y-80795905D02*
X154648819Y-81176857D01*
X154648819Y-81176857D02*
X154696438Y-81272095D01*
X154696438Y-81272095D02*
X154744057Y-81319714D01*
X154744057Y-81319714D02*
X154839295Y-81367333D01*
X154839295Y-81367333D02*
X154982152Y-81367333D01*
X154982152Y-81367333D02*
X155077390Y-81319714D01*
X155077390Y-81319714D02*
X155125009Y-81272095D01*
X155125009Y-81272095D02*
X155172628Y-81176857D01*
X155172628Y-81176857D02*
X155172628Y-80795905D01*
X155648819Y-82319714D02*
X155648819Y-81748286D01*
X155648819Y-82034000D02*
X154648819Y-82034000D01*
X154648819Y-82034000D02*
X154791676Y-81938762D01*
X154791676Y-81938762D02*
X154886914Y-81843524D01*
X154886914Y-81843524D02*
X154934533Y-81748286D01*
X158154666Y-98403580D02*
X158202285Y-98451200D01*
X158202285Y-98451200D02*
X158345142Y-98498819D01*
X158345142Y-98498819D02*
X158440380Y-98498819D01*
X158440380Y-98498819D02*
X158583237Y-98451200D01*
X158583237Y-98451200D02*
X158678475Y-98355961D01*
X158678475Y-98355961D02*
X158726094Y-98260723D01*
X158726094Y-98260723D02*
X158773713Y-98070247D01*
X158773713Y-98070247D02*
X158773713Y-97927390D01*
X158773713Y-97927390D02*
X158726094Y-97736914D01*
X158726094Y-97736914D02*
X158678475Y-97641676D01*
X158678475Y-97641676D02*
X158583237Y-97546438D01*
X158583237Y-97546438D02*
X158440380Y-97498819D01*
X158440380Y-97498819D02*
X158345142Y-97498819D01*
X158345142Y-97498819D02*
X158202285Y-97546438D01*
X158202285Y-97546438D02*
X158154666Y-97594057D01*
X157297523Y-97498819D02*
X157487999Y-97498819D01*
X157487999Y-97498819D02*
X157583237Y-97546438D01*
X157583237Y-97546438D02*
X157630856Y-97594057D01*
X157630856Y-97594057D02*
X157726094Y-97736914D01*
X157726094Y-97736914D02*
X157773713Y-97927390D01*
X157773713Y-97927390D02*
X157773713Y-98308342D01*
X157773713Y-98308342D02*
X157726094Y-98403580D01*
X157726094Y-98403580D02*
X157678475Y-98451200D01*
X157678475Y-98451200D02*
X157583237Y-98498819D01*
X157583237Y-98498819D02*
X157392761Y-98498819D01*
X157392761Y-98498819D02*
X157297523Y-98451200D01*
X157297523Y-98451200D02*
X157249904Y-98403580D01*
X157249904Y-98403580D02*
X157202285Y-98308342D01*
X157202285Y-98308342D02*
X157202285Y-98070247D01*
X157202285Y-98070247D02*
X157249904Y-97975009D01*
X157249904Y-97975009D02*
X157297523Y-97927390D01*
X157297523Y-97927390D02*
X157392761Y-97879771D01*
X157392761Y-97879771D02*
X157583237Y-97879771D01*
X157583237Y-97879771D02*
X157678475Y-97927390D01*
X157678475Y-97927390D02*
X157726094Y-97975009D01*
X157726094Y-97975009D02*
X157773713Y-98070247D01*
X158154666Y-93450580D02*
X158202285Y-93498200D01*
X158202285Y-93498200D02*
X158345142Y-93545819D01*
X158345142Y-93545819D02*
X158440380Y-93545819D01*
X158440380Y-93545819D02*
X158583237Y-93498200D01*
X158583237Y-93498200D02*
X158678475Y-93402961D01*
X158678475Y-93402961D02*
X158726094Y-93307723D01*
X158726094Y-93307723D02*
X158773713Y-93117247D01*
X158773713Y-93117247D02*
X158773713Y-92974390D01*
X158773713Y-92974390D02*
X158726094Y-92783914D01*
X158726094Y-92783914D02*
X158678475Y-92688676D01*
X158678475Y-92688676D02*
X158583237Y-92593438D01*
X158583237Y-92593438D02*
X158440380Y-92545819D01*
X158440380Y-92545819D02*
X158345142Y-92545819D01*
X158345142Y-92545819D02*
X158202285Y-92593438D01*
X158202285Y-92593438D02*
X158154666Y-92641057D01*
X157583237Y-92974390D02*
X157678475Y-92926771D01*
X157678475Y-92926771D02*
X157726094Y-92879152D01*
X157726094Y-92879152D02*
X157773713Y-92783914D01*
X157773713Y-92783914D02*
X157773713Y-92736295D01*
X157773713Y-92736295D02*
X157726094Y-92641057D01*
X157726094Y-92641057D02*
X157678475Y-92593438D01*
X157678475Y-92593438D02*
X157583237Y-92545819D01*
X157583237Y-92545819D02*
X157392761Y-92545819D01*
X157392761Y-92545819D02*
X157297523Y-92593438D01*
X157297523Y-92593438D02*
X157249904Y-92641057D01*
X157249904Y-92641057D02*
X157202285Y-92736295D01*
X157202285Y-92736295D02*
X157202285Y-92783914D01*
X157202285Y-92783914D02*
X157249904Y-92879152D01*
X157249904Y-92879152D02*
X157297523Y-92926771D01*
X157297523Y-92926771D02*
X157392761Y-92974390D01*
X157392761Y-92974390D02*
X157583237Y-92974390D01*
X157583237Y-92974390D02*
X157678475Y-93022009D01*
X157678475Y-93022009D02*
X157726094Y-93069628D01*
X157726094Y-93069628D02*
X157773713Y-93164866D01*
X157773713Y-93164866D02*
X157773713Y-93355342D01*
X157773713Y-93355342D02*
X157726094Y-93450580D01*
X157726094Y-93450580D02*
X157678475Y-93498200D01*
X157678475Y-93498200D02*
X157583237Y-93545819D01*
X157583237Y-93545819D02*
X157392761Y-93545819D01*
X157392761Y-93545819D02*
X157297523Y-93498200D01*
X157297523Y-93498200D02*
X157249904Y-93450580D01*
X157249904Y-93450580D02*
X157202285Y-93355342D01*
X157202285Y-93355342D02*
X157202285Y-93164866D01*
X157202285Y-93164866D02*
X157249904Y-93069628D01*
X157249904Y-93069628D02*
X157297523Y-93022009D01*
X157297523Y-93022009D02*
X157392761Y-92974390D01*
X158154666Y-92053580D02*
X158202285Y-92101200D01*
X158202285Y-92101200D02*
X158345142Y-92148819D01*
X158345142Y-92148819D02*
X158440380Y-92148819D01*
X158440380Y-92148819D02*
X158583237Y-92101200D01*
X158583237Y-92101200D02*
X158678475Y-92005961D01*
X158678475Y-92005961D02*
X158726094Y-91910723D01*
X158726094Y-91910723D02*
X158773713Y-91720247D01*
X158773713Y-91720247D02*
X158773713Y-91577390D01*
X158773713Y-91577390D02*
X158726094Y-91386914D01*
X158726094Y-91386914D02*
X158678475Y-91291676D01*
X158678475Y-91291676D02*
X158583237Y-91196438D01*
X158583237Y-91196438D02*
X158440380Y-91148819D01*
X158440380Y-91148819D02*
X158345142Y-91148819D01*
X158345142Y-91148819D02*
X158202285Y-91196438D01*
X158202285Y-91196438D02*
X158154666Y-91244057D01*
X157249904Y-91148819D02*
X157726094Y-91148819D01*
X157726094Y-91148819D02*
X157773713Y-91625009D01*
X157773713Y-91625009D02*
X157726094Y-91577390D01*
X157726094Y-91577390D02*
X157630856Y-91529771D01*
X157630856Y-91529771D02*
X157392761Y-91529771D01*
X157392761Y-91529771D02*
X157297523Y-91577390D01*
X157297523Y-91577390D02*
X157249904Y-91625009D01*
X157249904Y-91625009D02*
X157202285Y-91720247D01*
X157202285Y-91720247D02*
X157202285Y-91958342D01*
X157202285Y-91958342D02*
X157249904Y-92053580D01*
X157249904Y-92053580D02*
X157297523Y-92101200D01*
X157297523Y-92101200D02*
X157392761Y-92148819D01*
X157392761Y-92148819D02*
X157630856Y-92148819D01*
X157630856Y-92148819D02*
X157726094Y-92101200D01*
X157726094Y-92101200D02*
X157773713Y-92053580D01*
X167491580Y-91611386D02*
X167539200Y-91563767D01*
X167539200Y-91563767D02*
X167586819Y-91420910D01*
X167586819Y-91420910D02*
X167586819Y-91325672D01*
X167586819Y-91325672D02*
X167539200Y-91182815D01*
X167539200Y-91182815D02*
X167443961Y-91087577D01*
X167443961Y-91087577D02*
X167348723Y-91039958D01*
X167348723Y-91039958D02*
X167158247Y-90992339D01*
X167158247Y-90992339D02*
X167015390Y-90992339D01*
X167015390Y-90992339D02*
X166824914Y-91039958D01*
X166824914Y-91039958D02*
X166729676Y-91087577D01*
X166729676Y-91087577D02*
X166634438Y-91182815D01*
X166634438Y-91182815D02*
X166586819Y-91325672D01*
X166586819Y-91325672D02*
X166586819Y-91420910D01*
X166586819Y-91420910D02*
X166634438Y-91563767D01*
X166634438Y-91563767D02*
X166682057Y-91611386D01*
X167586819Y-92563767D02*
X167586819Y-91992339D01*
X167586819Y-92278053D02*
X166586819Y-92278053D01*
X166586819Y-92278053D02*
X166729676Y-92182815D01*
X166729676Y-92182815D02*
X166824914Y-92087577D01*
X166824914Y-92087577D02*
X166872533Y-91992339D01*
X166682057Y-92944720D02*
X166634438Y-92992339D01*
X166634438Y-92992339D02*
X166586819Y-93087577D01*
X166586819Y-93087577D02*
X166586819Y-93325672D01*
X166586819Y-93325672D02*
X166634438Y-93420910D01*
X166634438Y-93420910D02*
X166682057Y-93468529D01*
X166682057Y-93468529D02*
X166777295Y-93516148D01*
X166777295Y-93516148D02*
X166872533Y-93516148D01*
X166872533Y-93516148D02*
X167015390Y-93468529D01*
X167015390Y-93468529D02*
X167586819Y-92897101D01*
X167586819Y-92897101D02*
X167586819Y-93516148D01*
X158154666Y-95101580D02*
X158202285Y-95149200D01*
X158202285Y-95149200D02*
X158345142Y-95196819D01*
X158345142Y-95196819D02*
X158440380Y-95196819D01*
X158440380Y-95196819D02*
X158583237Y-95149200D01*
X158583237Y-95149200D02*
X158678475Y-95053961D01*
X158678475Y-95053961D02*
X158726094Y-94958723D01*
X158726094Y-94958723D02*
X158773713Y-94768247D01*
X158773713Y-94768247D02*
X158773713Y-94625390D01*
X158773713Y-94625390D02*
X158726094Y-94434914D01*
X158726094Y-94434914D02*
X158678475Y-94339676D01*
X158678475Y-94339676D02*
X158583237Y-94244438D01*
X158583237Y-94244438D02*
X158440380Y-94196819D01*
X158440380Y-94196819D02*
X158345142Y-94196819D01*
X158345142Y-94196819D02*
X158202285Y-94244438D01*
X158202285Y-94244438D02*
X158154666Y-94292057D01*
X157678475Y-95196819D02*
X157487999Y-95196819D01*
X157487999Y-95196819D02*
X157392761Y-95149200D01*
X157392761Y-95149200D02*
X157345142Y-95101580D01*
X157345142Y-95101580D02*
X157249904Y-94958723D01*
X157249904Y-94958723D02*
X157202285Y-94768247D01*
X157202285Y-94768247D02*
X157202285Y-94387295D01*
X157202285Y-94387295D02*
X157249904Y-94292057D01*
X157249904Y-94292057D02*
X157297523Y-94244438D01*
X157297523Y-94244438D02*
X157392761Y-94196819D01*
X157392761Y-94196819D02*
X157583237Y-94196819D01*
X157583237Y-94196819D02*
X157678475Y-94244438D01*
X157678475Y-94244438D02*
X157726094Y-94292057D01*
X157726094Y-94292057D02*
X157773713Y-94387295D01*
X157773713Y-94387295D02*
X157773713Y-94625390D01*
X157773713Y-94625390D02*
X157726094Y-94720628D01*
X157726094Y-94720628D02*
X157678475Y-94768247D01*
X157678475Y-94768247D02*
X157583237Y-94815866D01*
X157583237Y-94815866D02*
X157392761Y-94815866D01*
X157392761Y-94815866D02*
X157297523Y-94768247D01*
X157297523Y-94768247D02*
X157249904Y-94720628D01*
X157249904Y-94720628D02*
X157202285Y-94625390D01*
X165625819Y-85446095D02*
X166435342Y-85446095D01*
X166435342Y-85446095D02*
X166530580Y-85493714D01*
X166530580Y-85493714D02*
X166578200Y-85541333D01*
X166578200Y-85541333D02*
X166625819Y-85636571D01*
X166625819Y-85636571D02*
X166625819Y-85827047D01*
X166625819Y-85827047D02*
X166578200Y-85922285D01*
X166578200Y-85922285D02*
X166530580Y-85969904D01*
X166530580Y-85969904D02*
X166435342Y-86017523D01*
X166435342Y-86017523D02*
X165625819Y-86017523D01*
X165625819Y-86398476D02*
X165625819Y-87017523D01*
X165625819Y-87017523D02*
X166006771Y-86684190D01*
X166006771Y-86684190D02*
X166006771Y-86827047D01*
X166006771Y-86827047D02*
X166054390Y-86922285D01*
X166054390Y-86922285D02*
X166102009Y-86969904D01*
X166102009Y-86969904D02*
X166197247Y-87017523D01*
X166197247Y-87017523D02*
X166435342Y-87017523D01*
X166435342Y-87017523D02*
X166530580Y-86969904D01*
X166530580Y-86969904D02*
X166578200Y-86922285D01*
X166578200Y-86922285D02*
X166625819Y-86827047D01*
X166625819Y-86827047D02*
X166625819Y-86541333D01*
X166625819Y-86541333D02*
X166578200Y-86446095D01*
X166578200Y-86446095D02*
X166530580Y-86398476D01*
X167266857Y-95101580D02*
X167314476Y-95149200D01*
X167314476Y-95149200D02*
X167457333Y-95196819D01*
X167457333Y-95196819D02*
X167552571Y-95196819D01*
X167552571Y-95196819D02*
X167695428Y-95149200D01*
X167695428Y-95149200D02*
X167790666Y-95053961D01*
X167790666Y-95053961D02*
X167838285Y-94958723D01*
X167838285Y-94958723D02*
X167885904Y-94768247D01*
X167885904Y-94768247D02*
X167885904Y-94625390D01*
X167885904Y-94625390D02*
X167838285Y-94434914D01*
X167838285Y-94434914D02*
X167790666Y-94339676D01*
X167790666Y-94339676D02*
X167695428Y-94244438D01*
X167695428Y-94244438D02*
X167552571Y-94196819D01*
X167552571Y-94196819D02*
X167457333Y-94196819D01*
X167457333Y-94196819D02*
X167314476Y-94244438D01*
X167314476Y-94244438D02*
X167266857Y-94292057D01*
X166314476Y-95196819D02*
X166885904Y-95196819D01*
X166600190Y-95196819D02*
X166600190Y-94196819D01*
X166600190Y-94196819D02*
X166695428Y-94339676D01*
X166695428Y-94339676D02*
X166790666Y-94434914D01*
X166790666Y-94434914D02*
X166885904Y-94482533D01*
X165981142Y-94196819D02*
X165362095Y-94196819D01*
X165362095Y-94196819D02*
X165695428Y-94577771D01*
X165695428Y-94577771D02*
X165552571Y-94577771D01*
X165552571Y-94577771D02*
X165457333Y-94625390D01*
X165457333Y-94625390D02*
X165409714Y-94673009D01*
X165409714Y-94673009D02*
X165362095Y-94768247D01*
X165362095Y-94768247D02*
X165362095Y-95006342D01*
X165362095Y-95006342D02*
X165409714Y-95101580D01*
X165409714Y-95101580D02*
X165457333Y-95149200D01*
X165457333Y-95149200D02*
X165552571Y-95196819D01*
X165552571Y-95196819D02*
X165838285Y-95196819D01*
X165838285Y-95196819D02*
X165933523Y-95149200D01*
X165933523Y-95149200D02*
X165981142Y-95101580D01*
X158122857Y-96879580D02*
X158170476Y-96927200D01*
X158170476Y-96927200D02*
X158313333Y-96974819D01*
X158313333Y-96974819D02*
X158408571Y-96974819D01*
X158408571Y-96974819D02*
X158551428Y-96927200D01*
X158551428Y-96927200D02*
X158646666Y-96831961D01*
X158646666Y-96831961D02*
X158694285Y-96736723D01*
X158694285Y-96736723D02*
X158741904Y-96546247D01*
X158741904Y-96546247D02*
X158741904Y-96403390D01*
X158741904Y-96403390D02*
X158694285Y-96212914D01*
X158694285Y-96212914D02*
X158646666Y-96117676D01*
X158646666Y-96117676D02*
X158551428Y-96022438D01*
X158551428Y-96022438D02*
X158408571Y-95974819D01*
X158408571Y-95974819D02*
X158313333Y-95974819D01*
X158313333Y-95974819D02*
X158170476Y-96022438D01*
X158170476Y-96022438D02*
X158122857Y-96070057D01*
X157170476Y-96974819D02*
X157741904Y-96974819D01*
X157456190Y-96974819D02*
X157456190Y-95974819D01*
X157456190Y-95974819D02*
X157551428Y-96117676D01*
X157551428Y-96117676D02*
X157646666Y-96212914D01*
X157646666Y-96212914D02*
X157741904Y-96260533D01*
X156551428Y-95974819D02*
X156456190Y-95974819D01*
X156456190Y-95974819D02*
X156360952Y-96022438D01*
X156360952Y-96022438D02*
X156313333Y-96070057D01*
X156313333Y-96070057D02*
X156265714Y-96165295D01*
X156265714Y-96165295D02*
X156218095Y-96355771D01*
X156218095Y-96355771D02*
X156218095Y-96593866D01*
X156218095Y-96593866D02*
X156265714Y-96784342D01*
X156265714Y-96784342D02*
X156313333Y-96879580D01*
X156313333Y-96879580D02*
X156360952Y-96927200D01*
X156360952Y-96927200D02*
X156456190Y-96974819D01*
X156456190Y-96974819D02*
X156551428Y-96974819D01*
X156551428Y-96974819D02*
X156646666Y-96927200D01*
X156646666Y-96927200D02*
X156694285Y-96879580D01*
X156694285Y-96879580D02*
X156741904Y-96784342D01*
X156741904Y-96784342D02*
X156789523Y-96593866D01*
X156789523Y-96593866D02*
X156789523Y-96355771D01*
X156789523Y-96355771D02*
X156741904Y-96165295D01*
X156741904Y-96165295D02*
X156694285Y-96070057D01*
X156694285Y-96070057D02*
X156646666Y-96022438D01*
X156646666Y-96022438D02*
X156551428Y-95974819D01*
X166221580Y-91559142D02*
X166269200Y-91511523D01*
X166269200Y-91511523D02*
X166316819Y-91368666D01*
X166316819Y-91368666D02*
X166316819Y-91273428D01*
X166316819Y-91273428D02*
X166269200Y-91130571D01*
X166269200Y-91130571D02*
X166173961Y-91035333D01*
X166173961Y-91035333D02*
X166078723Y-90987714D01*
X166078723Y-90987714D02*
X165888247Y-90940095D01*
X165888247Y-90940095D02*
X165745390Y-90940095D01*
X165745390Y-90940095D02*
X165554914Y-90987714D01*
X165554914Y-90987714D02*
X165459676Y-91035333D01*
X165459676Y-91035333D02*
X165364438Y-91130571D01*
X165364438Y-91130571D02*
X165316819Y-91273428D01*
X165316819Y-91273428D02*
X165316819Y-91368666D01*
X165316819Y-91368666D02*
X165364438Y-91511523D01*
X165364438Y-91511523D02*
X165412057Y-91559142D01*
X166316819Y-92511523D02*
X166316819Y-91940095D01*
X166316819Y-92225809D02*
X165316819Y-92225809D01*
X165316819Y-92225809D02*
X165459676Y-92130571D01*
X165459676Y-92130571D02*
X165554914Y-92035333D01*
X165554914Y-92035333D02*
X165602533Y-91940095D01*
X166316819Y-93463904D02*
X166316819Y-92892476D01*
X166316819Y-93178190D02*
X165316819Y-93178190D01*
X165316819Y-93178190D02*
X165459676Y-93082952D01*
X165459676Y-93082952D02*
X165554914Y-92987714D01*
X165554914Y-92987714D02*
X165602533Y-92892476D01*
%TO.C,R3*%
D12*
X154192500Y-83963742D02*
X154192500Y-84438258D01*
X153147500Y-83963742D02*
X153147500Y-84438258D01*
%TO.C,R4*%
X168766258Y-86091500D02*
X168291742Y-86091500D01*
X168766258Y-87136500D02*
X168291742Y-87136500D01*
%TO.C,C2*%
X159498420Y-80262000D02*
X159779580Y-80262000D01*
X159498420Y-81282000D02*
X159779580Y-81282000D01*
%TO.C,R2*%
X156449500Y-83963742D02*
X156449500Y-84438258D01*
X157494500Y-83963742D02*
X157494500Y-84438258D01*
%TO.C,R1*%
X154798500Y-83963742D02*
X154798500Y-84438258D01*
X155843500Y-83963742D02*
X155843500Y-84438258D01*
%TO.C,C6*%
X160387420Y-97534000D02*
X160668580Y-97534000D01*
X160387420Y-98554000D02*
X160668580Y-98554000D01*
%TO.C,C8*%
X160387420Y-92581000D02*
X160668580Y-92581000D01*
X160387420Y-93601000D02*
X160668580Y-93601000D01*
%TO.C,JP1*%
X167915000Y-80285000D02*
X167915000Y-83085000D01*
X167915000Y-83085000D02*
X169915000Y-83085000D01*
X169915000Y-80285000D02*
X167915000Y-80285000D01*
X169915000Y-83085000D02*
X169915000Y-80285000D01*
%TO.C,C5*%
X160387420Y-90930000D02*
X160668580Y-90930000D01*
X160387420Y-91950000D02*
X160668580Y-91950000D01*
%TO.C,C12*%
X163954306Y-92113664D02*
X163954306Y-92394824D01*
X164974306Y-92113664D02*
X164974306Y-92394824D01*
%TO.C,C9*%
X160387420Y-95252000D02*
X160668580Y-95252000D01*
X160387420Y-94232000D02*
X160668580Y-94232000D01*
%TO.C,U3*%
X158261000Y-84298000D02*
X159521000Y-84298000D01*
X158261000Y-88058000D02*
X158261000Y-84298000D01*
X165081000Y-84298000D02*
X163821000Y-84298000D01*
X165081000Y-88058000D02*
X165081000Y-84298000D01*
X164981000Y-89338000D02*
X165311000Y-89578000D01*
X165311000Y-89098000D01*
X164981000Y-89338000D01*
G36*
X165311000Y-89578000D02*
G01*
X164981000Y-89338000D01*
X165311000Y-89098000D01*
X165311000Y-89578000D01*
G37*
%TO.C,C13*%
X163716580Y-94232000D02*
X163435420Y-94232000D01*
X163716580Y-95252000D02*
X163435420Y-95252000D01*
%TO.C,C10*%
X160387420Y-95883000D02*
X160668580Y-95883000D01*
X160387420Y-96903000D02*
X160668580Y-96903000D01*
%TO.C,C11*%
X162303306Y-92113664D02*
X162303306Y-92394824D01*
X163323306Y-92113664D02*
X163323306Y-92394824D01*
%TD*%
%LPC*%
G36*
X156137339Y-106711390D02*
G01*
X156309396Y-106782658D01*
X156464243Y-106886123D01*
X156595929Y-107017809D01*
X156699394Y-107172656D01*
X156770662Y-107344713D01*
X156806994Y-107527367D01*
X156811569Y-107620483D01*
X156811569Y-109220483D01*
X156806994Y-109313599D01*
X156770662Y-109496253D01*
X156699394Y-109668310D01*
X156595929Y-109823157D01*
X156464243Y-109954843D01*
X156309396Y-110058308D01*
X156137339Y-110129576D01*
X155954685Y-110165908D01*
X155768453Y-110165908D01*
X155585799Y-110129576D01*
X155413742Y-110058308D01*
X155258895Y-109954843D01*
X155127209Y-109823157D01*
X155023744Y-109668310D01*
X154952476Y-109496253D01*
X154916144Y-109313599D01*
X154911569Y-109220483D01*
X154911569Y-107620483D01*
X154916144Y-107527367D01*
X154952476Y-107344713D01*
X155023744Y-107172656D01*
X155127209Y-107017809D01*
X155258895Y-106886123D01*
X155413742Y-106782658D01*
X155585799Y-106711390D01*
X155768453Y-106675058D01*
X155954685Y-106675058D01*
X156137339Y-106711390D01*
G37*
G36*
X167537339Y-106711390D02*
G01*
X167709396Y-106782658D01*
X167864243Y-106886123D01*
X167995929Y-107017809D01*
X168099394Y-107172656D01*
X168170662Y-107344713D01*
X168206994Y-107527367D01*
X168211569Y-107620483D01*
X168211569Y-109220483D01*
X168206994Y-109313599D01*
X168170662Y-109496253D01*
X168099394Y-109668310D01*
X167995929Y-109823157D01*
X167864243Y-109954843D01*
X167709396Y-110058308D01*
X167537339Y-110129576D01*
X167354685Y-110165908D01*
X167168453Y-110165908D01*
X166985799Y-110129576D01*
X166813742Y-110058308D01*
X166658895Y-109954843D01*
X166527209Y-109823157D01*
X166423744Y-109668310D01*
X166352476Y-109496253D01*
X166316144Y-109313599D01*
X166311569Y-109220483D01*
X166311569Y-107620483D01*
X166316144Y-107527367D01*
X166352476Y-107344713D01*
X166423744Y-107172656D01*
X166527209Y-107017809D01*
X166658895Y-106886123D01*
X166813742Y-106782658D01*
X166985799Y-106711390D01*
X167168453Y-106675058D01*
X167354685Y-106675058D01*
X167537339Y-106711390D01*
G37*
G36*
X159324340Y-107875188D02*
G01*
X159333358Y-107875188D01*
X159359340Y-107882149D01*
X159421138Y-107894442D01*
X159450307Y-107906524D01*
X159472045Y-107912349D01*
X159491534Y-107923601D01*
X159520702Y-107935683D01*
X159573093Y-107970689D01*
X159596388Y-107984139D01*
X159602763Y-107990514D01*
X159610298Y-107995549D01*
X159686502Y-108071753D01*
X159691536Y-108079287D01*
X159697913Y-108085664D01*
X159711364Y-108108962D01*
X159746368Y-108161349D01*
X159758448Y-108190513D01*
X159769703Y-108210007D01*
X159775528Y-108231748D01*
X159787609Y-108260913D01*
X159799900Y-108322706D01*
X159806864Y-108348694D01*
X159806864Y-108357712D01*
X159808632Y-108366601D01*
X159808632Y-108474364D01*
X159806864Y-108483252D01*
X159806864Y-108492272D01*
X159799899Y-108518262D01*
X159787609Y-108580052D01*
X159775529Y-108609214D01*
X159769703Y-108630959D01*
X159758447Y-108650454D01*
X159746368Y-108679616D01*
X159711368Y-108731996D01*
X159697913Y-108755302D01*
X159691534Y-108761680D01*
X159686502Y-108769212D01*
X159610298Y-108845416D01*
X159602766Y-108850448D01*
X159596388Y-108856827D01*
X159573082Y-108870282D01*
X159520702Y-108905282D01*
X159491540Y-108917361D01*
X159472045Y-108928617D01*
X159450300Y-108934443D01*
X159421138Y-108946523D01*
X159359346Y-108958814D01*
X159333358Y-108965778D01*
X159324339Y-108965778D01*
X159315451Y-108967546D01*
X159207687Y-108967546D01*
X159198799Y-108965778D01*
X159189780Y-108965778D01*
X159163792Y-108958814D01*
X159101999Y-108946523D01*
X159072834Y-108934442D01*
X159051093Y-108928617D01*
X159031599Y-108917362D01*
X159002435Y-108905282D01*
X158950048Y-108870278D01*
X158926750Y-108856827D01*
X158920373Y-108850450D01*
X158912839Y-108845416D01*
X158836635Y-108769212D01*
X158831600Y-108761677D01*
X158825225Y-108755302D01*
X158811775Y-108732007D01*
X158776769Y-108679616D01*
X158764687Y-108650448D01*
X158753435Y-108630959D01*
X158747610Y-108609221D01*
X158735528Y-108580052D01*
X158723236Y-108518256D01*
X158716274Y-108492272D01*
X158716274Y-108483252D01*
X158714506Y-108474364D01*
X158714506Y-108366601D01*
X158716274Y-108357712D01*
X158716274Y-108348694D01*
X158723235Y-108322712D01*
X158735528Y-108260913D01*
X158747611Y-108231741D01*
X158753435Y-108210007D01*
X158764685Y-108190520D01*
X158776769Y-108161349D01*
X158811780Y-108108951D01*
X158825225Y-108085664D01*
X158831598Y-108079290D01*
X158836635Y-108071753D01*
X158912839Y-107995549D01*
X158920376Y-107990512D01*
X158926750Y-107984139D01*
X158950037Y-107970694D01*
X159002435Y-107935683D01*
X159031606Y-107923599D01*
X159051093Y-107912349D01*
X159072827Y-107906525D01*
X159101999Y-107894442D01*
X159163798Y-107882149D01*
X159189780Y-107875188D01*
X159198798Y-107875188D01*
X159207687Y-107873420D01*
X159315451Y-107873420D01*
X159324340Y-107875188D01*
G37*
G36*
X163924340Y-107875188D02*
G01*
X163933358Y-107875188D01*
X163959340Y-107882149D01*
X164021138Y-107894442D01*
X164050307Y-107906524D01*
X164072045Y-107912349D01*
X164091534Y-107923601D01*
X164120702Y-107935683D01*
X164173093Y-107970689D01*
X164196388Y-107984139D01*
X164202763Y-107990514D01*
X164210298Y-107995549D01*
X164286502Y-108071753D01*
X164291536Y-108079287D01*
X164297913Y-108085664D01*
X164311364Y-108108962D01*
X164346368Y-108161349D01*
X164358448Y-108190513D01*
X164369703Y-108210007D01*
X164375528Y-108231748D01*
X164387609Y-108260913D01*
X164399900Y-108322706D01*
X164406864Y-108348694D01*
X164406864Y-108357712D01*
X164408632Y-108366601D01*
X164408632Y-108474364D01*
X164406864Y-108483252D01*
X164406864Y-108492272D01*
X164399899Y-108518262D01*
X164387609Y-108580052D01*
X164375529Y-108609214D01*
X164369703Y-108630959D01*
X164358447Y-108650454D01*
X164346368Y-108679616D01*
X164311368Y-108731996D01*
X164297913Y-108755302D01*
X164291534Y-108761680D01*
X164286502Y-108769212D01*
X164210298Y-108845416D01*
X164202766Y-108850448D01*
X164196388Y-108856827D01*
X164173082Y-108870282D01*
X164120702Y-108905282D01*
X164091540Y-108917361D01*
X164072045Y-108928617D01*
X164050300Y-108934443D01*
X164021138Y-108946523D01*
X163959346Y-108958814D01*
X163933358Y-108965778D01*
X163924339Y-108965778D01*
X163915451Y-108967546D01*
X163807687Y-108967546D01*
X163798799Y-108965778D01*
X163789780Y-108965778D01*
X163763792Y-108958814D01*
X163701999Y-108946523D01*
X163672834Y-108934442D01*
X163651093Y-108928617D01*
X163631599Y-108917362D01*
X163602435Y-108905282D01*
X163550048Y-108870278D01*
X163526750Y-108856827D01*
X163520373Y-108850450D01*
X163512839Y-108845416D01*
X163436635Y-108769212D01*
X163431600Y-108761677D01*
X163425225Y-108755302D01*
X163411775Y-108732007D01*
X163376769Y-108679616D01*
X163364687Y-108650448D01*
X163353435Y-108630959D01*
X163347610Y-108609221D01*
X163335528Y-108580052D01*
X163323236Y-108518256D01*
X163316274Y-108492272D01*
X163316274Y-108483252D01*
X163314506Y-108474364D01*
X163314506Y-108366601D01*
X163316274Y-108357712D01*
X163316274Y-108348694D01*
X163323235Y-108322712D01*
X163335528Y-108260913D01*
X163347611Y-108231741D01*
X163353435Y-108210007D01*
X163364685Y-108190520D01*
X163376769Y-108161349D01*
X163411780Y-108108951D01*
X163425225Y-108085664D01*
X163431598Y-108079290D01*
X163436635Y-108071753D01*
X163512839Y-107995549D01*
X163520376Y-107990512D01*
X163526750Y-107984139D01*
X163550037Y-107970694D01*
X163602435Y-107935683D01*
X163631606Y-107923599D01*
X163651093Y-107912349D01*
X163672827Y-107906525D01*
X163701999Y-107894442D01*
X163763798Y-107882149D01*
X163789780Y-107875188D01*
X163798798Y-107875188D01*
X163807687Y-107873420D01*
X163915451Y-107873420D01*
X163924340Y-107875188D01*
G37*
G36*
X159982850Y-97569964D02*
G01*
X160027317Y-97575123D01*
X160042510Y-97581831D01*
X160064104Y-97586127D01*
X160087222Y-97601574D01*
X160104567Y-97609233D01*
X160116412Y-97621078D01*
X160137099Y-97634901D01*
X160150921Y-97655587D01*
X160162766Y-97667432D01*
X160170423Y-97684774D01*
X160185873Y-97707896D01*
X160190168Y-97729491D01*
X160196876Y-97744682D01*
X160202033Y-97789139D01*
X160203000Y-97794000D01*
X160203000Y-98294000D01*
X160202032Y-98298862D01*
X160196876Y-98343317D01*
X160190168Y-98358506D01*
X160185873Y-98380104D01*
X160170422Y-98403227D01*
X160162766Y-98420567D01*
X160150923Y-98432409D01*
X160137099Y-98453099D01*
X160116409Y-98466923D01*
X160104567Y-98478766D01*
X160087227Y-98486422D01*
X160064104Y-98501873D01*
X160042506Y-98506168D01*
X160027317Y-98512876D01*
X159982861Y-98518032D01*
X159978000Y-98519000D01*
X159528000Y-98519000D01*
X159523138Y-98518033D01*
X159478682Y-98512876D01*
X159463491Y-98506168D01*
X159441896Y-98501873D01*
X159418774Y-98486423D01*
X159401432Y-98478766D01*
X159389587Y-98466921D01*
X159368901Y-98453099D01*
X159355078Y-98432412D01*
X159343233Y-98420567D01*
X159335574Y-98403222D01*
X159320127Y-98380104D01*
X159315831Y-98358510D01*
X159309123Y-98343317D01*
X159303964Y-98298849D01*
X159303000Y-98294000D01*
X159303000Y-97794000D01*
X159303964Y-97789150D01*
X159309123Y-97744682D01*
X159315832Y-97729487D01*
X159320127Y-97707896D01*
X159335573Y-97684779D01*
X159343233Y-97667432D01*
X159355080Y-97655584D01*
X159368901Y-97634901D01*
X159389584Y-97621080D01*
X159401432Y-97609233D01*
X159418779Y-97601573D01*
X159441896Y-97586127D01*
X159463487Y-97581832D01*
X159478682Y-97575123D01*
X159523151Y-97569964D01*
X159528000Y-97569000D01*
X159978000Y-97569000D01*
X159982850Y-97569964D01*
G37*
G36*
X161532850Y-97569964D02*
G01*
X161577317Y-97575123D01*
X161592510Y-97581831D01*
X161614104Y-97586127D01*
X161637222Y-97601574D01*
X161654567Y-97609233D01*
X161666412Y-97621078D01*
X161687099Y-97634901D01*
X161700921Y-97655587D01*
X161712766Y-97667432D01*
X161720423Y-97684774D01*
X161735873Y-97707896D01*
X161740168Y-97729491D01*
X161746876Y-97744682D01*
X161752033Y-97789139D01*
X161753000Y-97794000D01*
X161753000Y-98294000D01*
X161752032Y-98298862D01*
X161746876Y-98343317D01*
X161740168Y-98358506D01*
X161735873Y-98380104D01*
X161720422Y-98403227D01*
X161712766Y-98420567D01*
X161700923Y-98432409D01*
X161687099Y-98453099D01*
X161666409Y-98466923D01*
X161654567Y-98478766D01*
X161637227Y-98486422D01*
X161614104Y-98501873D01*
X161592506Y-98506168D01*
X161577317Y-98512876D01*
X161532861Y-98518032D01*
X161528000Y-98519000D01*
X161078000Y-98519000D01*
X161073138Y-98518033D01*
X161028682Y-98512876D01*
X161013491Y-98506168D01*
X160991896Y-98501873D01*
X160968774Y-98486423D01*
X160951432Y-98478766D01*
X160939587Y-98466921D01*
X160918901Y-98453099D01*
X160905078Y-98432412D01*
X160893233Y-98420567D01*
X160885574Y-98403222D01*
X160870127Y-98380104D01*
X160865831Y-98358510D01*
X160859123Y-98343317D01*
X160853964Y-98298849D01*
X160853000Y-98294000D01*
X160853000Y-97794000D01*
X160853964Y-97789150D01*
X160859123Y-97744682D01*
X160865832Y-97729487D01*
X160870127Y-97707896D01*
X160885573Y-97684779D01*
X160893233Y-97667432D01*
X160905080Y-97655584D01*
X160918901Y-97634901D01*
X160939584Y-97621080D01*
X160951432Y-97609233D01*
X160968779Y-97601573D01*
X160991896Y-97586127D01*
X161013487Y-97581832D01*
X161028682Y-97575123D01*
X161073151Y-97569964D01*
X161078000Y-97569000D01*
X161528000Y-97569000D01*
X161532850Y-97569964D01*
G37*
G36*
X159982850Y-95918964D02*
G01*
X160027317Y-95924123D01*
X160042510Y-95930831D01*
X160064104Y-95935127D01*
X160087222Y-95950574D01*
X160104567Y-95958233D01*
X160116412Y-95970078D01*
X160137099Y-95983901D01*
X160150921Y-96004587D01*
X160162766Y-96016432D01*
X160170423Y-96033774D01*
X160185873Y-96056896D01*
X160190168Y-96078491D01*
X160196876Y-96093682D01*
X160202033Y-96138139D01*
X160203000Y-96143000D01*
X160203000Y-96643000D01*
X160202032Y-96647862D01*
X160196876Y-96692317D01*
X160190168Y-96707506D01*
X160185873Y-96729104D01*
X160170422Y-96752227D01*
X160162766Y-96769567D01*
X160150923Y-96781409D01*
X160137099Y-96802099D01*
X160116409Y-96815923D01*
X160104567Y-96827766D01*
X160087227Y-96835422D01*
X160064104Y-96850873D01*
X160042506Y-96855168D01*
X160027317Y-96861876D01*
X159982861Y-96867032D01*
X159978000Y-96868000D01*
X159528000Y-96868000D01*
X159523138Y-96867033D01*
X159478682Y-96861876D01*
X159463491Y-96855168D01*
X159441896Y-96850873D01*
X159418774Y-96835423D01*
X159401432Y-96827766D01*
X159389587Y-96815921D01*
X159368901Y-96802099D01*
X159355078Y-96781412D01*
X159343233Y-96769567D01*
X159335574Y-96752222D01*
X159320127Y-96729104D01*
X159315831Y-96707510D01*
X159309123Y-96692317D01*
X159303964Y-96647849D01*
X159303000Y-96643000D01*
X159303000Y-96143000D01*
X159303964Y-96138150D01*
X159309123Y-96093682D01*
X159315832Y-96078487D01*
X159320127Y-96056896D01*
X159335573Y-96033779D01*
X159343233Y-96016432D01*
X159355080Y-96004584D01*
X159368901Y-95983901D01*
X159389584Y-95970080D01*
X159401432Y-95958233D01*
X159418779Y-95950573D01*
X159441896Y-95935127D01*
X159463487Y-95930832D01*
X159478682Y-95924123D01*
X159523151Y-95918964D01*
X159528000Y-95918000D01*
X159978000Y-95918000D01*
X159982850Y-95918964D01*
G37*
G36*
X161532850Y-95918964D02*
G01*
X161577317Y-95924123D01*
X161592510Y-95930831D01*
X161614104Y-95935127D01*
X161637222Y-95950574D01*
X161654567Y-95958233D01*
X161666412Y-95970078D01*
X161687099Y-95983901D01*
X161700921Y-96004587D01*
X161712766Y-96016432D01*
X161720423Y-96033774D01*
X161735873Y-96056896D01*
X161740168Y-96078491D01*
X161746876Y-96093682D01*
X161752033Y-96138139D01*
X161753000Y-96143000D01*
X161753000Y-96643000D01*
X161752032Y-96647862D01*
X161746876Y-96692317D01*
X161740168Y-96707506D01*
X161735873Y-96729104D01*
X161720422Y-96752227D01*
X161712766Y-96769567D01*
X161700923Y-96781409D01*
X161687099Y-96802099D01*
X161666409Y-96815923D01*
X161654567Y-96827766D01*
X161637227Y-96835422D01*
X161614104Y-96850873D01*
X161592506Y-96855168D01*
X161577317Y-96861876D01*
X161532861Y-96867032D01*
X161528000Y-96868000D01*
X161078000Y-96868000D01*
X161073138Y-96867033D01*
X161028682Y-96861876D01*
X161013491Y-96855168D01*
X160991896Y-96850873D01*
X160968774Y-96835423D01*
X160951432Y-96827766D01*
X160939587Y-96815921D01*
X160918901Y-96802099D01*
X160905078Y-96781412D01*
X160893233Y-96769567D01*
X160885574Y-96752222D01*
X160870127Y-96729104D01*
X160865831Y-96707510D01*
X160859123Y-96692317D01*
X160853964Y-96647849D01*
X160853000Y-96643000D01*
X160853000Y-96143000D01*
X160853964Y-96138150D01*
X160859123Y-96093682D01*
X160865832Y-96078487D01*
X160870127Y-96056896D01*
X160885573Y-96033779D01*
X160893233Y-96016432D01*
X160905080Y-96004584D01*
X160918901Y-95983901D01*
X160939584Y-95970080D01*
X160951432Y-95958233D01*
X160968779Y-95950573D01*
X160991896Y-95935127D01*
X161013487Y-95930832D01*
X161028682Y-95924123D01*
X161073151Y-95918964D01*
X161078000Y-95918000D01*
X161528000Y-95918000D01*
X161532850Y-95918964D01*
G37*
G36*
X159982850Y-94267964D02*
G01*
X160027317Y-94273123D01*
X160042510Y-94279831D01*
X160064104Y-94284127D01*
X160087222Y-94299574D01*
X160104567Y-94307233D01*
X160116412Y-94319078D01*
X160137099Y-94332901D01*
X160150921Y-94353587D01*
X160162766Y-94365432D01*
X160170423Y-94382774D01*
X160185873Y-94405896D01*
X160190168Y-94427491D01*
X160196876Y-94442682D01*
X160202033Y-94487139D01*
X160203000Y-94492000D01*
X160203000Y-94992000D01*
X160202032Y-94996862D01*
X160196876Y-95041317D01*
X160190168Y-95056506D01*
X160185873Y-95078104D01*
X160170422Y-95101227D01*
X160162766Y-95118567D01*
X160150923Y-95130409D01*
X160137099Y-95151099D01*
X160116409Y-95164923D01*
X160104567Y-95176766D01*
X160087227Y-95184422D01*
X160064104Y-95199873D01*
X160042506Y-95204168D01*
X160027317Y-95210876D01*
X159982861Y-95216032D01*
X159978000Y-95217000D01*
X159528000Y-95217000D01*
X159523138Y-95216033D01*
X159478682Y-95210876D01*
X159463491Y-95204168D01*
X159441896Y-95199873D01*
X159418774Y-95184423D01*
X159401432Y-95176766D01*
X159389587Y-95164921D01*
X159368901Y-95151099D01*
X159355078Y-95130412D01*
X159343233Y-95118567D01*
X159335574Y-95101222D01*
X159320127Y-95078104D01*
X159315831Y-95056510D01*
X159309123Y-95041317D01*
X159303964Y-94996849D01*
X159303000Y-94992000D01*
X159303000Y-94492000D01*
X159303964Y-94487150D01*
X159309123Y-94442682D01*
X159315832Y-94427487D01*
X159320127Y-94405896D01*
X159335573Y-94382779D01*
X159343233Y-94365432D01*
X159355080Y-94353584D01*
X159368901Y-94332901D01*
X159389584Y-94319080D01*
X159401432Y-94307233D01*
X159418779Y-94299573D01*
X159441896Y-94284127D01*
X159463487Y-94279832D01*
X159478682Y-94273123D01*
X159523151Y-94267964D01*
X159528000Y-94267000D01*
X159978000Y-94267000D01*
X159982850Y-94267964D01*
G37*
G36*
X161532850Y-94267964D02*
G01*
X161577317Y-94273123D01*
X161592510Y-94279831D01*
X161614104Y-94284127D01*
X161637222Y-94299574D01*
X161654567Y-94307233D01*
X161666412Y-94319078D01*
X161687099Y-94332901D01*
X161700921Y-94353587D01*
X161712766Y-94365432D01*
X161720423Y-94382774D01*
X161735873Y-94405896D01*
X161740168Y-94427491D01*
X161746876Y-94442682D01*
X161752033Y-94487139D01*
X161753000Y-94492000D01*
X161753000Y-94992000D01*
X161752032Y-94996862D01*
X161746876Y-95041317D01*
X161740168Y-95056506D01*
X161735873Y-95078104D01*
X161720422Y-95101227D01*
X161712766Y-95118567D01*
X161700923Y-95130409D01*
X161687099Y-95151099D01*
X161666409Y-95164923D01*
X161654567Y-95176766D01*
X161637227Y-95184422D01*
X161614104Y-95199873D01*
X161592506Y-95204168D01*
X161577317Y-95210876D01*
X161532861Y-95216032D01*
X161528000Y-95217000D01*
X161078000Y-95217000D01*
X161073138Y-95216033D01*
X161028682Y-95210876D01*
X161013491Y-95204168D01*
X160991896Y-95199873D01*
X160968774Y-95184423D01*
X160951432Y-95176766D01*
X160939587Y-95164921D01*
X160918901Y-95151099D01*
X160905078Y-95130412D01*
X160893233Y-95118567D01*
X160885574Y-95101222D01*
X160870127Y-95078104D01*
X160865831Y-95056510D01*
X160859123Y-95041317D01*
X160853964Y-94996849D01*
X160853000Y-94992000D01*
X160853000Y-94492000D01*
X160853964Y-94487150D01*
X160859123Y-94442682D01*
X160865832Y-94427487D01*
X160870127Y-94405896D01*
X160885573Y-94382779D01*
X160893233Y-94365432D01*
X160905080Y-94353584D01*
X160918901Y-94332901D01*
X160939584Y-94319080D01*
X160951432Y-94307233D01*
X160968779Y-94299573D01*
X160991896Y-94284127D01*
X161013487Y-94279832D01*
X161028682Y-94273123D01*
X161073151Y-94267964D01*
X161078000Y-94267000D01*
X161528000Y-94267000D01*
X161532850Y-94267964D01*
G37*
G36*
X163030850Y-94267964D02*
G01*
X163075317Y-94273123D01*
X163090510Y-94279831D01*
X163112104Y-94284127D01*
X163135222Y-94299574D01*
X163152567Y-94307233D01*
X163164412Y-94319078D01*
X163185099Y-94332901D01*
X163198921Y-94353587D01*
X163210766Y-94365432D01*
X163218423Y-94382774D01*
X163233873Y-94405896D01*
X163238168Y-94427491D01*
X163244876Y-94442682D01*
X163250033Y-94487139D01*
X163251000Y-94492000D01*
X163251000Y-94992000D01*
X163250032Y-94996862D01*
X163244876Y-95041317D01*
X163238168Y-95056506D01*
X163233873Y-95078104D01*
X163218422Y-95101227D01*
X163210766Y-95118567D01*
X163198923Y-95130409D01*
X163185099Y-95151099D01*
X163164409Y-95164923D01*
X163152567Y-95176766D01*
X163135227Y-95184422D01*
X163112104Y-95199873D01*
X163090506Y-95204168D01*
X163075317Y-95210876D01*
X163030861Y-95216032D01*
X163026000Y-95217000D01*
X162576000Y-95217000D01*
X162571138Y-95216033D01*
X162526682Y-95210876D01*
X162511491Y-95204168D01*
X162489896Y-95199873D01*
X162466774Y-95184423D01*
X162449432Y-95176766D01*
X162437587Y-95164921D01*
X162416901Y-95151099D01*
X162403078Y-95130412D01*
X162391233Y-95118567D01*
X162383574Y-95101222D01*
X162368127Y-95078104D01*
X162363831Y-95056510D01*
X162357123Y-95041317D01*
X162351964Y-94996849D01*
X162351000Y-94992000D01*
X162351000Y-94492000D01*
X162351964Y-94487150D01*
X162357123Y-94442682D01*
X162363832Y-94427487D01*
X162368127Y-94405896D01*
X162383573Y-94382779D01*
X162391233Y-94365432D01*
X162403080Y-94353584D01*
X162416901Y-94332901D01*
X162437584Y-94319080D01*
X162449432Y-94307233D01*
X162466779Y-94299573D01*
X162489896Y-94284127D01*
X162511487Y-94279832D01*
X162526682Y-94273123D01*
X162571151Y-94267964D01*
X162576000Y-94267000D01*
X163026000Y-94267000D01*
X163030850Y-94267964D01*
G37*
G36*
X164580850Y-94267964D02*
G01*
X164625317Y-94273123D01*
X164640510Y-94279831D01*
X164662104Y-94284127D01*
X164685222Y-94299574D01*
X164702567Y-94307233D01*
X164714412Y-94319078D01*
X164735099Y-94332901D01*
X164748921Y-94353587D01*
X164760766Y-94365432D01*
X164768423Y-94382774D01*
X164783873Y-94405896D01*
X164788168Y-94427491D01*
X164794876Y-94442682D01*
X164800033Y-94487139D01*
X164801000Y-94492000D01*
X164801000Y-94992000D01*
X164800032Y-94996862D01*
X164794876Y-95041317D01*
X164788168Y-95056506D01*
X164783873Y-95078104D01*
X164768422Y-95101227D01*
X164760766Y-95118567D01*
X164748923Y-95130409D01*
X164735099Y-95151099D01*
X164714409Y-95164923D01*
X164702567Y-95176766D01*
X164685227Y-95184422D01*
X164662104Y-95199873D01*
X164640506Y-95204168D01*
X164625317Y-95210876D01*
X164580861Y-95216032D01*
X164576000Y-95217000D01*
X164126000Y-95217000D01*
X164121138Y-95216033D01*
X164076682Y-95210876D01*
X164061491Y-95204168D01*
X164039896Y-95199873D01*
X164016774Y-95184423D01*
X163999432Y-95176766D01*
X163987587Y-95164921D01*
X163966901Y-95151099D01*
X163953078Y-95130412D01*
X163941233Y-95118567D01*
X163933574Y-95101222D01*
X163918127Y-95078104D01*
X163913831Y-95056510D01*
X163907123Y-95041317D01*
X163901964Y-94996849D01*
X163901000Y-94992000D01*
X163901000Y-94492000D01*
X163901964Y-94487150D01*
X163907123Y-94442682D01*
X163913832Y-94427487D01*
X163918127Y-94405896D01*
X163933573Y-94382779D01*
X163941233Y-94365432D01*
X163953080Y-94353584D01*
X163966901Y-94332901D01*
X163987584Y-94319080D01*
X163999432Y-94307233D01*
X164016779Y-94299573D01*
X164039896Y-94284127D01*
X164061487Y-94279832D01*
X164076682Y-94273123D01*
X164121151Y-94267964D01*
X164126000Y-94267000D01*
X164576000Y-94267000D01*
X164580850Y-94267964D01*
G37*
G36*
X159982850Y-92616964D02*
G01*
X160027317Y-92622123D01*
X160042510Y-92628831D01*
X160064104Y-92633127D01*
X160087222Y-92648574D01*
X160104567Y-92656233D01*
X160116412Y-92668078D01*
X160137099Y-92681901D01*
X160150921Y-92702587D01*
X160162766Y-92714432D01*
X160170423Y-92731774D01*
X160185873Y-92754896D01*
X160190168Y-92776491D01*
X160196876Y-92791682D01*
X160202033Y-92836139D01*
X160203000Y-92841000D01*
X160203000Y-93341000D01*
X160202032Y-93345862D01*
X160196876Y-93390317D01*
X160190168Y-93405506D01*
X160185873Y-93427104D01*
X160170422Y-93450227D01*
X160162766Y-93467567D01*
X160150923Y-93479409D01*
X160137099Y-93500099D01*
X160116409Y-93513923D01*
X160104567Y-93525766D01*
X160087227Y-93533422D01*
X160064104Y-93548873D01*
X160042506Y-93553168D01*
X160027317Y-93559876D01*
X159982861Y-93565032D01*
X159978000Y-93566000D01*
X159528000Y-93566000D01*
X159523138Y-93565033D01*
X159478682Y-93559876D01*
X159463491Y-93553168D01*
X159441896Y-93548873D01*
X159418774Y-93533423D01*
X159401432Y-93525766D01*
X159389587Y-93513921D01*
X159368901Y-93500099D01*
X159355078Y-93479412D01*
X159343233Y-93467567D01*
X159335574Y-93450222D01*
X159320127Y-93427104D01*
X159315831Y-93405510D01*
X159309123Y-93390317D01*
X159303964Y-93345849D01*
X159303000Y-93341000D01*
X159303000Y-92841000D01*
X159303964Y-92836150D01*
X159309123Y-92791682D01*
X159315832Y-92776487D01*
X159320127Y-92754896D01*
X159335573Y-92731779D01*
X159343233Y-92714432D01*
X159355080Y-92702584D01*
X159368901Y-92681901D01*
X159389584Y-92668080D01*
X159401432Y-92656233D01*
X159418779Y-92648573D01*
X159441896Y-92633127D01*
X159463487Y-92628832D01*
X159478682Y-92622123D01*
X159523151Y-92616964D01*
X159528000Y-92616000D01*
X159978000Y-92616000D01*
X159982850Y-92616964D01*
G37*
G36*
X161532850Y-92616964D02*
G01*
X161577317Y-92622123D01*
X161592510Y-92628831D01*
X161614104Y-92633127D01*
X161637222Y-92648574D01*
X161654567Y-92656233D01*
X161666412Y-92668078D01*
X161687099Y-92681901D01*
X161700921Y-92702587D01*
X161712766Y-92714432D01*
X161720423Y-92731774D01*
X161735873Y-92754896D01*
X161740168Y-92776491D01*
X161746876Y-92791682D01*
X161752033Y-92836139D01*
X161753000Y-92841000D01*
X161753000Y-93341000D01*
X161752032Y-93345862D01*
X161746876Y-93390317D01*
X161740168Y-93405506D01*
X161735873Y-93427104D01*
X161720422Y-93450227D01*
X161712766Y-93467567D01*
X161700923Y-93479409D01*
X161687099Y-93500099D01*
X161666409Y-93513923D01*
X161654567Y-93525766D01*
X161637227Y-93533422D01*
X161614104Y-93548873D01*
X161592506Y-93553168D01*
X161577317Y-93559876D01*
X161532861Y-93565032D01*
X161528000Y-93566000D01*
X161078000Y-93566000D01*
X161073138Y-93565033D01*
X161028682Y-93559876D01*
X161013491Y-93553168D01*
X160991896Y-93548873D01*
X160968774Y-93533423D01*
X160951432Y-93525766D01*
X160939587Y-93513921D01*
X160918901Y-93500099D01*
X160905078Y-93479412D01*
X160893233Y-93467567D01*
X160885574Y-93450222D01*
X160870127Y-93427104D01*
X160865831Y-93405510D01*
X160859123Y-93390317D01*
X160853964Y-93345849D01*
X160853000Y-93341000D01*
X160853000Y-92841000D01*
X160853964Y-92836150D01*
X160859123Y-92791682D01*
X160865832Y-92776487D01*
X160870127Y-92754896D01*
X160885573Y-92731779D01*
X160893233Y-92714432D01*
X160905080Y-92702584D01*
X160918901Y-92681901D01*
X160939584Y-92668080D01*
X160951432Y-92656233D01*
X160968779Y-92648573D01*
X160991896Y-92633127D01*
X161013487Y-92628832D01*
X161028682Y-92622123D01*
X161073151Y-92616964D01*
X161078000Y-92616000D01*
X161528000Y-92616000D01*
X161532850Y-92616964D01*
G37*
G36*
X163068156Y-92580208D02*
G01*
X163112623Y-92585367D01*
X163127816Y-92592075D01*
X163149410Y-92596371D01*
X163172528Y-92611818D01*
X163189873Y-92619477D01*
X163201718Y-92631322D01*
X163222405Y-92645145D01*
X163236227Y-92665831D01*
X163248072Y-92677676D01*
X163255729Y-92695018D01*
X163271179Y-92718140D01*
X163275474Y-92739735D01*
X163282182Y-92754926D01*
X163287339Y-92799383D01*
X163288306Y-92804244D01*
X163288306Y-93254244D01*
X163287338Y-93259106D01*
X163282182Y-93303561D01*
X163275474Y-93318750D01*
X163271179Y-93340348D01*
X163255728Y-93363471D01*
X163248072Y-93380811D01*
X163236229Y-93392653D01*
X163222405Y-93413343D01*
X163201715Y-93427167D01*
X163189873Y-93439010D01*
X163172533Y-93446666D01*
X163149410Y-93462117D01*
X163127812Y-93466412D01*
X163112623Y-93473120D01*
X163068167Y-93478276D01*
X163063306Y-93479244D01*
X162563306Y-93479244D01*
X162558444Y-93478277D01*
X162513988Y-93473120D01*
X162498797Y-93466412D01*
X162477202Y-93462117D01*
X162454080Y-93446667D01*
X162436738Y-93439010D01*
X162424893Y-93427165D01*
X162404207Y-93413343D01*
X162390384Y-93392656D01*
X162378539Y-93380811D01*
X162370880Y-93363466D01*
X162355433Y-93340348D01*
X162351137Y-93318754D01*
X162344429Y-93303561D01*
X162339270Y-93259093D01*
X162338306Y-93254244D01*
X162338306Y-92804244D01*
X162339270Y-92799394D01*
X162344429Y-92754926D01*
X162351138Y-92739731D01*
X162355433Y-92718140D01*
X162370879Y-92695023D01*
X162378539Y-92677676D01*
X162390386Y-92665828D01*
X162404207Y-92645145D01*
X162424890Y-92631324D01*
X162436738Y-92619477D01*
X162454085Y-92611817D01*
X162477202Y-92596371D01*
X162498793Y-92592076D01*
X162513988Y-92585367D01*
X162558457Y-92580208D01*
X162563306Y-92579244D01*
X163063306Y-92579244D01*
X163068156Y-92580208D01*
G37*
G36*
X164719156Y-92580208D02*
G01*
X164763623Y-92585367D01*
X164778816Y-92592075D01*
X164800410Y-92596371D01*
X164823528Y-92611818D01*
X164840873Y-92619477D01*
X164852718Y-92631322D01*
X164873405Y-92645145D01*
X164887227Y-92665831D01*
X164899072Y-92677676D01*
X164906729Y-92695018D01*
X164922179Y-92718140D01*
X164926474Y-92739735D01*
X164933182Y-92754926D01*
X164938339Y-92799383D01*
X164939306Y-92804244D01*
X164939306Y-93254244D01*
X164938338Y-93259106D01*
X164933182Y-93303561D01*
X164926474Y-93318750D01*
X164922179Y-93340348D01*
X164906728Y-93363471D01*
X164899072Y-93380811D01*
X164887229Y-93392653D01*
X164873405Y-93413343D01*
X164852715Y-93427167D01*
X164840873Y-93439010D01*
X164823533Y-93446666D01*
X164800410Y-93462117D01*
X164778812Y-93466412D01*
X164763623Y-93473120D01*
X164719167Y-93478276D01*
X164714306Y-93479244D01*
X164214306Y-93479244D01*
X164209444Y-93478277D01*
X164164988Y-93473120D01*
X164149797Y-93466412D01*
X164128202Y-93462117D01*
X164105080Y-93446667D01*
X164087738Y-93439010D01*
X164075893Y-93427165D01*
X164055207Y-93413343D01*
X164041384Y-93392656D01*
X164029539Y-93380811D01*
X164021880Y-93363466D01*
X164006433Y-93340348D01*
X164002137Y-93318754D01*
X163995429Y-93303561D01*
X163990270Y-93259093D01*
X163989306Y-93254244D01*
X163989306Y-92804244D01*
X163990270Y-92799394D01*
X163995429Y-92754926D01*
X164002138Y-92739731D01*
X164006433Y-92718140D01*
X164021879Y-92695023D01*
X164029539Y-92677676D01*
X164041386Y-92665828D01*
X164055207Y-92645145D01*
X164075890Y-92631324D01*
X164087738Y-92619477D01*
X164105085Y-92611817D01*
X164128202Y-92596371D01*
X164149793Y-92592076D01*
X164164988Y-92585367D01*
X164209457Y-92580208D01*
X164214306Y-92579244D01*
X164714306Y-92579244D01*
X164719156Y-92580208D01*
G37*
G36*
X163068156Y-91030208D02*
G01*
X163112623Y-91035367D01*
X163127816Y-91042075D01*
X163149410Y-91046371D01*
X163172528Y-91061818D01*
X163189873Y-91069477D01*
X163201718Y-91081322D01*
X163222405Y-91095145D01*
X163236227Y-91115831D01*
X163248072Y-91127676D01*
X163255729Y-91145018D01*
X163271179Y-91168140D01*
X163275474Y-91189735D01*
X163282182Y-91204926D01*
X163287339Y-91249383D01*
X163288306Y-91254244D01*
X163288306Y-91704244D01*
X163287338Y-91709106D01*
X163282182Y-91753561D01*
X163275474Y-91768750D01*
X163271179Y-91790348D01*
X163255728Y-91813471D01*
X163248072Y-91830811D01*
X163236229Y-91842653D01*
X163222405Y-91863343D01*
X163201715Y-91877167D01*
X163189873Y-91889010D01*
X163172533Y-91896666D01*
X163149410Y-91912117D01*
X163127812Y-91916412D01*
X163112623Y-91923120D01*
X163068167Y-91928276D01*
X163063306Y-91929244D01*
X162563306Y-91929244D01*
X162558444Y-91928277D01*
X162513988Y-91923120D01*
X162498797Y-91916412D01*
X162477202Y-91912117D01*
X162454080Y-91896667D01*
X162436738Y-91889010D01*
X162424893Y-91877165D01*
X162404207Y-91863343D01*
X162390384Y-91842656D01*
X162378539Y-91830811D01*
X162370880Y-91813466D01*
X162355433Y-91790348D01*
X162351137Y-91768754D01*
X162344429Y-91753561D01*
X162339270Y-91709093D01*
X162338306Y-91704244D01*
X162338306Y-91254244D01*
X162339270Y-91249394D01*
X162344429Y-91204926D01*
X162351138Y-91189731D01*
X162355433Y-91168140D01*
X162370879Y-91145023D01*
X162378539Y-91127676D01*
X162390386Y-91115828D01*
X162404207Y-91095145D01*
X162424890Y-91081324D01*
X162436738Y-91069477D01*
X162454085Y-91061817D01*
X162477202Y-91046371D01*
X162498793Y-91042076D01*
X162513988Y-91035367D01*
X162558457Y-91030208D01*
X162563306Y-91029244D01*
X163063306Y-91029244D01*
X163068156Y-91030208D01*
G37*
G36*
X164719156Y-91030208D02*
G01*
X164763623Y-91035367D01*
X164778816Y-91042075D01*
X164800410Y-91046371D01*
X164823528Y-91061818D01*
X164840873Y-91069477D01*
X164852718Y-91081322D01*
X164873405Y-91095145D01*
X164887227Y-91115831D01*
X164899072Y-91127676D01*
X164906729Y-91145018D01*
X164922179Y-91168140D01*
X164926474Y-91189735D01*
X164933182Y-91204926D01*
X164938339Y-91249383D01*
X164939306Y-91254244D01*
X164939306Y-91704244D01*
X164938338Y-91709106D01*
X164933182Y-91753561D01*
X164926474Y-91768750D01*
X164922179Y-91790348D01*
X164906728Y-91813471D01*
X164899072Y-91830811D01*
X164887229Y-91842653D01*
X164873405Y-91863343D01*
X164852715Y-91877167D01*
X164840873Y-91889010D01*
X164823533Y-91896666D01*
X164800410Y-91912117D01*
X164778812Y-91916412D01*
X164763623Y-91923120D01*
X164719167Y-91928276D01*
X164714306Y-91929244D01*
X164214306Y-91929244D01*
X164209444Y-91928277D01*
X164164988Y-91923120D01*
X164149797Y-91916412D01*
X164128202Y-91912117D01*
X164105080Y-91896667D01*
X164087738Y-91889010D01*
X164075893Y-91877165D01*
X164055207Y-91863343D01*
X164041384Y-91842656D01*
X164029539Y-91830811D01*
X164021880Y-91813466D01*
X164006433Y-91790348D01*
X164002137Y-91768754D01*
X163995429Y-91753561D01*
X163990270Y-91709093D01*
X163989306Y-91704244D01*
X163989306Y-91254244D01*
X163990270Y-91249394D01*
X163995429Y-91204926D01*
X164002138Y-91189731D01*
X164006433Y-91168140D01*
X164021879Y-91145023D01*
X164029539Y-91127676D01*
X164041386Y-91115828D01*
X164055207Y-91095145D01*
X164075890Y-91081324D01*
X164087738Y-91069477D01*
X164105085Y-91061817D01*
X164128202Y-91046371D01*
X164149793Y-91042076D01*
X164164988Y-91035367D01*
X164209457Y-91030208D01*
X164214306Y-91029244D01*
X164714306Y-91029244D01*
X164719156Y-91030208D01*
G37*
G36*
X159982850Y-90965964D02*
G01*
X160027317Y-90971123D01*
X160042510Y-90977831D01*
X160064104Y-90982127D01*
X160087222Y-90997574D01*
X160104567Y-91005233D01*
X160116412Y-91017078D01*
X160137099Y-91030901D01*
X160150921Y-91051587D01*
X160162766Y-91063432D01*
X160170423Y-91080774D01*
X160185873Y-91103896D01*
X160190168Y-91125491D01*
X160196876Y-91140682D01*
X160202033Y-91185139D01*
X160203000Y-91190000D01*
X160203000Y-91690000D01*
X160202032Y-91694862D01*
X160196876Y-91739317D01*
X160190168Y-91754506D01*
X160185873Y-91776104D01*
X160170422Y-91799227D01*
X160162766Y-91816567D01*
X160150923Y-91828409D01*
X160137099Y-91849099D01*
X160116409Y-91862923D01*
X160104567Y-91874766D01*
X160087227Y-91882422D01*
X160064104Y-91897873D01*
X160042506Y-91902168D01*
X160027317Y-91908876D01*
X159982861Y-91914032D01*
X159978000Y-91915000D01*
X159528000Y-91915000D01*
X159523138Y-91914033D01*
X159478682Y-91908876D01*
X159463491Y-91902168D01*
X159441896Y-91897873D01*
X159418774Y-91882423D01*
X159401432Y-91874766D01*
X159389587Y-91862921D01*
X159368901Y-91849099D01*
X159355078Y-91828412D01*
X159343233Y-91816567D01*
X159335574Y-91799222D01*
X159320127Y-91776104D01*
X159315831Y-91754510D01*
X159309123Y-91739317D01*
X159303964Y-91694849D01*
X159303000Y-91690000D01*
X159303000Y-91190000D01*
X159303964Y-91185150D01*
X159309123Y-91140682D01*
X159315832Y-91125487D01*
X159320127Y-91103896D01*
X159335573Y-91080779D01*
X159343233Y-91063432D01*
X159355080Y-91051584D01*
X159368901Y-91030901D01*
X159389584Y-91017080D01*
X159401432Y-91005233D01*
X159418779Y-90997573D01*
X159441896Y-90982127D01*
X159463487Y-90977832D01*
X159478682Y-90971123D01*
X159523151Y-90965964D01*
X159528000Y-90965000D01*
X159978000Y-90965000D01*
X159982850Y-90965964D01*
G37*
G36*
X161532850Y-90965964D02*
G01*
X161577317Y-90971123D01*
X161592510Y-90977831D01*
X161614104Y-90982127D01*
X161637222Y-90997574D01*
X161654567Y-91005233D01*
X161666412Y-91017078D01*
X161687099Y-91030901D01*
X161700921Y-91051587D01*
X161712766Y-91063432D01*
X161720423Y-91080774D01*
X161735873Y-91103896D01*
X161740168Y-91125491D01*
X161746876Y-91140682D01*
X161752033Y-91185139D01*
X161753000Y-91190000D01*
X161753000Y-91690000D01*
X161752032Y-91694862D01*
X161746876Y-91739317D01*
X161740168Y-91754506D01*
X161735873Y-91776104D01*
X161720422Y-91799227D01*
X161712766Y-91816567D01*
X161700923Y-91828409D01*
X161687099Y-91849099D01*
X161666409Y-91862923D01*
X161654567Y-91874766D01*
X161637227Y-91882422D01*
X161614104Y-91897873D01*
X161592506Y-91902168D01*
X161577317Y-91908876D01*
X161532861Y-91914032D01*
X161528000Y-91915000D01*
X161078000Y-91915000D01*
X161073138Y-91914033D01*
X161028682Y-91908876D01*
X161013491Y-91902168D01*
X160991896Y-91897873D01*
X160968774Y-91882423D01*
X160951432Y-91874766D01*
X160939587Y-91862921D01*
X160918901Y-91849099D01*
X160905078Y-91828412D01*
X160893233Y-91816567D01*
X160885574Y-91799222D01*
X160870127Y-91776104D01*
X160865831Y-91754510D01*
X160859123Y-91739317D01*
X160853964Y-91694849D01*
X160853000Y-91690000D01*
X160853000Y-91190000D01*
X160853964Y-91185150D01*
X160859123Y-91140682D01*
X160865832Y-91125487D01*
X160870127Y-91103896D01*
X160885573Y-91080779D01*
X160893233Y-91063432D01*
X160905080Y-91051584D01*
X160918901Y-91030901D01*
X160939584Y-91017080D01*
X160951432Y-91005233D01*
X160968779Y-90997573D01*
X160991896Y-90982127D01*
X161013487Y-90977832D01*
X161028682Y-90971123D01*
X161073151Y-90965964D01*
X161078000Y-90965000D01*
X161528000Y-90965000D01*
X161532850Y-90965964D01*
G37*
G36*
X159751071Y-88358738D02*
G01*
X159813973Y-88364637D01*
X159829968Y-88370234D01*
X159853001Y-88373590D01*
X159886852Y-88390139D01*
X159920909Y-88402056D01*
X159939902Y-88416073D01*
X159963904Y-88427807D01*
X159986730Y-88450633D01*
X160010686Y-88468313D01*
X160028365Y-88492268D01*
X160051193Y-88515096D01*
X160062927Y-88539099D01*
X160076943Y-88558090D01*
X160088858Y-88592142D01*
X160105410Y-88625999D01*
X160108766Y-88649034D01*
X160114362Y-88665026D01*
X160120258Y-88727912D01*
X160121000Y-88733000D01*
X160121000Y-89983000D01*
X160120258Y-89988091D01*
X160114362Y-90050973D01*
X160108766Y-90066963D01*
X160105410Y-90090001D01*
X160088857Y-90123859D01*
X160076943Y-90157909D01*
X160062928Y-90176898D01*
X160051193Y-90200904D01*
X160028362Y-90223734D01*
X160010686Y-90247686D01*
X159986734Y-90265362D01*
X159963904Y-90288193D01*
X159939898Y-90299928D01*
X159920909Y-90313943D01*
X159886859Y-90325857D01*
X159853001Y-90342410D01*
X159829963Y-90345766D01*
X159813973Y-90351362D01*
X159751089Y-90357258D01*
X159746000Y-90358000D01*
X158996000Y-90358000D01*
X158990910Y-90357258D01*
X158928026Y-90351362D01*
X158912034Y-90345766D01*
X158888999Y-90342410D01*
X158855142Y-90325858D01*
X158821090Y-90313943D01*
X158802099Y-90299927D01*
X158778096Y-90288193D01*
X158755268Y-90265365D01*
X158731313Y-90247686D01*
X158713633Y-90223730D01*
X158690807Y-90200904D01*
X158679073Y-90176902D01*
X158665056Y-90157909D01*
X158653139Y-90123852D01*
X158636590Y-90090001D01*
X158633234Y-90066968D01*
X158627637Y-90050973D01*
X158621738Y-89988070D01*
X158621000Y-89983000D01*
X158621000Y-88733000D01*
X158621738Y-88727930D01*
X158627637Y-88665026D01*
X158633234Y-88649029D01*
X158636590Y-88625999D01*
X158653137Y-88592149D01*
X158665056Y-88558090D01*
X158679074Y-88539095D01*
X158690807Y-88515096D01*
X158713630Y-88492272D01*
X158731313Y-88468313D01*
X158755272Y-88450630D01*
X158778096Y-88427807D01*
X158802095Y-88416074D01*
X158821090Y-88402056D01*
X158855149Y-88390137D01*
X158888999Y-88373590D01*
X158912029Y-88370234D01*
X158928026Y-88364637D01*
X158990931Y-88358738D01*
X158996000Y-88358000D01*
X159746000Y-88358000D01*
X159751071Y-88358738D01*
G37*
G36*
X162051071Y-88358738D02*
G01*
X162113973Y-88364637D01*
X162129968Y-88370234D01*
X162153001Y-88373590D01*
X162186852Y-88390139D01*
X162220909Y-88402056D01*
X162239902Y-88416073D01*
X162263904Y-88427807D01*
X162286730Y-88450633D01*
X162310686Y-88468313D01*
X162328365Y-88492268D01*
X162351193Y-88515096D01*
X162362927Y-88539099D01*
X162376943Y-88558090D01*
X162388858Y-88592142D01*
X162405410Y-88625999D01*
X162408766Y-88649034D01*
X162414362Y-88665026D01*
X162420258Y-88727912D01*
X162421000Y-88733000D01*
X162421000Y-89983000D01*
X162420258Y-89988091D01*
X162414362Y-90050973D01*
X162408766Y-90066963D01*
X162405410Y-90090001D01*
X162388857Y-90123859D01*
X162376943Y-90157909D01*
X162362928Y-90176898D01*
X162351193Y-90200904D01*
X162328362Y-90223734D01*
X162310686Y-90247686D01*
X162286734Y-90265362D01*
X162263904Y-90288193D01*
X162239898Y-90299928D01*
X162220909Y-90313943D01*
X162186859Y-90325857D01*
X162153001Y-90342410D01*
X162129963Y-90345766D01*
X162113973Y-90351362D01*
X162051089Y-90357258D01*
X162046000Y-90358000D01*
X161296000Y-90358000D01*
X161290910Y-90357258D01*
X161228026Y-90351362D01*
X161212034Y-90345766D01*
X161188999Y-90342410D01*
X161155142Y-90325858D01*
X161121090Y-90313943D01*
X161102099Y-90299927D01*
X161078096Y-90288193D01*
X161055268Y-90265365D01*
X161031313Y-90247686D01*
X161013633Y-90223730D01*
X160990807Y-90200904D01*
X160979073Y-90176902D01*
X160965056Y-90157909D01*
X160953139Y-90123852D01*
X160936590Y-90090001D01*
X160933234Y-90066968D01*
X160927637Y-90050973D01*
X160921738Y-89988070D01*
X160921000Y-89983000D01*
X160921000Y-88733000D01*
X160921738Y-88727930D01*
X160927637Y-88665026D01*
X160933234Y-88649029D01*
X160936590Y-88625999D01*
X160953137Y-88592149D01*
X160965056Y-88558090D01*
X160979074Y-88539095D01*
X160990807Y-88515096D01*
X161013630Y-88492272D01*
X161031313Y-88468313D01*
X161055272Y-88450630D01*
X161078096Y-88427807D01*
X161102095Y-88416074D01*
X161121090Y-88402056D01*
X161155149Y-88390137D01*
X161188999Y-88373590D01*
X161212029Y-88370234D01*
X161228026Y-88364637D01*
X161290931Y-88358738D01*
X161296000Y-88358000D01*
X162046000Y-88358000D01*
X162051071Y-88358738D01*
G37*
G36*
X164351071Y-88358738D02*
G01*
X164413973Y-88364637D01*
X164429968Y-88370234D01*
X164453001Y-88373590D01*
X164486852Y-88390139D01*
X164520909Y-88402056D01*
X164539902Y-88416073D01*
X164563904Y-88427807D01*
X164586730Y-88450633D01*
X164610686Y-88468313D01*
X164628365Y-88492268D01*
X164651193Y-88515096D01*
X164662927Y-88539099D01*
X164676943Y-88558090D01*
X164688858Y-88592142D01*
X164705410Y-88625999D01*
X164708766Y-88649034D01*
X164714362Y-88665026D01*
X164720258Y-88727912D01*
X164721000Y-88733000D01*
X164721000Y-89983000D01*
X164720258Y-89988091D01*
X164714362Y-90050973D01*
X164708766Y-90066963D01*
X164705410Y-90090001D01*
X164688857Y-90123859D01*
X164676943Y-90157909D01*
X164662928Y-90176898D01*
X164651193Y-90200904D01*
X164628362Y-90223734D01*
X164610686Y-90247686D01*
X164586734Y-90265362D01*
X164563904Y-90288193D01*
X164539898Y-90299928D01*
X164520909Y-90313943D01*
X164486859Y-90325857D01*
X164453001Y-90342410D01*
X164429963Y-90345766D01*
X164413973Y-90351362D01*
X164351089Y-90357258D01*
X164346000Y-90358000D01*
X163596000Y-90358000D01*
X163590910Y-90357258D01*
X163528026Y-90351362D01*
X163512034Y-90345766D01*
X163488999Y-90342410D01*
X163455142Y-90325858D01*
X163421090Y-90313943D01*
X163402099Y-90299927D01*
X163378096Y-90288193D01*
X163355268Y-90265365D01*
X163331313Y-90247686D01*
X163313633Y-90223730D01*
X163290807Y-90200904D01*
X163279073Y-90176902D01*
X163265056Y-90157909D01*
X163253139Y-90123852D01*
X163236590Y-90090001D01*
X163233234Y-90066968D01*
X163227637Y-90050973D01*
X163221738Y-89988070D01*
X163221000Y-89983000D01*
X163221000Y-88733000D01*
X163221738Y-88727930D01*
X163227637Y-88665026D01*
X163233234Y-88649029D01*
X163236590Y-88625999D01*
X163253137Y-88592149D01*
X163265056Y-88558090D01*
X163279074Y-88539095D01*
X163290807Y-88515096D01*
X163313630Y-88492272D01*
X163331313Y-88468313D01*
X163355272Y-88450630D01*
X163378096Y-88427807D01*
X163402095Y-88416074D01*
X163421090Y-88402056D01*
X163455149Y-88390137D01*
X163488999Y-88373590D01*
X163512029Y-88370234D01*
X163528026Y-88364637D01*
X163590931Y-88358738D01*
X163596000Y-88358000D01*
X164346000Y-88358000D01*
X164351071Y-88358738D01*
G37*
G36*
X167980537Y-86154224D02*
G01*
X168045421Y-86197579D01*
X168088776Y-86262463D01*
X168104000Y-86339000D01*
X168104000Y-86889000D01*
X168088776Y-86965537D01*
X168045421Y-87030421D01*
X167980537Y-87073776D01*
X167904000Y-87089000D01*
X167504000Y-87089000D01*
X167427463Y-87073776D01*
X167362579Y-87030421D01*
X167319224Y-86965537D01*
X167304000Y-86889000D01*
X167304000Y-86339000D01*
X167319224Y-86262463D01*
X167362579Y-86197579D01*
X167427463Y-86154224D01*
X167504000Y-86139000D01*
X167904000Y-86139000D01*
X167980537Y-86154224D01*
G37*
G36*
X169630537Y-86154224D02*
G01*
X169695421Y-86197579D01*
X169738776Y-86262463D01*
X169754000Y-86339000D01*
X169754000Y-86889000D01*
X169738776Y-86965537D01*
X169695421Y-87030421D01*
X169630537Y-87073776D01*
X169554000Y-87089000D01*
X169154000Y-87089000D01*
X169077463Y-87073776D01*
X169012579Y-87030421D01*
X168969224Y-86965537D01*
X168954000Y-86889000D01*
X168954000Y-86339000D01*
X168969224Y-86262463D01*
X169012579Y-86197579D01*
X169077463Y-86154224D01*
X169154000Y-86139000D01*
X169554000Y-86139000D01*
X169630537Y-86154224D01*
G37*
G36*
X154021537Y-84641224D02*
G01*
X154086421Y-84684579D01*
X154129776Y-84749463D01*
X154145000Y-84826000D01*
X154145000Y-85226000D01*
X154129776Y-85302537D01*
X154086421Y-85367421D01*
X154021537Y-85410776D01*
X153945000Y-85426000D01*
X153395000Y-85426000D01*
X153318463Y-85410776D01*
X153253579Y-85367421D01*
X153210224Y-85302537D01*
X153195000Y-85226000D01*
X153195000Y-84826000D01*
X153210224Y-84749463D01*
X153253579Y-84684579D01*
X153318463Y-84641224D01*
X153395000Y-84626000D01*
X153945000Y-84626000D01*
X154021537Y-84641224D01*
G37*
G36*
X155672537Y-84641224D02*
G01*
X155737421Y-84684579D01*
X155780776Y-84749463D01*
X155796000Y-84826000D01*
X155796000Y-85226000D01*
X155780776Y-85302537D01*
X155737421Y-85367421D01*
X155672537Y-85410776D01*
X155596000Y-85426000D01*
X155046000Y-85426000D01*
X154969463Y-85410776D01*
X154904579Y-85367421D01*
X154861224Y-85302537D01*
X154846000Y-85226000D01*
X154846000Y-84826000D01*
X154861224Y-84749463D01*
X154904579Y-84684579D01*
X154969463Y-84641224D01*
X155046000Y-84626000D01*
X155596000Y-84626000D01*
X155672537Y-84641224D01*
G37*
G36*
X157323537Y-84641224D02*
G01*
X157388421Y-84684579D01*
X157431776Y-84749463D01*
X157447000Y-84826000D01*
X157447000Y-85226000D01*
X157431776Y-85302537D01*
X157388421Y-85367421D01*
X157323537Y-85410776D01*
X157247000Y-85426000D01*
X156697000Y-85426000D01*
X156620463Y-85410776D01*
X156555579Y-85367421D01*
X156512224Y-85302537D01*
X156497000Y-85226000D01*
X156497000Y-84826000D01*
X156512224Y-84749463D01*
X156555579Y-84684579D01*
X156620463Y-84641224D01*
X156697000Y-84626000D01*
X157247000Y-84626000D01*
X157323537Y-84641224D01*
G37*
G36*
X163177283Y-82069427D02*
G01*
X163184268Y-82072032D01*
X163188762Y-82072572D01*
X163241931Y-82093539D01*
X163310624Y-82119161D01*
X163314768Y-82122263D01*
X163315776Y-82122661D01*
X163352416Y-82150446D01*
X163424553Y-82204447D01*
X163478572Y-82276608D01*
X163506338Y-82313223D01*
X163506734Y-82314229D01*
X163509839Y-82318376D01*
X163535470Y-82387096D01*
X163556427Y-82440237D01*
X163556966Y-82444728D01*
X163559573Y-82451717D01*
X163571000Y-82558000D01*
X163571000Y-83558000D01*
X163559573Y-83664283D01*
X163556966Y-83671272D01*
X163556427Y-83675762D01*
X163535477Y-83728884D01*
X163509839Y-83797624D01*
X163506734Y-83801771D01*
X163506338Y-83802776D01*
X163478630Y-83839313D01*
X163424553Y-83911553D01*
X163352313Y-83965630D01*
X163315776Y-83993338D01*
X163314771Y-83993734D01*
X163310624Y-83996839D01*
X163241884Y-84022477D01*
X163188762Y-84043427D01*
X163184272Y-84043966D01*
X163177283Y-84046573D01*
X163071000Y-84058000D01*
X160271000Y-84058000D01*
X160164717Y-84046573D01*
X160157728Y-84043966D01*
X160153237Y-84043427D01*
X160100096Y-84022470D01*
X160031376Y-83996839D01*
X160027229Y-83993734D01*
X160026223Y-83993338D01*
X159989608Y-83965572D01*
X159917447Y-83911553D01*
X159863446Y-83839416D01*
X159835661Y-83802776D01*
X159835263Y-83801768D01*
X159832161Y-83797624D01*
X159806539Y-83728931D01*
X159785572Y-83675762D01*
X159785032Y-83671268D01*
X159782427Y-83664283D01*
X159771000Y-83558000D01*
X159771000Y-82558000D01*
X159782427Y-82451717D01*
X159785032Y-82444732D01*
X159785572Y-82440237D01*
X159806546Y-82387049D01*
X159832161Y-82318376D01*
X159835263Y-82314232D01*
X159835661Y-82313223D01*
X159863504Y-82276506D01*
X159917447Y-82204447D01*
X159989506Y-82150504D01*
X160026223Y-82122661D01*
X160027232Y-82122263D01*
X160031376Y-82119161D01*
X160100049Y-82093546D01*
X160153237Y-82072572D01*
X160157732Y-82072032D01*
X160164717Y-82069427D01*
X160271000Y-82058000D01*
X163071000Y-82058000D01*
X163177283Y-82069427D01*
G37*
G36*
X154021537Y-82991224D02*
G01*
X154086421Y-83034579D01*
X154129776Y-83099463D01*
X154145000Y-83176000D01*
X154145000Y-83576000D01*
X154129776Y-83652537D01*
X154086421Y-83717421D01*
X154021537Y-83760776D01*
X153945000Y-83776000D01*
X153395000Y-83776000D01*
X153318463Y-83760776D01*
X153253579Y-83717421D01*
X153210224Y-83652537D01*
X153195000Y-83576000D01*
X153195000Y-83176000D01*
X153210224Y-83099463D01*
X153253579Y-83034579D01*
X153318463Y-82991224D01*
X153395000Y-82976000D01*
X153945000Y-82976000D01*
X154021537Y-82991224D01*
G37*
G36*
X155672537Y-82991224D02*
G01*
X155737421Y-83034579D01*
X155780776Y-83099463D01*
X155796000Y-83176000D01*
X155796000Y-83576000D01*
X155780776Y-83652537D01*
X155737421Y-83717421D01*
X155672537Y-83760776D01*
X155596000Y-83776000D01*
X155046000Y-83776000D01*
X154969463Y-83760776D01*
X154904579Y-83717421D01*
X154861224Y-83652537D01*
X154846000Y-83576000D01*
X154846000Y-83176000D01*
X154861224Y-83099463D01*
X154904579Y-83034579D01*
X154969463Y-82991224D01*
X155046000Y-82976000D01*
X155596000Y-82976000D01*
X155672537Y-82991224D01*
G37*
G36*
X157323537Y-82991224D02*
G01*
X157388421Y-83034579D01*
X157431776Y-83099463D01*
X157447000Y-83176000D01*
X157447000Y-83576000D01*
X157431776Y-83652537D01*
X157388421Y-83717421D01*
X157323537Y-83760776D01*
X157247000Y-83776000D01*
X156697000Y-83776000D01*
X156620463Y-83760776D01*
X156555579Y-83717421D01*
X156512224Y-83652537D01*
X156497000Y-83576000D01*
X156497000Y-83176000D01*
X156512224Y-83099463D01*
X156555579Y-83034579D01*
X156620463Y-82991224D01*
X156697000Y-82976000D01*
X157247000Y-82976000D01*
X157323537Y-82991224D01*
G37*
G36*
X169668536Y-80456464D02*
G01*
X169670000Y-80460000D01*
X169670000Y-81460000D01*
X169668536Y-81463536D01*
X169667774Y-81464160D01*
X169665034Y-81465986D01*
X169665000Y-81466160D01*
X169665000Y-81747904D01*
X169666074Y-81755159D01*
X169669160Y-81757226D01*
X169670000Y-81760000D01*
X169670000Y-82910000D01*
X169668536Y-82913536D01*
X169665000Y-82915000D01*
X169653065Y-82915000D01*
X168176935Y-82915000D01*
X168165000Y-82915000D01*
X168161464Y-82913536D01*
X168160000Y-82910000D01*
X168160000Y-81760000D01*
X168161464Y-81756464D01*
X168164748Y-81755104D01*
X168165000Y-81753838D01*
X168165000Y-81469411D01*
X168163703Y-81465145D01*
X168162226Y-81464160D01*
X168160097Y-81460981D01*
X168160000Y-81460000D01*
X168160000Y-80460000D01*
X168161464Y-80456464D01*
X168165000Y-80455000D01*
X169665000Y-80455000D01*
X169668536Y-80456464D01*
G37*
G36*
X159093850Y-80297964D02*
G01*
X159138317Y-80303123D01*
X159153510Y-80309831D01*
X159175104Y-80314127D01*
X159198222Y-80329574D01*
X159215567Y-80337233D01*
X159227412Y-80349078D01*
X159248099Y-80362901D01*
X159261921Y-80383587D01*
X159273766Y-80395432D01*
X159281423Y-80412774D01*
X159296873Y-80435896D01*
X159301168Y-80457491D01*
X159307876Y-80472682D01*
X159313033Y-80517139D01*
X159314000Y-80522000D01*
X159314000Y-81022000D01*
X159313032Y-81026862D01*
X159307876Y-81071317D01*
X159301168Y-81086506D01*
X159296873Y-81108104D01*
X159281422Y-81131227D01*
X159273766Y-81148567D01*
X159261923Y-81160409D01*
X159248099Y-81181099D01*
X159227409Y-81194923D01*
X159215567Y-81206766D01*
X159198227Y-81214422D01*
X159175104Y-81229873D01*
X159153506Y-81234168D01*
X159138317Y-81240876D01*
X159093861Y-81246032D01*
X159089000Y-81247000D01*
X158639000Y-81247000D01*
X158634138Y-81246033D01*
X158589682Y-81240876D01*
X158574491Y-81234168D01*
X158552896Y-81229873D01*
X158529774Y-81214423D01*
X158512432Y-81206766D01*
X158500587Y-81194921D01*
X158479901Y-81181099D01*
X158466078Y-81160412D01*
X158454233Y-81148567D01*
X158446574Y-81131222D01*
X158431127Y-81108104D01*
X158426831Y-81086510D01*
X158420123Y-81071317D01*
X158414964Y-81026849D01*
X158414000Y-81022000D01*
X158414000Y-80522000D01*
X158414964Y-80517150D01*
X158420123Y-80472682D01*
X158426832Y-80457487D01*
X158431127Y-80435896D01*
X158446573Y-80412779D01*
X158454233Y-80395432D01*
X158466080Y-80383584D01*
X158479901Y-80362901D01*
X158500584Y-80349080D01*
X158512432Y-80337233D01*
X158529779Y-80329573D01*
X158552896Y-80314127D01*
X158574487Y-80309832D01*
X158589682Y-80303123D01*
X158634151Y-80297964D01*
X158639000Y-80297000D01*
X159089000Y-80297000D01*
X159093850Y-80297964D01*
G37*
G36*
X160643850Y-80297964D02*
G01*
X160688317Y-80303123D01*
X160703510Y-80309831D01*
X160725104Y-80314127D01*
X160748222Y-80329574D01*
X160765567Y-80337233D01*
X160777412Y-80349078D01*
X160798099Y-80362901D01*
X160811921Y-80383587D01*
X160823766Y-80395432D01*
X160831423Y-80412774D01*
X160846873Y-80435896D01*
X160851168Y-80457491D01*
X160857876Y-80472682D01*
X160863033Y-80517139D01*
X160864000Y-80522000D01*
X160864000Y-81022000D01*
X160863032Y-81026862D01*
X160857876Y-81071317D01*
X160851168Y-81086506D01*
X160846873Y-81108104D01*
X160831422Y-81131227D01*
X160823766Y-81148567D01*
X160811923Y-81160409D01*
X160798099Y-81181099D01*
X160777409Y-81194923D01*
X160765567Y-81206766D01*
X160748227Y-81214422D01*
X160725104Y-81229873D01*
X160703506Y-81234168D01*
X160688317Y-81240876D01*
X160643861Y-81246032D01*
X160639000Y-81247000D01*
X160189000Y-81247000D01*
X160184138Y-81246033D01*
X160139682Y-81240876D01*
X160124491Y-81234168D01*
X160102896Y-81229873D01*
X160079774Y-81214423D01*
X160062432Y-81206766D01*
X160050587Y-81194921D01*
X160029901Y-81181099D01*
X160016078Y-81160412D01*
X160004233Y-81148567D01*
X159996574Y-81131222D01*
X159981127Y-81108104D01*
X159976831Y-81086510D01*
X159970123Y-81071317D01*
X159964964Y-81026849D01*
X159964000Y-81022000D01*
X159964000Y-80522000D01*
X159964964Y-80517150D01*
X159970123Y-80472682D01*
X159976832Y-80457487D01*
X159981127Y-80435896D01*
X159996573Y-80412779D01*
X160004233Y-80395432D01*
X160016080Y-80383584D01*
X160029901Y-80362901D01*
X160050584Y-80349080D01*
X160062432Y-80337233D01*
X160079779Y-80329573D01*
X160102896Y-80314127D01*
X160124487Y-80309832D01*
X160139682Y-80303123D01*
X160184151Y-80297964D01*
X160189000Y-80297000D01*
X160639000Y-80297000D01*
X160643850Y-80297964D01*
G37*
%LPD*%
M02*
